CSS Mono 002.ufo
<glyph name="quotedbl" format="1">
  <advance width="800"/>
  <unicode hex="0022"/>
  <outline>
    <contour>
      <point x="367" y="661" type="line"/>
      <point x="367" y="689"/>
      <point x="344" y="712"/>
      <point x="315" y="712" type="curve" smooth="yes"/>
      <point x="287" y="712"/>
      <point x="259" y="689"/>
      <point x="264" y="661" type="curve" smooth="yes"/>
      <point x="297" y="472" type="line" smooth="yes"/>
      <point x="333" y="472" type="line" smooth="yes"/>
    </contour>
    <contour>
      <point x="537" y="661" type="line"/>
      <point x="537" y="689"/>
      <point x="514" y="712"/>
      <point x="485" y="712" type="curve" smooth="yes"/>
      <point x="457" y="712"/>
      <point x="429" y="689"/>
      <point x="434" y="661" type="curve" smooth="yes"/>
      <point x="467" y="472" type="line" smooth="yes"/>
      <point x="503" y="472" type="line" smooth="yes"/>
    </contour>
  </outline>
</glyph>
<glyph name="numbersign" format="1">
  <advance width="800"/>
  <unicode hex="0023"/>
  <outline>
    <contour>
      <point x="723" y="403" type="line"/>
      <point x="723" y="438" type="line"/>
      <point x="136" y="438" type="line"/>
      <point x="136" y="403" type="line"/>
    </contour>
    <contour>
      <point x="671" y="184" type="line"/>
      <point x="671" y="218" type="line"/>
      <point x="84" y="218" type="line"/>
      <point x="84" y="184" type="line"/>
    </contour>
    <contour>
      <point x="154" y="0" type="line"/>
      <point x="236" y="0" type="line"/>
      <point x="415" y="622" type="line"/>
      <point x="333" y="622" type="line"/>
    </contour>
    <contour>
      <point x="384" y="0" type="line"/>
      <point x="466" y="0" type="line"/>
      <point x="645" y="622" type="line"/>
      <point x="563" y="622" type="line"/>
    </contour>
  </outline>
</glyph>
<glyph name="percent" format="1">
  <advance width="800"/>
  <unicode hex="0025"/>
  <outline>
    <contour>
      <point x="254" y="-140" type="line" smooth="yes"/>
      <point x="176" y="-140" type="line" smooth="yes"/>
      <point x="546" y="700" type="line" smooth="yes"/>
      <point x="624" y="700" type="line" smooth="yes"/>
    </contour>
    <contour>
      <point x="150" y="570" type="curve" smooth="yes"/>
      <point x="150" y="619"/>
      <point x="186" y="667"/>
      <point x="231" y="667" type="curve" smooth="yes"/>
      <point x="295" y="667"/>
      <point x="336" y="623"/>
      <point x="336" y="556" type="curve" smooth="yes"/>
      <point x="336" y="507"/>
      <point x="300" y="459"/>
      <point x="255" y="459" type="curve" smooth="yes"/>
      <point x="191" y="459"/>
      <point x="150" y="503"/>
    </contour>
    <contour>
      <point x="83" y="554" type="curve" smooth="yes"/>
      <point x="83" y="485"/>
      <point x="155" y="426"/>
      <point x="224" y="426" type="curve" smooth="yes"/>
      <point x="319" y="426"/>
      <point x="403" y="478"/>
      <point x="403" y="572" type="curve" smooth="yes"/>
      <point x="403" y="642"/>
      <point x="332" y="700"/>
      <point x="262" y="700" type="curve" smooth="yes"/>
      <point x="167" y="700"/>
      <point x="83" y="649"/>
    </contour>
    <contour>
      <point x="464" y="4" type="curve" smooth="yes"/>
      <point x="464" y="53"/>
      <point x="500" y="101"/>
      <point x="545" y="101" type="curve" smooth="yes"/>
      <point x="609" y="101"/>
      <point x="650" y="57"/>
      <point x="650" y="-10" type="curve" smooth="yes"/>
      <point x="650" y="-59"/>
      <point x="614" y="-107"/>
      <point x="569" y="-107" type="curve" smooth="yes"/>
      <point x="505" y="-107"/>
      <point x="464" y="-63"/>
    </contour>
    <contour>
      <point x="397" y="-12" type="curve" smooth="yes"/>
      <point x="397" y="-81"/>
      <point x="469" y="-140"/>
      <point x="538" y="-140" type="curve" smooth="yes"/>
      <point x="633" y="-140"/>
      <point x="717" y="-88"/>
      <point x="717" y="6" type="curve" smooth="yes"/>
      <point x="717" y="76"/>
      <point x="646" y="134"/>
      <point x="576" y="134" type="curve" smooth="yes"/>
      <point x="481" y="134"/>
      <point x="397" y="83"/>
    </contour>
  </outline>
</glyph>
<glyph name="quotesingle" format="1">
  <advance width="800"/>
  <unicode hex="0027"/>
  <outline>
    <contour>
      <point x="452" y="661" type="line"/>
      <point x="452" y="689"/>
      <point x="429" y="712"/>
      <point x="400" y="712" type="curve" smooth="yes"/>
      <point x="372" y="712"/>
      <point x="344" y="689"/>
      <point x="349" y="661" type="curve" smooth="yes"/>
      <point x="382" y="472" type="line" smooth="yes"/>
      <point x="418" y="472" type="line" smooth="yes"/>
    </contour>
  </outline>
</glyph>
<glyph name="parenleft" format="1">
  <advance width="800"/>
  <unicode hex="0028"/>
  <outline>
    <contour>
      <point x="634" y="-164" type="curve"/>
      <point x="634" y="-130" type="line"/>
      <point x="483" y="-130"/>
      <point x="299" y="104"/>
      <point x="299" y="308" type="curve" smooth="yes"/>
      <point x="299" y="512"/>
      <point x="483" y="746"/>
      <point x="634" y="746" type="curve"/>
      <point x="634" y="780" type="line"/>
      <point x="436" y="780"/>
      <point x="208" y="587"/>
      <point x="208" y="308" type="curve" smooth="yes"/>
      <point x="208" y="29"/>
      <point x="436" y="-164"/>
    </contour>
  </outline>
</glyph>
<glyph name="parenright" format="1">
  <advance width="800"/>
  <unicode hex="0029"/>
  <outline>
    <contour>
      <point x="166" y="-164" type="line"/>
      <point x="364" y="-164"/>
      <point x="592" y="29"/>
      <point x="592" y="308" type="curve" smooth="yes"/>
      <point x="592" y="587"/>
      <point x="364" y="780"/>
      <point x="166" y="780" type="curve"/>
      <point x="166" y="746" type="line"/>
      <point x="317" y="746"/>
      <point x="501" y="512"/>
      <point x="501" y="308" type="curve" smooth="yes"/>
      <point x="501" y="104"/>
      <point x="317" y="-130"/>
      <point x="166" y="-130" type="curve"/>
    </contour>
  </outline>
</glyph>
<glyph name="asterisk" format="1">
  <advance width="800"/>
  <unicode hex="002A"/>
  <outline>
    <contour>
      <point x="400" y="489" type="curve"/>
      <point x="400" y="505" type="line"/>
      <point x="246" y="505"/>
      <point x="269" y="548"/>
      <point x="211" y="548" type="curve" smooth="yes"/>
      <point x="183" y="548"/>
      <point x="160" y="525"/>
      <point x="160" y="497" type="curve" smooth="yes"/>
      <point x="160" y="469"/>
      <point x="183" y="446"/>
      <point x="211" y="446" type="curve" smooth="yes"/>
      <point x="269" y="446"/>
      <point x="246" y="489"/>
    </contour>
    <contour>
      <point x="407" y="493" type="line"/>
      <point x="484" y="626"/>
      <point x="510" y="585"/>
      <point x="539" y="635" type="curve" smooth="yes"/>
      <point x="553" y="659"/>
      <point x="544" y="691"/>
      <point x="520" y="705" type="curve" smooth="yes"/>
      <point x="496" y="719"/>
      <point x="464" y="710"/>
      <point x="450" y="686" type="curve" smooth="yes"/>
      <point x="421" y="636"/>
      <point x="470" y="634"/>
      <point x="393" y="501" type="curve"/>
    </contour>
    <contour>
      <point x="400" y="489" type="line"/>
      <point x="554" y="489"/>
      <point x="531" y="446"/>
      <point x="589" y="446" type="curve" smooth="yes"/>
      <point x="617" y="446"/>
      <point x="640" y="469"/>
      <point x="640" y="497" type="curve" smooth="yes"/>
      <point x="640" y="525"/>
      <point x="617" y="548"/>
      <point x="589" y="548" type="curve" smooth="yes"/>
      <point x="531" y="548"/>
      <point x="554" y="505"/>
      <point x="400" y="505" type="curve"/>
    </contour>
    <contour>
      <point x="393" y="493" type="line"/>
      <point x="470" y="360"/>
      <point x="421" y="358"/>
      <point x="450" y="308" type="curve" smooth="yes"/>
      <point x="464" y="284"/>
      <point x="496" y="275"/>
      <point x="520" y="289" type="curve" smooth="yes"/>
      <point x="544" y="303"/>
      <point x="553" y="335"/>
      <point x="539" y="359" type="curve" smooth="yes"/>
      <point x="510" y="409"/>
      <point x="484" y="368"/>
      <point x="407" y="501" type="curve"/>
    </contour>
    <contour>
      <point x="393" y="493" type="curve"/>
      <point x="407" y="501" type="line"/>
      <point x="330" y="634"/>
      <point x="379" y="636"/>
      <point x="350" y="686" type="curve" smooth="yes"/>
      <point x="336" y="710"/>
      <point x="304" y="719"/>
      <point x="280" y="705" type="curve" smooth="yes"/>
      <point x="256" y="691"/>
      <point x="247" y="659"/>
      <point x="261" y="635" type="curve" smooth="yes"/>
      <point x="290" y="585"/>
      <point x="316" y="626"/>
    </contour>
    <contour>
      <point x="407" y="493" type="curve"/>
      <point x="393" y="501" type="line"/>
      <point x="316" y="368"/>
      <point x="290" y="409"/>
      <point x="261" y="359" type="curve" smooth="yes"/>
      <point x="247" y="335"/>
      <point x="256" y="303"/>
      <point x="280" y="289" type="curve" smooth="yes"/>
      <point x="304" y="275"/>
      <point x="336" y="284"/>
      <point x="350" y="308" type="curve" smooth="yes"/>
      <point x="379" y="358"/>
      <point x="330" y="360"/>
    </contour>
  </outline>
</glyph>
<glyph name="hyphen" format="1">
  <advance width="800"/>
  <unicode hex="002D"/>
  <outline>
    <contour>
      <point x="647" y="219" type="line"/>
      <point x="153" y="219" type="line"/>
      <point x="153" y="291" type="line"/>
      <point x="647" y="291" type="line"/>
    </contour>
  </outline>
</glyph>
<glyph name="slash" format="1">
  <advance width="800"/>
  <unicode hex="002F"/>
  <outline>
    <contour>
      <point x="254" y="-140" type="line" smooth="yes"/>
      <point x="176" y="-140" type="line" smooth="yes"/>
      <point x="546" y="700" type="line" smooth="yes"/>
      <point x="624" y="700" type="line" smooth="yes"/>
    </contour>
  </outline>
</glyph>
<glyph name="one" format="1">
  <advance width="800"/>
  <unicode hex="0031"/>
  <outline>
    <contour>
      <point x="445" y="700" type="line" smooth="yes"/>
      <point x="418" y="700" type="line"/>
      <point x="370" y="645"/>
      <point x="248" y="568"/>
      <point x="145" y="554" type="curve"/>
      <point x="145" y="488" type="line"/>
      <point x="227" y="488"/>
      <point x="275" y="574"/>
      <point x="356" y="574" type="curve"/>
      <point x="357" y="0" type="line" smooth="yes"/>
      <point x="445" y="0" type="line" smooth="yes"/>
    </contour>
    <contour>
      <point x="675" y="78" type="line"/>
      <point x="631" y="73"/>
      <point x="518" y="48"/>
      <point x="445" y="48" type="curve" smooth="yes"/>
      <point x="357" y="48" type="line" smooth="yes"/>
      <point x="284" y="48"/>
      <point x="171" y="73"/>
      <point x="127" y="78" type="curve"/>
      <point x="127" y="0" type="line" smooth="yes"/>
      <point x="675" y="0" type="line" smooth="yes"/>
    </contour>
  </outline>
</glyph>
<glyph name="two" format="1">
  <advance width="800"/>
  <unicode hex="0032"/>
  <outline>
    <contour>
      <point x="675.0" y="0.0" type="line" smooth="yes"/>
      <point x="675.0" y="88.0" type="line"/>
      <point x="631.0" y="83.0"/>
      <point x="518.0" y="58.0"/>
      <point x="445.0" y="58.0" type="curve"/>
      <point x="357.0" y="58.0" type="line"/>
      <point x="315.0" y="58.0"/>
      <point x="262.0" y="66.0"/>
      <point x="216.0" y="73.0" type="curve" smooth="yes"/>
      <point x="179.0" y="79.0"/>
      <point x="145" y="66"/>
      <point x="125" y="68" type="curve"/>
      <point x="125.0" y="0.0" type="line" smooth="yes"/>
    </contour>
    <contour>
      <point x="363" y="672" type="curve" smooth="yes"/>
      <point x="468" y="672"/>
      <point x="561" y="590"/>
      <point x="561" y="478" type="curve" smooth="yes"/>
      <point x="561" y="354"/>
      <point x="469" y="296"/>
      <point x="358" y="239" type="curve" smooth="yes"/>
      <point x="251" y="183"/>
      <point x="125" y="129"/>
      <point x="125" y="68" type="curve"/>
      <point x="258" y="25" type="line"/>
      <point x="179" y="95"/>
      <point x="265" y="149"/>
      <point x="370" y="198" type="curve" smooth="yes"/>
      <point x="517" y="268"/>
      <point x="655" y="320"/>
      <point x="655" y="504" type="curve" smooth="yes"/>
      <point x="655" y="610"/>
      <point x="561" y="712"/>
      <point x="415" y="712" type="curve" smooth="yes"/>
      <point x="293" y="712"/>
      <point x="127" y="634"/>
      <point x="127" y="569" type="curve" smooth="yes"/>
      <point x="127" y="545"/>
      <point x="141" y="522"/>
      <point x="173" y="522" type="curve" smooth="yes"/>
      <point x="206" y="522"/>
      <point x="255" y="542"/>
      <point x="256" y="563" type="curve" smooth="yes"/>
      <point x="255" y="596"/>
      <point x="220" y="601"/>
      <point x="246" y="626" type="curve" smooth="yes"/>
      <point x="270" y="651"/>
      <point x="315" y="672"/>
    </contour>
  </outline>
</glyph>
<glyph name="three" format="1">
  <advance width="800"/>
  <unicode hex="0033"/>
  <outline>
    <contour>
      <point x="428" y="711" type="curve" smooth="yes"/>
      <point x="294" y="711"/>
      <point x="142" y="653"/>
      <point x="142" y="573" type="curve" smooth="yes"/>
      <point x="142" y="549"/>
      <point x="156" y="526"/>
      <point x="188" y="526" type="curve" smooth="yes"/>
      <point x="221" y="526"/>
      <point x="271" y="546"/>
      <point x="271" y="567" type="curve" smooth="yes"/>
      <point x="271" y="600"/>
      <point x="220" y="606"/>
      <point x="246" y="631" type="curve" smooth="yes"/>
      <point x="270" y="656"/>
      <point x="328" y="679"/>
      <point x="376" y="679" type="curve" smooth="yes"/>
      <point x="463" y="679"/>
      <point x="546" y="623"/>
      <point x="546" y="522" type="curve" smooth="yes"/>
      <point x="546" y="429"/>
      <point x="439" y="391"/>
      <point x="331" y="394" type="curve"/>
      <point x="331" y="357" type="line"/>
      <point x="467" y="359"/>
      <point x="640" y="429"/>
      <point x="640" y="553" type="curve" smooth="yes"/>
      <point x="640" y="639"/>
      <point x="569" y="711"/>
    </contour>
    <contour>
      <point x="413" y="27" type="curve" smooth="yes"/>
      <point x="329" y="27"/>
      <point x="267" y="65"/>
      <point x="243" y="96" type="curve" smooth="yes"/>
      <point x="222" y="123"/>
      <point x="248" y="126"/>
      <point x="248" y="161" type="curve" smooth="yes"/>
      <point x="248" y="190"/>
      <point x="231" y="208"/>
      <point x="190" y="208" type="curve" smooth="yes"/>
      <point x="148" y="208"/>
      <point x="122" y="189"/>
      <point x="122" y="161" type="curve" smooth="yes"/>
      <point x="122" y="64"/>
      <point x="221" y="-12"/>
      <point x="370" y="-12" type="curve" smooth="yes"/>
      <point x="497" y="-12"/>
      <point x="678" y="69"/>
      <point x="678" y="223" type="curve" smooth="yes"/>
      <point x="678" y="380"/>
      <point x="482" y="382"/>
      <point x="331" y="384" type="curve"/>
      <point x="331" y="348" type="line"/>
      <point x="470" y="355"/>
      <point x="584" y="310"/>
      <point x="584" y="189" type="curve" smooth="yes"/>
      <point x="584" y="103"/>
      <point x="513" y="27"/>
    </contour>
  </outline>
</glyph>
<glyph name="five" format="1">
  <advance width="800"/>
  <unicode hex="0035"/>
  <outline>
    <contour>
      <point x="190" y="327" type="line"/>
      <point x="276" y="353" type="line" smooth="yes"/>
      <point x="347" y="660" type="line" smooth="yes"/>
      <point x="267" y="660" type="line" smooth="yes"/>
    </contour>
    <contour>
      <point x="312" y="595" type="curve"/>
      <point x="301" y="549" type="line"/>
      <point x="346" y="542"/>
      <point x="387" y="540"/>
      <point x="425" y="540" type="curve" smooth="yes"/>
      <point x="571" y="540"/>
      <point x="657" y="584"/>
      <point x="657" y="635" type="curve" smooth="yes"/>
      <point x="657" y="655"/>
      <point x="644" y="672"/>
      <point x="612" y="672" type="curve" smooth="yes"/>
      <point x="590" y="672"/>
      <point x="549" y="664"/>
      <point x="549" y="641" type="curve" smooth="yes"/>
      <point x="549" y="618"/>
      <point x="577" y="611"/>
      <point x="551" y="593" type="curve" smooth="yes"/>
      <point x="533" y="581"/>
      <point x="493" y="576"/>
      <point x="450" y="576" type="curve" smooth="yes"/>
      <point x="396" y="576"/>
      <point x="338" y="584"/>
    </contour>
    <contour>
      <point x="584" y="179" type="curve" smooth="yes"/>
      <point x="584" y="69"/>
      <point x="498" y="29"/>
      <point x="411" y="29" type="curve" smooth="yes"/>
      <point x="320" y="29"/>
      <point x="228" y="72"/>
      <point x="228" y="123" type="curve" smooth="yes"/>
      <point x="228" y="144"/>
      <point x="242" y="152"/>
      <point x="242" y="171" type="curve" smooth="yes"/>
      <point x="242" y="197"/>
      <point x="221" y="209"/>
      <point x="197" y="209" type="curve" smooth="yes"/>
      <point x="164" y="209"/>
      <point x="123" y="185"/>
      <point x="123" y="141" type="curve" smooth="yes"/>
      <point x="123" y="41"/>
      <point x="238" y="-12"/>
      <point x="363" y="-12" type="curve" smooth="yes"/>
      <point x="513" y="-12"/>
      <point x="678" y="63"/>
      <point x="678" y="213" type="curve" smooth="yes"/>
      <point x="678" y="385"/>
      <point x="472" y="419"/>
      <point x="340" y="393" type="curve" smooth="yes"/>
      <point x="294" y="384"/>
      <point x="224" y="353"/>
      <point x="190" y="327" type="curve"/>
      <point x="223" y="310" type="line"/>
      <point x="245" y="326"/>
      <point x="287" y="338"/>
      <point x="337" y="349" type="curve" smooth="yes"/>
      <point x="472" y="379"/>
      <point x="584" y="300"/>
    </contour>
  </outline>
</glyph>
<glyph name="seven" format="1">
  <advance width="800"/>
  <unicode hex="0037"/>
  <outline>
    <contour>
      <point x="489" y="18" type="line"/>
      <point x="437" y="24"/>
      <point x="420" y="45"/>
      <point x="421" y="76" type="curve" smooth="yes"/>
      <point x="432" y="326"/>
      <point x="567" y="532"/>
      <point x="683" y="622" type="curve"/>
      <point x="659" y="636"/>
      <point x="648" y="649"/>
      <point x="628" y="672" type="curve"/>
      <point x="571" y="652"/>
      <point x="425" y="602"/>
      <point x="304" y="602" type="curve" smooth="yes"/>
      <point x="245" y="602"/>
      <point x="214" y="613"/>
      <point x="214" y="632" type="curve" smooth="yes"/>
      <point x="214" y="663"/>
      <point x="182" y="672"/>
      <point x="154" y="672" type="curve" smooth="yes"/>
      <point x="133" y="672"/>
      <point x="117" y="660"/>
      <point x="117" y="636" type="curve" smooth="yes"/>
      <point x="117" y="605"/>
      <point x="142" y="566"/>
      <point x="251" y="566" type="curve" smooth="yes"/>
      <point x="372" y="566"/>
      <point x="538" y="602"/>
      <point x="599" y="625" type="curve"/>
      <point x="503" y="543"/>
      <point x="355" y="342"/>
      <point x="321" y="75" type="curve" smooth="yes"/>
      <point x="317" y="42"/>
      <point x="298" y="22"/>
      <point x="247" y="18" type="curve"/>
      <point x="247" y="0" type="line" smooth="yes"/>
      <point x="489" y="0" type="line" smooth="yes"/>
    </contour>
  </outline>
</glyph>
<glyph name="colon" format="1">
  <advance width="800"/>
  <unicode hex="003A"/>
  <outline>
    <contour>
      <point x="475" y="437" type="curve" smooth="yes"/>
      <point x="475" y="396"/>
      <point x="441" y="362"/>
      <point x="400" y="362" type="curve" smooth="yes"/>
      <point x="359" y="362"/>
      <point x="325" y="396"/>
      <point x="325" y="437" type="curve" smooth="yes"/>
      <point x="325" y="478"/>
      <point x="359" y="512"/>
      <point x="400" y="512" type="curve" smooth="yes"/>
      <point x="441" y="512"/>
      <point x="475" y="478"/>
    </contour>
    <contour>
      <point x="475" y="64" type="curve" smooth="yes"/>
      <point x="475" y="23"/>
      <point x="441" y="-11"/>
      <point x="400" y="-11" type="curve" smooth="yes"/>
      <point x="359" y="-11"/>
      <point x="325" y="23"/>
      <point x="325" y="64" type="curve" smooth="yes"/>
      <point x="325" y="105"/>
      <point x="359" y="139"/>
      <point x="400" y="139" type="curve" smooth="yes"/>
      <point x="441" y="139"/>
      <point x="475" y="105"/>
    </contour>
  </outline>
</glyph>
<glyph name="less" format="1">
  <advance width="800"/>
  <unicode hex="003C"/>
  <outline>
    <contour>
      <point x="692" y="615" type="curve" smooth="yes"/>
      <point x="166" y="347" type="line" smooth="yes"/>
      <point x="166" y="269" type="line" smooth="yes"/>
      <point x="692" y="547" type="line" smooth="yes"/>
      <point x="732" y="568"/>
      <point x="743" y="556"/>
      <point x="749" y="511" type="curve"/>
      <point x="767" y="511" type="line" smooth="yes"/>
      <point x="767" y="705" type="line" smooth="yes"/>
      <point x="749" y="705" type="line"/>
      <point x="743" y="666"/>
      <point x="730" y="634"/>
    </contour>
    <contour>
      <point x="692" y="69" type="curve" smooth="yes"/>
      <point x="166" y="347" type="line" smooth="yes"/>
      <point x="166" y="269" type="line" smooth="yes"/>
      <point x="692" y="1" type="line" smooth="yes"/>
      <point x="730" y="-18"/>
      <point x="743" y="-50"/>
      <point x="749" y="-89" type="curve"/>
      <point x="767" y="-89" type="line" smooth="yes"/>
      <point x="767" y="105" type="line" smooth="yes"/>
      <point x="749" y="105" type="line"/>
      <point x="743" y="60"/>
      <point x="732" y="48"/>
    </contour>
  </outline>
</glyph>
<glyph name="equal" format="1">
  <advance width="800"/>
  <unicode hex="003D"/>
  <outline>
    <contour>
      <point x="647" y="319" type="line"/>
      <point x="153" y="319" type="line"/>
      <point x="153" y="391" type="line"/>
      <point x="647" y="391" type="line"/>
    </contour>
    <contour>
      <point x="647" y="119" type="line"/>
      <point x="153" y="119" type="line"/>
      <point x="153" y="191" type="line"/>
      <point x="647" y="191" type="line"/>
    </contour>
  </outline>
</glyph>
<glyph name="greater" format="1">
  <advance width="800"/>
  <unicode hex="003E"/>
  <outline>
    <contour>
      <point x="108" y="49" type="line" smooth="yes"/>
      <point x="108" y="1" type="line" smooth="yes"/>
      <point x="634" y="264" type="line" smooth="yes"/>
      <point x="634" y="352" type="line" smooth="yes"/>
      <point x="108" y="615" type="line" smooth="yes"/>
      <point x="108" y="567" type="line" smooth="yes"/>
      <point x="546" y="308" type="line"/>
    </contour>
  </outline>
</glyph>
<glyph name="at" format="1">
  <advance width="800"/>
  <unicode hex="0040"/>
  <outline>
    <contour>
      <point x="438" y="199" type="line" smooth="yes"/>
      <point x="404" y="78"/>
      <point x="766" y="93"/>
      <point x="766" y="404" type="curve" smooth="yes"/>
      <point x="766" y="585"/>
      <point x="617" y="672"/>
      <point x="453" y="672" type="curve" smooth="yes"/>
      <point x="254" y="672"/>
      <point x="34" y="545"/>
      <point x="34" y="305" type="curve" smooth="yes"/>
      <point x="34" y="57"/>
      <point x="231" y="-43"/>
      <point x="414" y="-43" type="curve" smooth="yes"/>
      <point x="518" y="-43"/>
      <point x="618" y="-11"/>
      <point x="675" y="45" type="curve" smooth="yes"/>
      <point x="726" y="96"/>
      <point x="651" y="107"/>
      <point x="622" y="70" type="curve" smooth="yes"/>
      <point x="581" y="17"/>
      <point x="513" y="-10"/>
      <point x="439" y="-10" type="curve" smooth="yes"/>
      <point x="290" y="-10"/>
      <point x="120" y="102"/>
      <point x="120" y="328" type="curve" smooth="yes"/>
      <point x="120" y="528"/>
      <point x="276" y="633"/>
      <point x="424" y="633" type="curve" smooth="yes"/>
      <point x="558" y="633"/>
      <point x="686" y="547"/>
      <point x="686" y="371" type="curve" smooth="yes"/>
      <point x="686" y="136"/>
      <point x="492" y="125"/>
      <point x="516" y="217" type="curve" smooth="yes"/>
      <point x="586" y="487" type="line" smooth="yes"/>
      <point x="591" y="506"/>
      <point x="515" y="473"/>
      <point x="511" y="459" type="curve" smooth="yes"/>
    </contour>
    <contour>
      <point x="533" y="418" type="curve"/>
      <point x="518" y="479"/>
      <point x="477" y="506"/>
      <point x="430" y="506" type="curve" smooth="yes"/>
      <point x="336" y="506"/>
      <point x="218" y="402"/>
      <point x="218" y="251" type="curve" smooth="yes"/>
      <point x="218" y="87"/>
      <point x="392" y="99"/>
      <point x="478" y="221" type="curve" smooth="yes"/>
      <point x="502" y="255"/>
      <point x="471" y="263"/>
      <point x="460" y="245" type="curve" smooth="yes"/>
      <point x="441" y="212"/>
      <point x="391" y="173"/>
      <point x="352" y="173" type="curve" smooth="yes"/>
      <point x="323" y="173"/>
      <point x="300" y="195"/>
      <point x="300" y="258" type="curve" smooth="yes"/>
      <point x="300" y="260"/>
      <point x="300" y="261"/>
      <point x="300" y="263" type="curve" smooth="yes"/>
      <point x="303" y="399"/>
      <point x="376" y="475"/>
      <point x="435" y="475" type="curve" smooth="yes"/>
      <point x="466" y="475"/>
      <point x="493" y="454"/>
      <point x="503" y="410" type="curve" smooth="yes"/>
      <point x="505" y="401"/>
      <point x="533" y="418"/>
    </contour>
  </outline>
</glyph>
<glyph name="A" format="1">
  <advance width="800"/>
  <unicode hex="0041"/>
  <outline>
    <contour>
      <point x="524" y="240" type="line"/>
      <point x="524" y="274" type="line"/>
      <point x="205" y="274" type="line"/>
      <point x="205" y="240" type="line"/>
    </contour>
    <contour>
      <point x="759" y="18" type="line"/>
      <point x="709" y="28"/>
      <point x="692" y="45"/>
      <point x="679" y="75" type="curve" smooth="yes"/>
      <point x="414" y="700" type="line"/>
      <point x="368" y="590" type="line"/>
      <point x="586" y="75" type="line" smooth="yes"/>
      <point x="596" y="52"/>
      <point x="569" y="26"/>
      <point x="527" y="18" type="curve"/>
      <point x="527" y="0" type="line" smooth="yes"/>
      <point x="759" y="0" type="line" smooth="yes"/>
    </contour>
    <contour>
      <point x="209" y="18" type="line"/>
      <point x="163" y="27"/>
      <point x="131" y="34"/>
      <point x="149" y="75" type="curve" smooth="yes"/>
      <point x="368" y="590" type="line"/>
      <point x="414" y="700" type="line"/>
      <point x="381" y="700" type="line"/>
      <point x="351" y="629" type="line"/>
      <point x="110" y="63" type="line" smooth="yes"/>
      <point x="101" y="39"/>
      <point x="78" y="25"/>
      <point x="41" y="18" type="curve"/>
      <point x="41" y="0" type="line"/>
      <point x="209" y="0" type="line"/>
    </contour>
  </outline>
</glyph>
<glyph name="B" format="1">
  <advance width="800"/>
  <unicode hex="0042"/>
  <outline>
    <contour>
      <point x="213" y="700" type="line" smooth="yes"/>
      <point x="213" y="663" type="line" smooth="yes"/>
      <point x="400" y="663" type="line" smooth="yes"/>
      <point x="479" y="663"/>
      <point x="550" y="604"/>
      <point x="550" y="522" type="curve" smooth="yes"/>
      <point x="550" y="435"/>
      <point x="473" y="386"/>
      <point x="395" y="386" type="curve" smooth="yes"/>
      <point x="213" y="386" type="line" smooth="yes"/>
      <point x="213" y="349" type="line" smooth="yes"/>
      <point x="353" y="349" type="line" smooth="yes"/>
      <point x="499" y="349"/>
      <point x="650" y="435"/>
      <point x="650" y="539" type="curve" smooth="yes"/>
      <point x="650" y="638"/>
      <point x="569" y="700"/>
      <point x="458" y="700" type="curve" smooth="yes"/>
    </contour>
    <contour>
      <point x="405" y="386" type="curve" smooth="yes"/>
      <point x="213" y="386" type="line" smooth="yes"/>
      <point x="213" y="349" type="line" smooth="yes"/>
      <point x="405" y="349" type="line" smooth="yes"/>
      <point x="534" y="349"/>
      <point x="628" y="320"/>
      <point x="628" y="181" type="curve" smooth="yes"/>
      <point x="628" y="87"/>
      <point x="470" y="33"/>
      <point x="395" y="33" type="curve"/>
      <point x="213" y="33" type="line" smooth="yes"/>
      <point x="213" y="0" type="line"/>
      <point x="395" y="0" type="line" smooth="yes"/>
      <point x="520" y="0"/>
      <point x="727" y="67"/>
      <point x="727" y="215" type="curve" smooth="yes"/>
      <point x="727" y="351"/>
      <point x="569" y="386"/>
    </contour>
    <contour>
      <point x="213" y="0" type="line" smooth="yes"/>
      <point x="125" y="0" type="line" smooth="yes"/>
      <point x="125" y="700" type="line" smooth="yes"/>
      <point x="213" y="700" type="line" smooth="yes"/>
    </contour>
    <contour>
      <point x="56" y="18" type="line"/>
      <point x="99" y="26"/>
      <point x="125" y="47"/>
      <point x="125" y="76" type="curve"/>
      <point x="125" y="0" type="line" smooth="yes"/>
      <point x="56" y="0" type="line" smooth="yes"/>
    </contour>
    <contour>
      <point x="56" y="682" type="line"/>
      <point x="99" y="674"/>
      <point x="125" y="653"/>
      <point x="125" y="624" type="curve"/>
      <point x="125" y="700" type="line" smooth="yes"/>
      <point x="56" y="700" type="line" smooth="yes"/>
    </contour>
  </outline>
</glyph>
<glyph name="C" format="1">
  <advance width="799.6111877809942"/>
  <unicode hex="0043"/>
  <outline>
    <contour>
      <point x="395" y="672" type="curve" smooth="yes"/>
      <point x="216" y="672"/>
      <point x="39" y="560"/>
      <point x="39" y="320" type="curve" smooth="yes"/>
      <point x="39" y="90"/>
      <point x="229" y="-12"/>
      <point x="414" y="-12" type="curve" smooth="yes"/>
      <point x="559" y="-12"/>
      <point x="648" y="45"/>
      <point x="728" y="192" type="curve" smooth="yes"/>
      <point x="749" y="230"/>
      <point x="651" y="223"/>
      <point x="639" y="186" type="curve" smooth="yes"/>
      <point x="600" y="65"/>
      <point x="485" y="34"/>
      <point x="425" y="34" type="curve" smooth="yes"/>
      <point x="283" y="34"/>
      <point x="152" y="125"/>
      <point x="152" y="341" type="curve" smooth="yes"/>
      <point x="152" y="506"/>
      <point x="268" y="627"/>
      <point x="387" y="627" type="curve" smooth="yes"/>
      <point x="495" y="627"/>
      <point x="618" y="574"/>
      <point x="662" y="449" type="curve"/>
      <point x="691" y="449" type="line"/>
      <point x="691" y="648" type="line"/>
      <point x="665" y="648" type="line"/>
      <point x="622" y="600" type="line"/>
      <point x="546" y="649"/>
      <point x="479" y="672"/>
    </contour>
  </outline>
</glyph>
<glyph name="D" format="1">
  <advance width="780"/>
  <unicode hex="0044"/>
  <outline>
    <contour>
      <point x="203" y="0" type="line"/>
      <point x="115" y="0" type="line"/>
      <point x="115" y="700" type="line"/>
      <point x="203" y="700" type="line"/>
    </contour>
    <contour>
      <point x="46" y="18" type="line"/>
      <point x="89" y="26"/>
      <point x="115" y="47"/>
      <point x="115" y="76" type="curve"/>
      <point x="115" y="0" type="line"/>
      <point x="46" y="0" type="line"/>
    </contour>
    <contour>
      <point x="46" y="682" type="line"/>
      <point x="89" y="674"/>
      <point x="115" y="653"/>
      <point x="115" y="624" type="curve"/>
      <point x="115" y="700" type="line"/>
      <point x="46" y="700" type="line"/>
    </contour>
    <contour>
      <point x="420" y="700" type="curve" smooth="yes"/>
      <point x="342" y="700"/>
      <point x="203" y="700"/>
      <point x="203" y="700" type="curve"/>
      <point x="203" y="661" type="line"/>
      <point x="344" y="663" type="line" smooth="yes"/>
      <point x="507" y="663"/>
      <point x="635" y="515"/>
      <point x="635" y="334" type="curve" smooth="yes"/>
      <point x="635" y="218"/>
      <point x="552" y="33"/>
      <point x="396" y="33" type="curve" smooth="yes"/>
      <point x="263" y="33" type="line" smooth="yes"/>
      <point x="236" y="33"/>
      <point x="203" y="61"/>
      <point x="203" y="92" type="curve"/>
      <point x="203" y="0" type="line"/>
      <point x="203" y="0"/>
      <point x="301" y="0"/>
      <point x="358" y="0" type="curve" smooth="yes"/>
      <point x="550" y="0"/>
      <point x="735" y="140"/>
      <point x="735" y="366" type="curve" smooth="yes"/>
      <point x="735" y="544"/>
      <point x="594" y="700"/>
    </contour>
  </outline>
</glyph>
<glyph name="E" format="1">
  <advance width="800"/>
  <unicode hex="0045"/>
  <outline>
    <contour>
      <point x="233" y="0" type="line" smooth="yes"/>
      <point x="145" y="0" type="line" smooth="yes"/>
      <point x="145" y="660" type="line" smooth="yes"/>
      <point x="233" y="660" type="line" smooth="yes"/>
    </contour>
    <contour>
      <point x="76" y="18" type="line"/>
      <point x="119" y="26"/>
      <point x="145" y="47"/>
      <point x="145" y="76" type="curve"/>
      <point x="145" y="0" type="line" smooth="yes"/>
      <point x="76" y="0" type="line" smooth="yes"/>
    </contour>
    <contour>
      <point x="76" y="642" type="line"/>
      <point x="119" y="634"/>
      <point x="145" y="613"/>
      <point x="145" y="584" type="curve"/>
      <point x="145" y="660" type="line" smooth="yes"/>
      <point x="76" y="660" type="line" smooth="yes"/>
    </contour>
    <contour>
      <point x="568" y="354" type="line" smooth="yes"/>
      <point x="233" y="354" type="line" smooth="yes"/>
      <point x="233" y="317" type="line" smooth="yes"/>
      <point x="568" y="317" type="line" smooth="yes"/>
    </contour>
    <contour>
      <point x="544" y="423" type="line"/>
      <point x="536" y="380"/>
      <point x="515" y="354"/>
      <point x="486" y="354" type="curve"/>
      <point x="568" y="354" type="line" smooth="yes"/>
      <point x="568" y="423" type="line" smooth="yes"/>
    </contour>
    <contour>
      <point x="544" y="248" type="line"/>
      <point x="536" y="291"/>
      <point x="515" y="317"/>
      <point x="486" y="317" type="curve"/>
      <point x="568" y="317" type="line" smooth="yes"/>
      <point x="568" y="248" type="line" smooth="yes"/>
    </contour>
    <contour>
      <point x="483" y="37" type="curve" smooth="yes"/>
      <point x="233" y="37" type="line" smooth="yes"/>
      <point x="233" y="0" type="line" smooth="yes"/>
      <point x="672" y="0" type="line"/>
      <point x="724" y="184" type="line" smooth="yes"/>
      <point x="688" y="184" type="line"/>
      <point x="659" y="73"/>
      <point x="576" y="37"/>
    </contour>
    <contour>
      <point x="467" y="623" type="line" smooth="yes"/>
      <point x="560" y="623"/>
      <point x="628" y="611"/>
      <point x="658" y="516" type="curve"/>
      <point x="694" y="516" type="line" smooth="yes"/>
      <point x="656" y="660" type="line" smooth="yes"/>
      <point x="233" y="660" type="line" smooth="yes"/>
      <point x="233" y="623" type="line" smooth="yes"/>
    </contour>
  </outline>
</glyph>
<glyph name="F" format="1">
  <advance width="800"/>
  <unicode hex="0046"/>
  <outline>
    <contour>
      <point x="248" y="0" type="line" smooth="yes"/>
      <point x="160" y="0" type="line" smooth="yes"/>
      <point x="160" y="660" type="line" smooth="yes"/>
      <point x="248" y="660" type="line" smooth="yes"/>
    </contour>
    <contour>
      <point x="91" y="18" type="line"/>
      <point x="134" y="26"/>
      <point x="160" y="47"/>
      <point x="160" y="76" type="curve"/>
      <point x="160" y="0" type="line" smooth="yes"/>
      <point x="91" y="0" type="line" smooth="yes"/>
    </contour>
    <contour>
      <point x="91" y="642" type="line"/>
      <point x="134" y="634"/>
      <point x="160" y="613"/>
      <point x="160" y="584" type="curve"/>
      <point x="160" y="660" type="line" smooth="yes"/>
      <point x="91" y="660" type="line" smooth="yes"/>
    </contour>
    <contour>
      <point x="583" y="354" type="line" smooth="yes"/>
      <point x="248" y="354" type="line" smooth="yes"/>
      <point x="248" y="317" type="line" smooth="yes"/>
      <point x="583" y="317" type="line" smooth="yes"/>
    </contour>
    <contour>
      <point x="559" y="423" type="line"/>
      <point x="551" y="380"/>
      <point x="530" y="354"/>
      <point x="501" y="354" type="curve"/>
      <point x="583" y="354" type="line" smooth="yes"/>
      <point x="583" y="423" type="line" smooth="yes"/>
    </contour>
    <contour>
      <point x="559" y="248" type="line"/>
      <point x="551" y="291"/>
      <point x="530" y="317"/>
      <point x="501" y="317" type="curve"/>
      <point x="583" y="317" type="line" smooth="yes"/>
      <point x="583" y="248" type="line" smooth="yes"/>
    </contour>
    <contour>
      <point x="482" y="623" type="line" smooth="yes"/>
      <point x="575" y="623"/>
      <point x="643" y="611"/>
      <point x="673" y="516" type="curve"/>
      <point x="709" y="516" type="line" smooth="yes"/>
      <point x="671" y="660" type="line" smooth="yes"/>
      <point x="248" y="660" type="line" smooth="yes"/>
      <point x="248" y="623" type="line" smooth="yes"/>
    </contour>
    <contour>
      <point x="317" y="18" type="line"/>
      <point x="274" y="26"/>
      <point x="248" y="47"/>
      <point x="248" y="76" type="curve"/>
      <point x="248" y="0" type="line" smooth="yes"/>
      <point x="317" y="0" type="line" smooth="yes"/>
    </contour>
  </outline>
</glyph>
<glyph name="G" format="1">
  <advance width="780"/>
  <unicode hex="0047"/>
  <outline>
    <contour>
      <point x="383" y="673" type="curve" smooth="yes"/>
      <point x="487" y="673"/>
      <point x="608" y="610"/>
      <point x="639" y="460" type="curve"/>
      <point x="668" y="460" type="line"/>
      <point x="668" y="690" type="line"/>
      <point x="642" y="690" type="line"/>
      <point x="615" y="657" type="line"/>
      <point x="565" y="701"/>
      <point x="516" y="710"/>
      <point x="450" y="710" type="curve" smooth="yes"/>
      <point x="247" y="710"/>
      <point x="68" y="599"/>
      <point x="68" y="332" type="curve" smooth="yes"/>
      <point x="68" y="139"/>
      <point x="184" y="-12"/>
      <point x="386" y="-12" type="curve" smooth="yes"/>
      <point x="490" y="-12"/>
      <point x="602" y="14"/>
      <point x="661" y="67" type="curve" smooth="yes"/>
      <point x="666" y="71"/>
      <point x="668" y="76"/>
      <point x="668" y="82" type="curve" smooth="yes"/>
      <point x="668" y="282" type="line"/>
      <point x="580" y="282" type="line"/>
      <point x="580" y="89" type="line" smooth="yes"/>
      <point x="580" y="84"/>
      <point x="578" y="79"/>
      <point x="574" y="75" type="curve" smooth="yes"/>
      <point x="546" y="47"/>
      <point x="510" y="25"/>
      <point x="467" y="25" type="curve" smooth="yes"/>
      <point x="275" y="25"/>
      <point x="162" y="184"/>
      <point x="162" y="366" type="curve" smooth="yes"/>
      <point x="162" y="512"/>
      <point x="239" y="673"/>
    </contour>
    <contour>
      <point x="511" y="264" type="line"/>
      <point x="554" y="256"/>
      <point x="580" y="235"/>
      <point x="580" y="206" type="curve"/>
      <point x="580" y="282" type="line"/>
      <point x="511" y="282" type="line"/>
    </contour>
    <contour>
      <point x="737" y="264" type="line"/>
      <point x="694" y="256"/>
      <point x="668" y="235"/>
      <point x="668" y="206" type="curve"/>
      <point x="668" y="282" type="line"/>
      <point x="737" y="282" type="line"/>
    </contour>
  </outline>
</glyph>
<glyph name="H" format="1">
  <advance width="780"/>
  <unicode hex="0048"/>
  <outline>
    <contour>
      <point x="184" y="0" type="line"/>
      <point x="96" y="0" type="line"/>
      <point x="96" y="700" type="line"/>
      <point x="184" y="700" type="line"/>
    </contour>
    <contour>
      <point x="27" y="18" type="line"/>
      <point x="70" y="26"/>
      <point x="96" y="47"/>
      <point x="96" y="76" type="curve"/>
      <point x="96" y="0" type="line"/>
      <point x="27" y="0" type="line"/>
    </contour>
    <contour>
      <point x="27" y="682" type="line"/>
      <point x="70" y="674"/>
      <point x="96" y="653"/>
      <point x="96" y="624" type="curve"/>
      <point x="96" y="700" type="line"/>
      <point x="27" y="700" type="line"/>
    </contour>
    <contour>
      <point x="253" y="18" type="line"/>
      <point x="210" y="26"/>
      <point x="184" y="47"/>
      <point x="184" y="76" type="curve"/>
      <point x="184" y="0" type="line"/>
      <point x="253" y="0" type="line"/>
    </contour>
    <contour>
      <point x="253" y="682" type="line"/>
      <point x="210" y="674"/>
      <point x="184" y="653"/>
      <point x="184" y="624" type="curve"/>
      <point x="184" y="700" type="line"/>
      <point x="253" y="700" type="line"/>
    </contour>
    <contour>
      <point x="685" y="0" type="line"/>
      <point x="597" y="0" type="line"/>
      <point x="597" y="700" type="line"/>
      <point x="685" y="700" type="line"/>
    </contour>
    <contour>
      <point x="528" y="18" type="line"/>
      <point x="571" y="26"/>
      <point x="597" y="47"/>
      <point x="597" y="76" type="curve"/>
      <point x="597" y="0" type="line"/>
      <point x="528" y="0" type="line"/>
    </contour>
    <contour>
      <point x="528" y="682" type="line"/>
      <point x="571" y="674"/>
      <point x="597" y="653"/>
      <point x="597" y="624" type="curve"/>
      <point x="597" y="700" type="line"/>
      <point x="528" y="700" type="line"/>
    </contour>
    <contour>
      <point x="754" y="18" type="line"/>
      <point x="711" y="26"/>
      <point x="685" y="47"/>
      <point x="685" y="76" type="curve"/>
      <point x="685" y="0" type="line"/>
      <point x="754" y="0" type="line"/>
    </contour>
    <contour>
      <point x="754" y="682" type="line"/>
      <point x="711" y="674"/>
      <point x="685" y="653"/>
      <point x="685" y="624" type="curve"/>
      <point x="685" y="700" type="line"/>
      <point x="754" y="700" type="line"/>
    </contour>
    <contour>
      <point x="610" y="355" type="line"/>
      <point x="154" y="355" type="line"/>
      <point x="154" y="389" type="line"/>
      <point x="610" y="389" type="line"/>
    </contour>
  </outline>
</glyph>
<glyph name="I" format="1">
  <advance width="800"/>
  <unicode hex="0049"/>
  <outline>
    <contour>
      <point x="675" y="60" type="line"/>
      <point x="631" y="55"/>
      <point x="518" y="30"/>
      <point x="445" y="30" type="curve" smooth="yes"/>
      <point x="357" y="30" type="line" smooth="yes"/>
      <point x="284" y="30"/>
      <point x="171" y="55"/>
      <point x="127" y="60" type="curve"/>
      <point x="127" y="0" type="line" smooth="yes"/>
      <point x="675" y="0" type="line" smooth="yes"/>
    </contour>
    <contour>
      <point x="675" y="600" type="curve"/>
      <point x="675" y="660" type="line" smooth="yes"/>
      <point x="127" y="660" type="line" smooth="yes"/>
      <point x="127" y="600" type="line"/>
      <point x="171" y="605"/>
      <point x="284" y="630"/>
      <point x="357" y="630" type="curve" smooth="yes"/>
      <point x="445" y="630" type="line" smooth="yes"/>
      <point x="518" y="630"/>
      <point x="631" y="605"/>
    </contour>
    <contour>
      <point x="356" y="660" type="line" smooth="yes"/>
      <point x="357" y="0" type="line" smooth="yes"/>
      <point x="445" y="0" type="line" smooth="yes"/>
      <point x="445" y="660" type="line" smooth="yes"/>
    </contour>
  </outline>
</glyph>
<glyph name="J" format="1">
  <advance width="800"/>
  <unicode hex="004A"/>
  <outline>
    <contour>
      <point x="450" y="642" type="line"/>
      <point x="493" y="634"/>
      <point x="519" y="613"/>
      <point x="519" y="584" type="curve"/>
      <point x="519" y="660" type="line" smooth="yes"/>
      <point x="450" y="660" type="line" smooth="yes"/>
    </contour>
    <contour>
      <point x="676" y="642" type="line"/>
      <point x="633" y="634"/>
      <point x="607" y="613"/>
      <point x="607" y="584" type="curve"/>
      <point x="607" y="660" type="line" smooth="yes"/>
      <point x="676" y="660" type="line" smooth="yes"/>
    </contour>
    <contour>
      <point x="607" y="220" type="curve" smooth="yes"/>
      <point x="607" y="660" type="line"/>
      <point x="519" y="660" type="line"/>
      <point x="519" y="200" type="line" smooth="yes"/>
      <point x="519" y="78"/>
      <point x="447" y="31"/>
      <point x="374" y="31" type="curve" smooth="yes"/>
      <point x="303" y="31"/>
      <point x="230" y="76"/>
      <point x="230" y="145" type="curve" smooth="yes"/>
      <point x="230" y="166"/>
      <point x="244" y="174"/>
      <point x="244" y="193" type="curve" smooth="yes"/>
      <point x="244" y="219"/>
      <point x="223" y="231"/>
      <point x="199" y="231" type="curve" smooth="yes"/>
      <point x="166" y="231"/>
      <point x="125" y="207"/>
      <point x="125" y="163" type="curve" smooth="yes"/>
      <point x="125" y="48"/>
      <point x="231" y="-12"/>
      <point x="344" y="-12" type="curve" smooth="yes"/>
      <point x="471" y="-12"/>
      <point x="607" y="64"/>
    </contour>
  </outline>
</glyph>
<glyph name="K" format="1">
  <advance width="800"/>
  <unicode hex="004B"/>
  <outline>
    <contour>
      <point x="222" y="0" type="line" smooth="yes"/>
      <point x="222" y="660" type="line" smooth="yes"/>
      <point x="134" y="660" type="line" smooth="yes"/>
      <point x="134" y="0" type="line"/>
    </contour>
    <contour>
      <point x="65" y="18" type="line"/>
      <point x="108" y="26"/>
      <point x="134" y="47"/>
      <point x="134" y="76" type="curve"/>
      <point x="134" y="0" type="line" smooth="yes"/>
      <point x="65" y="0" type="line" smooth="yes"/>
    </contour>
    <contour>
      <point x="65" y="642" type="line"/>
      <point x="108" y="634"/>
      <point x="134" y="613"/>
      <point x="134" y="584" type="curve"/>
      <point x="134" y="660" type="line" smooth="yes"/>
      <point x="65" y="660" type="line" smooth="yes"/>
    </contour>
    <contour>
      <point x="222" y="76" type="move"/>
      <point x="222" y="0" type="line" smooth="yes"/>
      <point x="291" y="0" type="line" smooth="yes"/>
      <point x="291" y="18" type="line"/>
      <point x="248" y="26"/>
      <point x="222" y="47"/>
      <point x="222" y="76" type="curve"/>
    </contour>
    <contour>
      <point x="215" y="260" type="line" smooth="yes"/>
      <point x="552" y="592" type="line" smooth="yes"/>
      <point x="583" y="623"/>
      <point x="625" y="636"/>
      <point x="666" y="642" type="curve"/>
      <point x="666" y="660" type="line" smooth="yes"/>
      <point x="455" y="660" type="line" smooth="yes"/>
      <point x="455" y="642" type="line"/>
      <point x="501" y="634"/>
      <point x="522" y="622"/>
      <point x="491" y="592" type="curve" smooth="yes"/>
      <point x="154" y="260" type="line" smooth="yes"/>
    </contour>
    <contour>
      <point x="269" y="335" type="line" smooth="yes"/>
      <point x="523" y="75" type="line" smooth="yes"/>
      <point x="565" y="33"/>
      <point x="540" y="17"/>
      <point x="491" y="17" type="curve"/>
      <point x="491" y="0" type="line" smooth="yes"/>
      <point x="734" y="0" type="line" smooth="yes"/>
      <point x="734" y="18" type="line"/>
      <point x="687" y="20"/>
      <point x="657" y="43"/>
      <point x="626" y="75" type="curve" smooth="yes"/>
      <point x="330" y="377" type="line" smooth="yes"/>
    </contour>
    <contour>
      <point x="291" y="642" type="line"/>
      <point x="248" y="634"/>
      <point x="222" y="613"/>
      <point x="222" y="584" type="curve"/>
      <point x="222" y="660" type="line" smooth="yes"/>
      <point x="291" y="660" type="line" smooth="yes"/>
    </contour>
  </outline>
</glyph>
<glyph name="L" format="1">
  <advance width="800"/>
  <unicode hex="004C"/>
  <outline>
    <contour>
      <point x="227" y="0" type="line" smooth="yes"/>
      <point x="139" y="0" type="line" smooth="yes"/>
      <point x="139" y="660" type="line" smooth="yes"/>
      <point x="227" y="660" type="line" smooth="yes"/>
    </contour>
    <contour>
      <point x="70" y="18" type="line"/>
      <point x="113" y="26"/>
      <point x="139" y="47"/>
      <point x="139" y="76" type="curve"/>
      <point x="139" y="0" type="line" smooth="yes"/>
      <point x="70" y="0" type="line" smooth="yes"/>
    </contour>
    <contour>
      <point x="70" y="642" type="line"/>
      <point x="113" y="634"/>
      <point x="139" y="613"/>
      <point x="139" y="584" type="curve"/>
      <point x="139" y="660" type="line" smooth="yes"/>
      <point x="70" y="660" type="line" smooth="yes"/>
    </contour>
    <contour>
      <point x="296" y="642" type="line"/>
      <point x="253" y="634"/>
      <point x="227" y="613"/>
      <point x="227" y="584" type="curve"/>
      <point x="227" y="660" type="line" smooth="yes"/>
      <point x="296" y="660" type="line" smooth="yes"/>
    </contour>
    <contour>
      <point x="747" y="210" type="line" smooth="yes"/>
      <point x="711" y="210" type="line"/>
      <point x="677" y="77"/>
      <point x="559" y="33"/>
      <point x="456" y="33" type="curve"/>
      <point x="227" y="33" type="line" smooth="yes"/>
      <point x="227" y="0" type="line" smooth="yes"/>
      <point x="685" y="0" type="line" smooth="yes"/>
    </contour>
  </outline>
</glyph>
<glyph name="M" format="1">
  <advance width="800"/>
  <unicode hex="004D"/>
  <outline>
    <contour>
      <point x="155" y="0" type="line" smooth="yes"/>
      <point x="100" y="0" type="line" smooth="yes"/>
      <point x="100" y="660" type="line" smooth="yes"/>
      <point x="155" y="660" type="line" smooth="yes"/>
    </contour>
    <contour>
      <point x="31" y="18" type="line"/>
      <point x="74" y="26"/>
      <point x="100" y="47"/>
      <point x="100" y="76" type="curve"/>
      <point x="100" y="0" type="line" smooth="yes"/>
      <point x="31" y="0" type="line" smooth="yes"/>
    </contour>
    <contour>
      <point x="31" y="642" type="curve"/>
      <point x="31" y="660" type="line" smooth="yes"/>
      <point x="100" y="660" type="line" smooth="yes"/>
      <point x="100" y="584" type="line"/>
      <point x="100" y="613"/>
      <point x="74" y="634"/>
    </contour>
    <contour>
      <point x="224" y="18" type="line"/>
      <point x="181" y="26"/>
      <point x="155" y="47"/>
      <point x="155" y="76" type="curve"/>
      <point x="155" y="0" type="line" smooth="yes"/>
      <point x="224" y="0" type="line" smooth="yes"/>
    </contour>
    <contour>
      <point x="700" y="0" type="line" smooth="yes"/>
      <point x="600" y="0" type="line" smooth="yes"/>
      <point x="600" y="660" type="line" smooth="yes"/>
      <point x="700" y="660" type="line" smooth="yes"/>
    </contour>
    <contour>
      <point x="769" y="642" type="line"/>
      <point x="726" y="634"/>
      <point x="700" y="613"/>
      <point x="700" y="584" type="curve"/>
      <point x="700" y="660" type="line" smooth="yes"/>
      <point x="769" y="660" type="line" smooth="yes"/>
    </contour>
    <contour>
      <point x="531" y="18" type="line"/>
      <point x="574" y="26"/>
      <point x="600" y="47"/>
      <point x="600" y="76" type="curve"/>
      <point x="600" y="0" type="line" smooth="yes"/>
      <point x="531" y="0" type="line" smooth="yes"/>
    </contour>
    <contour>
      <point x="769" y="18" type="line"/>
      <point x="726" y="26"/>
      <point x="700" y="47"/>
      <point x="700" y="76" type="curve"/>
      <point x="700" y="0" type="line" smooth="yes"/>
      <point x="769" y="0" type="line" smooth="yes"/>
    </contour>
    <contour>
      <point x="122" y="660" type="line" smooth="yes"/>
      <point x="218" y="660" type="line" smooth="yes"/>
      <point x="409" y="132" type="line" smooth="yes"/>
      <point x="352" y="40" type="line" smooth="yes"/>
    </contour>
    <contour>
      <point x="582" y="660" type="line" smooth="yes"/>
      <point x="635" y="660" type="line" smooth="yes"/>
      <point x="405" y="40" type="line" smooth="yes"/>
      <point x="352" y="40" type="line" smooth="yes"/>
    </contour>
  </outline>
</glyph>
<glyph name="N" format="1">
  <advance width="800"/>
  <unicode hex="004E"/>
  <outline>
    <contour>
      <point x="187" y="0" type="line" smooth="yes"/>
      <point x="139" y="0" type="line" smooth="yes"/>
      <point x="139" y="660" type="line" smooth="yes"/>
      <point x="187" y="660" type="line" smooth="yes"/>
    </contour>
    <contour>
      <point x="70" y="18" type="line"/>
      <point x="113" y="26"/>
      <point x="139" y="47"/>
      <point x="139" y="76" type="curve"/>
      <point x="139" y="0" type="line" smooth="yes"/>
      <point x="70" y="0" type="line" smooth="yes"/>
    </contour>
    <contour>
      <point x="70" y="642" type="curve"/>
      <point x="70" y="660" type="line" smooth="yes"/>
      <point x="139" y="660" type="line" smooth="yes"/>
      <point x="139" y="584" type="line"/>
      <point x="139" y="613"/>
      <point x="113" y="634"/>
    </contour>
    <contour>
      <point x="256" y="18" type="line"/>
      <point x="213" y="26"/>
      <point x="187" y="47"/>
      <point x="187" y="76" type="curve"/>
      <point x="187" y="0" type="line" smooth="yes"/>
      <point x="256" y="0" type="line" smooth="yes"/>
    </contour>
    <contour>
      <point x="661" y="0" type="line" smooth="yes"/>
      <point x="613" y="0" type="line" smooth="yes"/>
      <point x="613" y="660" type="line" smooth="yes"/>
      <point x="661" y="660" type="line" smooth="yes"/>
    </contour>
    <contour>
      <point x="544" y="642" type="line"/>
      <point x="587" y="634"/>
      <point x="613" y="613"/>
      <point x="613" y="584" type="curve"/>
      <point x="613" y="660" type="line" smooth="yes"/>
      <point x="544" y="660" type="line" smooth="yes"/>
    </contour>
    <contour>
      <point x="730" y="642" type="line"/>
      <point x="687" y="634"/>
      <point x="661" y="613"/>
      <point x="661" y="584" type="curve"/>
      <point x="661" y="660" type="line" smooth="yes"/>
      <point x="730" y="660" type="line" smooth="yes"/>
    </contour>
    <contour>
      <point x="578" y="0" type="line"/>
      <point x="117" y="660" type="line"/>
      <point x="222" y="660" type="line"/>
      <point x="649" y="45" type="line" smooth="yes"/>
      <point x="649" y="0" type="line" smooth="yes"/>
    </contour>
  </outline>
</glyph>
<glyph name="O" format="1">
  <advance width="800"/>
  <unicode hex="004F"/>
  <outline>
    <contour>
      <point x="380" y="633" type="curve" smooth="yes"/>
      <point x="516" y="633"/>
      <point x="660" y="520"/>
      <point x="660" y="305" type="curve" smooth="yes"/>
      <point x="660" y="115"/>
      <point x="544" y="23"/>
      <point x="421" y="23" type="curve" smooth="yes"/>
      <point x="285" y="23"/>
      <point x="140" y="136"/>
      <point x="140" y="351" type="curve" smooth="yes"/>
      <point x="140" y="541"/>
      <point x="257" y="633"/>
    </contour>
    <contour>
      <point x="761" y="345" type="curve" smooth="yes"/>
      <point x="761" y="565"/>
      <point x="591" y="672"/>
      <point x="416" y="672" type="curve" smooth="yes"/>
      <point x="230" y="672"/>
      <point x="39" y="551"/>
      <point x="39" y="315" type="curve" smooth="yes"/>
      <point x="39" y="95"/>
      <point x="209" y="-12"/>
      <point x="384" y="-12" type="curve" smooth="yes"/>
      <point x="570" y="-12"/>
      <point x="761" y="109"/>
    </contour>
  </outline>
</glyph>
<glyph name="P" format="1">
  <advance width="800"/>
  <unicode hex="0050"/>
  <outline>
    <contour>
      <point x="213" y="700" type="line" smooth="yes"/>
      <point x="213" y="663" type="line" smooth="yes"/>
      <point x="410" y="663" type="line" smooth="yes"/>
      <point x="496" y="663"/>
      <point x="570" y="584"/>
      <point x="570" y="502" type="curve" smooth="yes"/>
      <point x="570" y="415"/>
      <point x="494" y="346"/>
      <point x="388" y="346" type="curve" smooth="yes"/>
      <point x="213" y="346" type="line" smooth="yes"/>
      <point x="213" y="309" type="line" smooth="yes"/>
      <point x="388" y="309" type="line" smooth="yes"/>
      <point x="552" y="309"/>
      <point x="670" y="415"/>
      <point x="670" y="519" type="curve" smooth="yes"/>
      <point x="670" y="618"/>
      <point x="591" y="700"/>
      <point x="458" y="700" type="curve" smooth="yes"/>
    </contour>
    <contour>
      <point x="213" y="0" type="line" smooth="yes"/>
      <point x="125" y="0" type="line" smooth="yes"/>
      <point x="125" y="700" type="line" smooth="yes"/>
      <point x="213" y="700" type="line" smooth="yes"/>
    </contour>
    <contour>
      <point x="56" y="18" type="line"/>
      <point x="99" y="26"/>
      <point x="125" y="47"/>
      <point x="125" y="76" type="curve"/>
      <point x="125" y="0" type="line" smooth="yes"/>
      <point x="56" y="0" type="line" smooth="yes"/>
    </contour>
    <contour>
      <point x="56" y="682" type="line"/>
      <point x="99" y="674"/>
      <point x="125" y="653"/>
      <point x="125" y="624" type="curve"/>
      <point x="125" y="700" type="line" smooth="yes"/>
      <point x="56" y="700" type="line" smooth="yes"/>
    </contour>
    <contour>
      <point x="282" y="0" type="line" smooth="yes"/>
      <point x="213" y="0" type="line" smooth="yes"/>
      <point x="213" y="76" type="line"/>
      <point x="213" y="47"/>
      <point x="239" y="26"/>
      <point x="282" y="18" type="curve"/>
    </contour>
  </outline>
</glyph>
<glyph name="Q" format="1">
  <advance width="800"/>
  <unicode hex="0051"/>
  <outline>
    <contour>
      <point x="138" y="351" type="curve" smooth="yes"/>
      <point x="138" y="496"/>
      <point x="216" y="632"/>
      <point x="377" y="632" type="curve" smooth="yes"/>
      <point x="560" y="632"/>
      <point x="656" y="464"/>
      <point x="656" y="304" type="curve" smooth="yes"/>
      <point x="656" y="159"/>
      <point x="578" y="24"/>
      <point x="417" y="24" type="curve" smooth="yes"/>
      <point x="234" y="24"/>
      <point x="138" y="191"/>
    </contour>
    <contour>
      <point x="761" y="345" type="curve" smooth="yes"/>
      <point x="761" y="511"/>
      <point x="647" y="672"/>
      <point x="416" y="672" type="curve" smooth="yes"/>
      <point x="167" y="672"/>
      <point x="39" y="491"/>
      <point x="39" y="315" type="curve" smooth="yes"/>
      <point x="39" y="149"/>
      <point x="153" y="-12"/>
      <point x="384" y="-12" type="curve" smooth="yes"/>
      <point x="633" y="-12"/>
      <point x="761" y="169"/>
    </contour>
    <contour>
      <point x="549" y="-177" type="curve" smooth="yes"/>
      <point x="673" y="-177"/>
      <point x="769" y="-93"/>
      <point x="769" y="-93" type="curve"/>
      <point x="712" y="-118"/>
      <point x="664" y="-127"/>
      <point x="624" y="-127" type="curve" smooth="yes"/>
      <point x="490" y="-127"/>
      <point x="429" y="-24"/>
      <point x="329" y="-24" type="curve" smooth="yes"/>
      <point x="295" y="-24"/>
      <point x="256" y="-36"/>
      <point x="209" y="-67" type="curve"/>
      <point x="363" y="-56"/>
      <point x="391" y="-177"/>
    </contour>
  </outline>
</glyph>
<glyph name="R" format="1">
  <advance width="800"/>
  <unicode hex="0052"/>
  <outline>
    <contour>
      <point x="213" y="0" type="line" smooth="yes"/>
      <point x="125" y="0" type="line" smooth="yes"/>
      <point x="125" y="660" type="line" smooth="yes"/>
      <point x="213" y="660" type="line" smooth="yes"/>
    </contour>
    <contour>
      <point x="56" y="18" type="line"/>
      <point x="99" y="26"/>
      <point x="125" y="47"/>
      <point x="125" y="76" type="curve"/>
      <point x="125" y="0" type="line" smooth="yes"/>
      <point x="56" y="0" type="line" smooth="yes"/>
    </contour>
    <contour>
      <point x="56" y="642" type="line"/>
      <point x="99" y="634"/>
      <point x="125" y="613"/>
      <point x="125" y="584" type="curve"/>
      <point x="125" y="660" type="line" smooth="yes"/>
      <point x="56" y="660" type="line" smooth="yes"/>
    </contour>
    <contour>
      <point x="282" y="0" type="line" smooth="yes"/>
      <point x="213" y="0" type="line" smooth="yes"/>
      <point x="213" y="76" type="line"/>
      <point x="213" y="47"/>
      <point x="239" y="26"/>
      <point x="282" y="18" type="curve"/>
    </contour>
    <contour>
      <point x="213" y="660" type="line" smooth="yes"/>
      <point x="213" y="623" type="line" smooth="yes"/>
      <point x="410" y="623" type="line" smooth="yes"/>
      <point x="511" y="623"/>
      <point x="570" y="547"/>
      <point x="570" y="471" type="curve" smooth="yes"/>
      <point x="570" y="398"/>
      <point x="514" y="326"/>
      <point x="388" y="326" type="curve" smooth="yes"/>
      <point x="213" y="326" type="line" smooth="yes"/>
      <point x="213" y="289" type="line" smooth="yes"/>
      <point x="388" y="289" type="line" smooth="yes"/>
      <point x="577" y="289"/>
      <point x="670" y="395"/>
      <point x="670" y="494" type="curve" smooth="yes"/>
      <point x="670" y="580"/>
      <point x="599" y="660"/>
      <point x="458" y="660" type="curve" smooth="yes"/>
    </contour>
    <contour>
      <point x="327" y="307" type="line"/>
      <point x="483" y="236"/>
      <point x="561" y="144"/>
      <point x="618" y="0" type="curve"/>
      <point x="759" y="0" type="line" smooth="yes"/>
      <point x="759" y="18" type="line"/>
      <point x="725" y="22"/>
      <point x="701" y="45"/>
      <point x="676" y="78" type="curve" smooth="yes"/>
      <point x="623" y="150"/>
      <point x="559" y="266"/>
      <point x="399" y="312" type="curve"/>
    </contour>
  </outline>
</glyph>
<glyph name="S" format="1">
  <advance width="800"/>
  <unicode hex="0053"/>
  <outline>
    <contour>
      <point x="111.0" y="471.0" type="curve" smooth="yes"/>
      <point x="111.0" y="353.0"/>
      <point x="267" y="327"/>
      <point x="405" y="292" type="curve" smooth="yes"/>
      <point x="515" y="264"/>
      <point x="617" y="228"/>
      <point x="617" y="149" type="curve" smooth="yes"/>
      <point x="617" y="74"/>
      <point x="534.0" y="20.0"/>
      <point x="440.0" y="20.0" type="curve" smooth="yes"/>
      <point x="328.0" y="20.0"/>
      <point x="193.0" y="79.0"/>
      <point x="130.0" y="213.0" type="curve"/>
      <point x="93" y="213" type="line" smooth="yes"/>
      <point x="93" y="2" type="line" smooth="yes"/>
      <point x="126.0" y="2.0" type="line"/>
      <point x="159.0" y="60.0" type="line"/>
      <point x="263.0" y="8.0"/>
      <point x="330.0" y="-12.0"/>
      <point x="410.0" y="-12.0" type="curve" smooth="yes"/>
      <point x="566.0" y="-12.0"/>
      <point x="707.0" y="54.0"/>
      <point x="708.0" y="187.0" type="curve" smooth="yes"/>
      <point x="709.0" y="305.0"/>
      <point x="573" y="332"/>
      <point x="442" y="362" type="curve" smooth="yes"/>
      <point x="321" y="389"/>
      <point x="205.0" y="419.0"/>
      <point x="205.0" y="501.0" type="curve" smooth="yes"/>
      <point x="205.0" y="587.0"/>
      <point x="297.0" y="636.0"/>
      <point x="382.0" y="636.0" type="curve" smooth="yes"/>
      <point x="490.0" y="636.0"/>
      <point x="615.0" y="575.0"/>
      <point x="659.0" y="450.0" type="curve"/>
      <point x="688" y="450" type="line" smooth="yes"/>
      <point x="688" y="649" type="line" smooth="yes"/>
      <point x="662.0" y="649.0" type="line"/>
      <point x="619.0" y="601.0" type="line"/>
      <point x="543.0" y="650.0"/>
      <point x="480.0" y="672.0"/>
      <point x="396.0" y="672.0" type="curve" smooth="yes"/>
      <point x="257.0" y="672.0"/>
      <point x="111.0" y="599.0"/>
    </contour>
  </outline>
</glyph>
<glyph name="U" format="1">
  <advance width="800"/>
  <unicode hex="0055"/>
  <outline>
    <contour>
      <point x="48" y="642" type="line"/>
      <point x="91" y="634"/>
      <point x="117" y="613"/>
      <point x="117" y="584" type="curve"/>
      <point x="117" y="660" type="line" smooth="yes"/>
      <point x="48" y="660" type="line" smooth="yes"/>
    </contour>
    <contour>
      <point x="274" y="642" type="line"/>
      <point x="231" y="634"/>
      <point x="205" y="613"/>
      <point x="205" y="584" type="curve"/>
      <point x="205" y="660" type="line" smooth="yes"/>
      <point x="274" y="660" type="line" smooth="yes"/>
    </contour>
    <contour>
      <point x="636" y="660" type="line" smooth="yes"/>
      <point x="636" y="242" type="line" smooth="yes"/>
      <point x="636" y="123"/>
      <point x="540" y="27"/>
      <point x="421" y="27" type="curve" smooth="yes"/>
      <point x="420" y="27" type="line" smooth="yes"/>
      <point x="301" y="27"/>
      <point x="205" y="123"/>
      <point x="205" y="242" type="curve" smooth="yes"/>
      <point x="205" y="660" type="line" smooth="yes"/>
      <point x="117" y="660" type="line" smooth="yes"/>
      <point x="117" y="258" type="line" smooth="yes"/>
      <point x="117" y="109"/>
      <point x="238" y="-12"/>
      <point x="387" y="-12" type="curve" smooth="yes"/>
      <point x="414" y="-12" type="line" smooth="yes"/>
      <point x="563" y="-12"/>
      <point x="684" y="109"/>
      <point x="684" y="258" type="curve" smooth="yes"/>
      <point x="684" y="660" type="line" smooth="yes"/>
    </contour>
    <contour>
      <point x="567" y="642" type="line"/>
      <point x="610" y="634"/>
      <point x="636" y="613"/>
      <point x="636" y="584" type="curve"/>
      <point x="636" y="660" type="line" smooth="yes"/>
      <point x="567" y="660" type="line" smooth="yes"/>
    </contour>
    <contour>
      <point x="753" y="642" type="line"/>
      <point x="710" y="634"/>
      <point x="684" y="613"/>
      <point x="684" y="584" type="curve"/>
      <point x="684" y="660" type="line" smooth="yes"/>
      <point x="753" y="660" type="line" smooth="yes"/>
    </contour>
  </outline>
</glyph>
<glyph name="V" format="1">
  <advance width="800"/>
  <unicode hex="0056"/>
  <outline>
    <contour>
      <point x="419" y="104" type="line" smooth="yes"/>
      <point x="203.0" y="585.0" type="line" smooth="yes"/>
      <point x="188" y="618"/>
      <point x="221.0" y="634.0"/>
      <point x="263.0" y="642.0" type="curve"/>
      <point x="263.0" y="660.0" type="line" smooth="yes"/>
      <point x="31.0" y="660.0" type="line" smooth="yes"/>
      <point x="31.0" y="642.0" type="line"/>
      <point x="81.0" y="632.0"/>
      <point x="98.0" y="615.0"/>
      <point x="111.0" y="585.0" type="curve" smooth="yes"/>
      <point x="376.0" y="-12.0" type="line" smooth="yes"/>
      <point x="409.0" y="-12.0" type="line" smooth="yes"/>
      <point x="675.0" y="585.0" type="line" smooth="yes"/>
      <point x="693.0" y="626.0"/>
      <point x="730.0" y="636.0"/>
      <point x="769.0" y="642.0" type="curve"/>
      <point x="769.0" y="660.0" type="line" smooth="yes"/>
      <point x="552.0" y="660.0" type="line" smooth="yes"/>
      <point x="552.0" y="642.0" type="line"/>
      <point x="597.0" y="636.0"/>
      <point x="650.0" y="626.0"/>
      <point x="632.0" y="585.0" type="curve" smooth="yes"/>
    </contour>
  </outline>
</glyph>
<glyph name="W" format="1">
  <advance width="800"/>
  <unicode hex="0057"/>
  <outline>
    <contour>
      <point x="180" y="586" type="line" smooth="yes"/>
      <point x="171" y="627"/>
      <point x="182" y="643"/>
      <point x="222" y="643" type="curve"/>
      <point x="222" y="660" type="line" smooth="yes"/>
      <point x="0" y="660" type="line" smooth="yes"/>
      <point x="0" y="642" type="line"/>
      <point x="47" y="640"/>
      <point x="74" y="633"/>
      <point x="85" y="586" type="curve" smooth="yes"/>
      <point x="222" y="-12" type="line" smooth="yes"/>
      <point x="302" y="-12" type="line" smooth="yes"/>
      <point x="305" y="42" type="line" smooth="yes"/>
    </contour>
    <contour>
      <point x="715" y="582" type="line" smooth="yes"/>
      <point x="724" y="622"/>
      <point x="756" y="636"/>
      <point x="800" y="642" type="curve"/>
      <point x="800" y="660" type="line" smooth="yes"/>
      <point x="636" y="660" type="line" smooth="yes"/>
      <point x="636" y="642" type="line"/>
      <point x="667" y="637"/>
      <point x="677" y="621"/>
      <point x="668" y="582" type="curve" smooth="yes"/>
      <point x="533" y="-12" type="line" smooth="yes"/>
      <point x="581" y="-12" type="line" smooth="yes"/>
    </contour>
    <contour>
      <point x="403" y="569" type="line" smooth="yes"/>
      <point x="382" y="514" type="line" smooth="yes"/>
      <point x="502" y="-12" type="line" smooth="yes"/>
      <point x="581" y="-12" type="line" smooth="yes"/>
      <point x="586" y="34" type="line" smooth="yes"/>
      <point x="465" y="569" type="line" smooth="yes"/>
    </contour>
    <contour>
      <point x="386" y="569" type="line" smooth="yes"/>
      <point x="254" y="-12" type="line" smooth="yes"/>
      <point x="302" y="-12" type="line" smooth="yes"/>
      <point x="434" y="569" type="line" smooth="yes"/>
    </contour>
  </outline>
</glyph>
<glyph name="X" format="1">
  <advance width="800"/>
  <unicode hex="0058"/>
  <outline>
    <contour>
      <point x="586" y="75" type="line" smooth="yes"/>
      <point x="626" y="32"/>
      <point x="603" y="17"/>
      <point x="554" y="17" type="curve"/>
      <point x="554" y="0" type="line" smooth="yes"/>
      <point x="800" y="0" type="line" smooth="yes"/>
      <point x="800" y="18" type="line"/>
      <point x="753" y="20"/>
      <point x="722" y="43"/>
      <point x="692" y="75" type="curve" smooth="yes"/>
      <point x="214" y="585" type="line" smooth="yes"/>
      <point x="174" y="628"/>
      <point x="197" y="643"/>
      <point x="246" y="643" type="curve"/>
      <point x="246" y="660" type="line" smooth="yes"/>
      <point x="0" y="660" type="line" smooth="yes"/>
      <point x="0" y="642" type="line"/>
      <point x="47" y="640"/>
      <point x="78" y="617"/>
      <point x="108" y="585" type="curve" smooth="yes"/>
    </contour>
    <contour>
      <point x="114" y="75" type="line" smooth="yes"/>
      <point x="82" y="42"/>
      <point x="39" y="24"/>
      <point x="0" y="18" type="curve"/>
      <point x="0" y="0" type="line" smooth="yes"/>
      <point x="194" y="0" type="line" smooth="yes"/>
      <point x="194" y="18" type="line"/>
      <point x="149" y="24"/>
      <point x="126" y="42"/>
      <point x="158" y="75" type="curve" smooth="yes"/>
      <point x="390" y="316" type="line" smooth="yes"/>
      <point x="369" y="337" type="line" smooth="yes"/>
    </contour>
    <contour>
      <point x="686" y="585" type="line" smooth="yes"/>
      <point x="718" y="618"/>
      <point x="761" y="636"/>
      <point x="800" y="642" type="curve"/>
      <point x="800" y="660" type="line" smooth="yes"/>
      <point x="606" y="660" type="line" smooth="yes"/>
      <point x="606" y="642" type="line"/>
      <point x="651" y="636"/>
      <point x="674" y="619"/>
      <point x="642" y="585" type="curve" smooth="yes"/>
      <point x="410" y="344" type="line" smooth="yes"/>
      <point x="431" y="323" type="line" smooth="yes"/>
    </contour>
  </outline>
</glyph>
<glyph name="Y" format="1">
  <advance width="800"/>
  <unicode hex="0059"/>
  <outline>
    <contour>
      <point x="287" y="18" type="line"/>
      <point x="330" y="26"/>
      <point x="356" y="47"/>
      <point x="356" y="76" type="curve"/>
      <point x="356" y="0" type="line" smooth="yes"/>
      <point x="287" y="0" type="line" smooth="yes"/>
    </contour>
    <contour>
      <point x="513" y="18" type="line"/>
      <point x="470" y="26"/>
      <point x="444" y="47"/>
      <point x="444" y="76" type="curve"/>
      <point x="444" y="0" type="line" smooth="yes"/>
      <point x="513" y="0" type="line" smooth="yes"/>
    </contour>
    <contour>
      <point x="356" y="0" type="line"/>
      <point x="444" y="0" type="line"/>
      <point x="444" y="245" type="line" smooth="yes"/>
      <point x="444" y="281"/>
      <point x="456" y="315"/>
      <point x="479" y="344" type="curve" smooth="yes"/>
      <point x="666" y="585" type="line" smooth="yes"/>
      <point x="694" y="621"/>
      <point x="741" y="636"/>
      <point x="780" y="642" type="curve"/>
      <point x="780" y="660" type="line"/>
      <point x="586" y="660" type="line"/>
      <point x="586" y="642" type="line"/>
      <point x="631" y="636"/>
      <point x="648" y="619"/>
      <point x="622" y="585" type="curve" smooth="yes"/>
      <point x="424" y="324" type="line"/>
      <point x="217" y="585" type="line" smooth="yes"/>
      <point x="181" y="631"/>
      <point x="200" y="643"/>
      <point x="249" y="643" type="curve"/>
      <point x="249" y="660" type="line"/>
      <point x="20" y="660" type="line"/>
      <point x="20" y="642" type="line"/>
      <point x="67" y="640"/>
      <point x="101" y="619"/>
      <point x="128" y="585" type="curve" smooth="yes"/>
      <point x="313" y="349" type="line" smooth="yes"/>
      <point x="338" y="318"/>
      <point x="356" y="279"/>
      <point x="356" y="238" type="curve" smooth="yes"/>
    </contour>
  </outline>
</glyph>
<glyph name="Z" format="1">
  <advance width="800"/>
  <unicode hex="005A"/>
  <outline>
    <contour>
      <point x="20" y="0" type="line" smooth="yes"/>
      <point x="136" y="0" type="line" smooth="yes"/>
      <point x="136" y="37" type="line" smooth="yes"/>
      <point x="723" y="623" type="line" smooth="yes"/>
      <point x="723" y="660" type="line" smooth="yes"/>
      <point x="607" y="660" type="line" smooth="yes"/>
      <point x="607" y="623" type="line" smooth="yes"/>
      <point x="20" y="37" type="line" smooth="yes"/>
    </contour>
    <contour>
      <point x="32" y="516" type="line" smooth="yes"/>
      <point x="68" y="516" type="line"/>
      <point x="98" y="611"/>
      <point x="166" y="623"/>
      <point x="259" y="623" type="curve"/>
      <point x="708" y="623" type="line" smooth="yes"/>
      <point x="708" y="660" type="line" smooth="yes"/>
      <point x="70" y="660" type="line" smooth="yes"/>
    </contour>
    <contour>
      <point x="780" y="184" type="line" smooth="yes"/>
      <point x="744" y="184" type="line"/>
      <point x="715" y="73"/>
      <point x="632" y="37"/>
      <point x="539" y="37" type="curve"/>
      <point x="56" y="37" type="line" smooth="yes"/>
      <point x="56" y="0" type="line" smooth="yes"/>
      <point x="728" y="0" type="line" smooth="yes"/>
    </contour>
  </outline>
</glyph>
<glyph name="bracketleft" format="1">
  <advance width="800"/>
  <unicode hex="005B"/>
  <outline>
    <contour>
      <point x="232" y="-192" type="line" smooth="yes"/>
      <point x="232" y="-155" type="line" smooth="yes"/>
      <point x="607" y="-155" type="line" smooth="yes"/>
      <point x="607" y="-192" type="line" smooth="yes"/>
    </contour>
    <contour>
      <point x="320" y="-192" type="line" smooth="yes"/>
      <point x="232" y="-192" type="line" smooth="yes"/>
      <point x="232" y="692" type="line" smooth="yes"/>
      <point x="320" y="692" type="line" smooth="yes"/>
    </contour>
    <contour>
      <point x="232" y="655" type="line" smooth="yes"/>
      <point x="232" y="692" type="line" smooth="yes"/>
      <point x="607" y="692" type="line" smooth="yes"/>
      <point x="607" y="655" type="line" smooth="yes"/>
    </contour>
  </outline>
</glyph>
<glyph name="backslash" format="1">
  <advance width="800"/>
  <unicode hex="005C"/>
  <outline>
    <contour>
      <point x="600" y="-192" type="line" smooth="yes"/>
      <point x="120" y="692" type="line" smooth="yes"/>
      <point x="200" y="692" type="line" smooth="yes"/>
      <point x="680" y="-192" type="line" smooth="yes"/>
    </contour>
  </outline>
</glyph>
<glyph name="bracketright" format="1">
  <advance width="800"/>
  <unicode hex="005D"/>
  <outline>
    <contour>
      <point x="530" y="-164" type="line"/>
      <point x="166" y="-164" type="line"/>
      <point x="166" y="-130" type="line"/>
      <point x="530" y="-130" type="line"/>
    </contour>
    <contour>
      <point x="530" y="746" type="line"/>
      <point x="166" y="746" type="line"/>
      <point x="166" y="780" type="line"/>
      <point x="530" y="780" type="line"/>
    </contour>
    <contour>
      <point x="453" y="-164" type="line"/>
      <point x="453" y="780" type="line"/>
      <point x="541" y="780" type="line"/>
      <point x="541" y="-164" type="line"/>
    </contour>
  </outline>
</glyph>
<glyph name="underscore" format="1">
  <advance width="800"/>
  <unicode hex="005F"/>
  <outline>
    <contour>
      <point x="647" y="-121" type="line"/>
      <point x="153" y="-121" type="line"/>
      <point x="153" y="-49" type="line"/>
      <point x="647" y="-49" type="line"/>
    </contour>
  </outline>
</glyph>
<glyph name="grave" format="1">
  <advance width="800"/>
  <unicode hex="0060"/>
  <outline>
    <contour>
      <point x="390" y="677" type="line"/>
      <point x="370" y="696"/>
      <point x="338" y="696"/>
      <point x="317" y="676" type="curve" smooth="yes"/>
      <point x="297" y="656"/>
      <point x="294" y="620"/>
      <point x="317" y="604" type="curve" smooth="yes"/>
      <point x="474" y="493" type="line" smooth="yes"/>
      <point x="500" y="519" type="line" smooth="yes"/>
    </contour>
  </outline>
</glyph>
<glyph name="a" format="1">
  <advance width="780"/>
  <unicode hex="0061"/>
  <outline>
    <contour>
      <point x="576" y="138" type="line"/>
      <point x="506" y="86"/>
      <point x="399" y="27"/>
      <point x="312" y="27" type="curve" smooth="yes"/>
      <point x="242" y="27"/>
      <point x="168" y="60"/>
      <point x="168" y="130" type="curve" smooth="yes"/>
      <point x="168" y="174"/>
      <point x="204" y="222"/>
      <point x="300" y="247" type="curve" smooth="yes"/>
      <point x="425" y="279"/>
      <point x="510" y="296"/>
      <point x="574" y="296" type="curve" smooth="yes"/>
      <point x="575" y="296"/>
      <point x="575" y="296"/>
      <point x="576" y="296" type="curve"/>
      <point x="576" y="321" type="line"/>
      <point x="507" y="321"/>
      <point x="347" y="287"/>
      <point x="286" y="267" type="curve" smooth="yes"/>
      <point x="194" y="237"/>
      <point x="75" y="185"/>
      <point x="75" y="97" type="curve" smooth="yes"/>
      <point x="75" y="23"/>
      <point x="154" y="-12"/>
      <point x="232" y="-12" type="curve" smooth="yes"/>
      <point x="341" y="-12"/>
      <point x="485" y="35"/>
      <point x="576" y="105" type="curve"/>
    </contour>
    <contour>
      <point x="705" y="41" type="line"/>
      <point x="687" y="30"/>
      <point x="670" y="28"/>
      <point x="654" y="28" type="curve" smooth="yes"/>
      <point x="633" y="28"/>
      <point x="612" y="44"/>
      <point x="612" y="85" type="curve" smooth="yes"/>
      <point x="612" y="328" type="line" smooth="yes"/>
      <point x="612" y="458"/>
      <point x="506" y="512"/>
      <point x="395" y="512" type="curve" smooth="yes"/>
      <point x="319" y="512"/>
      <point x="115" y="468"/>
      <point x="115" y="395" type="curve" smooth="yes"/>
      <point x="115" y="370"/>
      <point x="129" y="354"/>
      <point x="156" y="354" type="curve" smooth="yes"/>
      <point x="196" y="354"/>
      <point x="236" y="365"/>
      <point x="236" y="381" type="curve" smooth="yes"/>
      <point x="236" y="414"/>
      <point x="194" y="430"/>
      <point x="212" y="448" type="curve" smooth="yes"/>
      <point x="234" y="470"/>
      <point x="292" y="476"/>
      <point x="323" y="476" type="curve" smooth="yes"/>
      <point x="390" y="476"/>
      <point x="523" y="435"/>
      <point x="523" y="315" type="curve" smooth="yes"/>
      <point x="523" y="60" type="line" smooth="yes"/>
      <point x="523" y="11"/>
      <point x="554" y="-12"/>
      <point x="613" y="-12" type="curve" smooth="yes"/>
      <point x="664" y="-12"/>
      <point x="691" y="1"/>
      <point x="714" y="26" type="curve"/>
    </contour>
  </outline>
</glyph>
<glyph name="b" format="1">
  <advance width="800"/>
  <unicode hex="0062"/>
  <outline>
    <contour>
      <point x="155.0" y="0.0" type="curve" smooth="yes"/>
      <point x="155.0" y="0.0" type="line"/>
      <point x="155.0" y="780.0" type="line" smooth="yes"/>
      <point x="223.0" y="780.0" type="line" smooth="yes"/>
      <point x="234.0" y="780.0"/>
      <point x="243.0" y="771.0"/>
      <point x="243.0" y="760.0" type="curve" smooth="yes"/>
      <point x="243" y="142" type="line"/>
      <point x="243.0" y="88.0" type="line" smooth="yes"/>
      <point x="243.0" y="39.0"/>
      <point x="204.0" y="0.0"/>
    </contour>
    <contour>
      <point x="86" y="18" type="line"/>
      <point x="129" y="26"/>
      <point x="155" y="47"/>
      <point x="155" y="76" type="curve"/>
      <point x="155" y="0" type="line" smooth="yes"/>
      <point x="86" y="0" type="line" smooth="yes"/>
    </contour>
    <contour>
      <point x="86" y="762" type="line"/>
      <point x="129" y="754"/>
      <point x="155" y="733"/>
      <point x="155" y="704" type="curve"/>
      <point x="155" y="780" type="line" smooth="yes"/>
      <point x="86" y="780" type="line" smooth="yes"/>
    </contour>
    <contour>
      <point x="454" y="512" type="curve" smooth="yes"/>
      <point x="588" y="512"/>
      <point x="714" y="420"/>
      <point x="714" y="277" type="curve" smooth="yes"/>
      <point x="714" y="61"/>
      <point x="524" y="-12"/>
      <point x="415" y="-12" type="curve" smooth="yes"/>
      <point x="267" y="-12"/>
      <point x="157" y="71"/>
      <point x="157" y="241" type="curve" smooth="yes"/>
      <point x="157" y="447"/>
      <point x="371" y="512"/>
    </contour>
    <contour>
      <point x="230" y="323" type="curve" smooth="yes"/>
      <point x="230" y="136" type="line"/>
      <point x="272" y="52"/>
      <point x="342" y="26"/>
      <point x="445" y="26" type="curve" smooth="yes"/>
      <point x="540" y="26"/>
      <point x="626" y="131"/>
      <point x="626" y="239" type="curve" smooth="yes"/>
      <point x="626" y="384"/>
      <point x="514" y="464"/>
      <point x="409" y="464" type="curve" smooth="yes"/>
      <point x="334" y="464"/>
      <point x="230" y="402"/>
    </contour>
  </outline>
</glyph>
<glyph name="c" format="1">
  <advance width="800"/>
  <unicode hex="0063"/>
  <outline>
    <contour>
      <point x="438" y="20" type="curve" smooth="yes"/>
      <point x="306" y="20"/>
      <point x="215" y="118"/>
      <point x="215" y="264" type="curve" smooth="yes"/>
      <point x="215" y="372"/>
      <point x="303" y="479"/>
      <point x="405" y="479" type="curve" smooth="yes"/>
      <point x="471" y="479"/>
      <point x="523" y="467"/>
      <point x="557" y="433" type="curve" smooth="yes"/>
      <point x="582" y="408"/>
      <point x="547" y="403"/>
      <point x="547" y="370" type="curve" smooth="yes"/>
      <point x="547" y="349"/>
      <point x="596" y="329"/>
      <point x="630" y="329" type="curve" smooth="yes"/>
      <point x="661" y="329"/>
      <point x="676" y="352"/>
      <point x="676" y="376" type="curve" smooth="yes"/>
      <point x="676" y="433"/>
      <point x="588" y="512"/>
      <point x="458" y="512" type="curve" smooth="yes"/>
      <point x="275" y="512"/>
      <point x="115" y="414"/>
      <point x="115" y="233" type="curve" smooth="yes"/>
      <point x="115" y="100"/>
      <point x="241" y="-12"/>
      <point x="385" y="-12" type="curve" smooth="yes"/>
      <point x="509" y="-12"/>
      <point x="606" y="23"/>
      <point x="682" y="112" type="curve" smooth="yes"/>
      <point x="699" y="132"/>
      <point x="620" y="146"/>
      <point x="595" y="115" type="curve" smooth="yes"/>
      <point x="557" y="68"/>
      <point x="505" y="20"/>
    </contour>
  </outline>
</glyph>
<glyph name="d" format="1">
  <advance width="780"/>
  <unicode hex="0064"/>
  <outline>
    <contour>
      <point x="635" y="0" type="curve" smooth="yes"/>
      <point x="635" y="0" type="line"/>
      <point x="635" y="760" type="line" smooth="yes"/>
      <point x="635" y="771"/>
      <point x="626" y="780"/>
      <point x="615" y="780" type="curve" smooth="yes"/>
      <point x="547" y="780" type="line"/>
      <point x="547" y="88" type="line" smooth="yes"/>
      <point x="547" y="39"/>
      <point x="586" y="0"/>
    </contour>
    <contour>
      <point x="704" y="18" type="line"/>
      <point x="661" y="26"/>
      <point x="635" y="47"/>
      <point x="635" y="76" type="curve"/>
      <point x="635" y="0" type="line"/>
      <point x="704" y="0" type="line"/>
    </contour>
    <contour>
      <point x="478" y="762" type="line"/>
      <point x="521" y="754"/>
      <point x="547" y="733"/>
      <point x="547" y="704" type="curve"/>
      <point x="547" y="780" type="line"/>
      <point x="478" y="780" type="line"/>
    </contour>
    <contour>
      <point x="76" y="258" type="curve" smooth="yes"/>
      <point x="76" y="43"/>
      <point x="239" y="-12"/>
      <point x="368" y="-12" type="curve" smooth="yes"/>
      <point x="516" y="-12"/>
      <point x="633" y="101"/>
      <point x="633" y="270" type="curve" smooth="yes"/>
      <point x="633" y="477"/>
      <point x="445" y="512"/>
      <point x="362" y="512" type="curve" smooth="yes"/>
      <point x="211" y="512"/>
      <point x="76" y="402"/>
    </contour>
    <contour>
      <point x="345" y="25" type="curve" smooth="yes"/>
      <point x="230" y="25"/>
      <point x="164" y="158"/>
      <point x="164" y="266" type="curve" smooth="yes"/>
      <point x="164" y="412"/>
      <point x="278" y="468"/>
      <point x="383" y="468" type="curve" smooth="yes"/>
      <point x="458" y="468"/>
      <point x="560" y="429"/>
      <point x="560" y="294" type="curve" smooth="yes"/>
      <point x="560" y="69"/>
      <point x="489" y="25"/>
    </contour>
  </outline>
</glyph>
<glyph name="f" format="1">
  <advance width="800"/>
  <unicode hex="0066"/>
  <outline>
    <contour>
      <point x="650" y="437" type="line" smooth="yes"/>
      <point x="650" y="485" type="line" smooth="yes"/>
      <point x="124" y="485" type="line" smooth="yes"/>
      <point x="124" y="437" type="line" smooth="yes"/>
    </contour>
    <contour>
      <point x="193" y="18" type="line"/>
      <point x="236" y="26"/>
      <point x="262" y="47"/>
      <point x="262" y="76" type="curve"/>
      <point x="262" y="0" type="line" smooth="yes"/>
      <point x="193" y="0" type="line" smooth="yes"/>
    </contour>
    <contour>
      <point x="419" y="18" type="line"/>
      <point x="376" y="26"/>
      <point x="350" y="47"/>
      <point x="350" y="76" type="curve"/>
      <point x="350" y="0" type="line" smooth="yes"/>
      <point x="419" y="0" type="line" smooth="yes"/>
    </contour>
    <contour>
      <point x="526" y="780" type="curve" smooth="yes"/>
      <point x="416" y="780"/>
      <point x="262" y="701"/>
      <point x="262" y="531" type="curve" smooth="yes"/>
      <point x="262" y="0" type="line" smooth="yes"/>
      <point x="350" y="0" type="line" smooth="yes"/>
      <point x="350" y="531" type="line" smooth="yes"/>
      <point x="350" y="683"/>
      <point x="422" y="741"/>
      <point x="502" y="741" type="curve" smooth="yes"/>
      <point x="519" y="741"/>
      <point x="561" y="737"/>
      <point x="571" y="724" type="curve" smooth="yes"/>
      <point x="590" y="701"/>
      <point x="573" y="708"/>
      <point x="573" y="679" type="curve" smooth="yes"/>
      <point x="573" y="661"/>
      <point x="614" y="644"/>
      <point x="644" y="644" type="curve" smooth="yes"/>
      <point x="670" y="644"/>
      <point x="683" y="664"/>
      <point x="684" y="684" type="curve" smooth="yes"/>
      <point x="683" y="735"/>
      <point x="621" y="780"/>
    </contour>
  </outline>
</glyph>
<glyph name="g" format="1">
  <advance width="800"/>
  <unicode hex="0067"/>
  <outline>
    <contour>
      <point x="396" y="512" type="curve" smooth="yes"/>
      <point x="233" y="512"/>
      <point x="134" y="440"/>
      <point x="134" y="332" type="curve" smooth="yes"/>
      <point x="134" y="246"/>
      <point x="219" y="178"/>
      <point x="342" y="178" type="curve" smooth="yes"/>
      <point x="471" y="178"/>
      <point x="604" y="232"/>
      <point x="604" y="362" type="curve" smooth="yes"/>
      <point x="604" y="440"/>
      <point x="495" y="512"/>
    </contour>
    <contour>
      <point x="304" y="214" type="line"/>
      <point x="252" y="205"/>
      <point x="155" y="170"/>
      <point x="155" y="118" type="curve" smooth="yes"/>
      <point x="155" y="39"/>
      <point x="354" y="35"/>
      <point x="419" y="29" type="curve" smooth="yes"/>
      <point x="523" y="20"/>
      <point x="601" y="3"/>
      <point x="601" y="-71" type="curve" smooth="yes"/>
      <point x="601" y="-140"/>
      <point x="485" y="-183"/>
      <point x="402" y="-183" type="curve" smooth="yes"/>
      <point x="293" y="-183"/>
      <point x="164" y="-148"/>
      <point x="164" y="-42" type="curve" smooth="yes"/>
      <point x="164" y="-2"/>
      <point x="227" y="46"/>
      <point x="330" y="63" type="curve"/>
      <point x="330" y="81" type="line"/>
      <point x="223" y="70"/>
      <point x="82" y="19"/>
      <point x="82" y="-74" type="curve" smooth="yes"/>
      <point x="82" y="-174"/>
      <point x="225" y="-220"/>
      <point x="345" y="-220" type="curve" smooth="yes"/>
      <point x="486" y="-220"/>
      <point x="681" y="-162"/>
      <point x="681" y="-43" type="curve" smooth="yes"/>
      <point x="681" y="42"/>
      <point x="546" y="65"/>
      <point x="441" y="73" type="curve" smooth="yes"/>
      <point x="364" y="79"/>
      <point x="226" y="83"/>
      <point x="226" y="134" type="curve" smooth="yes"/>
      <point x="226" y="160"/>
      <point x="266" y="185"/>
      <point x="304" y="190" type="curve"/>
    </contour>
    <contour>
      <point x="339" y="477" type="curve" smooth="yes"/>
      <point x="431" y="477"/>
      <point x="524" y="420"/>
      <point x="524" y="325" type="curve" smooth="yes"/>
      <point x="524" y="254"/>
      <point x="472" y="214"/>
      <point x="407" y="214" type="curve" smooth="yes"/>
      <point x="315" y="214"/>
      <point x="212" y="263"/>
      <point x="212" y="358" type="curve" smooth="yes"/>
      <point x="212" y="439"/>
      <point x="260" y="477"/>
    </contour>
    <contour>
      <point x="560" y="447" type="line"/>
      <point x="488" y="527"/>
      <point x="543" y="582"/>
      <point x="579" y="582" type="curve" smooth="yes"/>
      <point x="585" y="582"/>
      <point x="593" y="580"/>
      <point x="596" y="577" type="curve" smooth="yes"/>
      <point x="615" y="557"/>
      <point x="589" y="555"/>
      <point x="589" y="526" type="curve" smooth="yes"/>
      <point x="589" y="508"/>
      <point x="631" y="491"/>
      <point x="660" y="491" type="curve" smooth="yes"/>
      <point x="687" y="491"/>
      <point x="700" y="511"/>
      <point x="700" y="531" type="curve" smooth="yes"/>
      <point x="700" y="583"/>
      <point x="641" y="607"/>
      <point x="582" y="607" type="curve" smooth="yes"/>
      <point x="518" y="607"/>
      <point x="441" y="540"/>
      <point x="512" y="457" type="curve"/>
    </contour>
  </outline>
</glyph>
<glyph name="h" format="1">
  <advance width="800"/>
  <unicode hex="0068"/>
  <outline>
    <contour>
      <point x="523" y="512" type="curve" smooth="yes"/>
      <point x="427" y="512"/>
      <point x="330" y="473"/>
      <point x="237" y="420" type="curve"/>
      <point x="237" y="383" type="line"/>
      <point x="339" y="452"/>
      <point x="393" y="463"/>
      <point x="469" y="463" type="curve" smooth="yes"/>
      <point x="519" y="463"/>
      <point x="563" y="448"/>
      <point x="563" y="393" type="curve" smooth="yes"/>
      <point x="563" y="0" type="line"/>
      <point x="651" y="0" type="line"/>
      <point x="651" y="415" type="line" smooth="yes"/>
      <point x="651" y="484"/>
      <point x="588" y="512"/>
    </contour>
    <contour>
      <point x="237" y="0" type="line"/>
      <point x="149" y="0" type="line"/>
      <point x="149" y="780" type="line"/>
      <point x="217" y="780" type="line" smooth="yes"/>
      <point x="228" y="780"/>
      <point x="237" y="771"/>
      <point x="237" y="760" type="curve" smooth="yes"/>
    </contour>
    <contour>
      <point x="80" y="18" type="line"/>
      <point x="123" y="26"/>
      <point x="149" y="47"/>
      <point x="149" y="76" type="curve"/>
      <point x="149" y="0" type="line"/>
      <point x="80" y="0" type="line"/>
    </contour>
    <contour>
      <point x="80" y="762" type="line"/>
      <point x="123" y="754"/>
      <point x="149" y="733"/>
      <point x="149" y="704" type="curve"/>
      <point x="149" y="780" type="line"/>
      <point x="80" y="780" type="line"/>
    </contour>
    <contour>
      <point x="306" y="18" type="line"/>
      <point x="263" y="26"/>
      <point x="237" y="47"/>
      <point x="237" y="76" type="curve"/>
      <point x="237" y="0" type="line"/>
      <point x="306" y="0" type="line"/>
    </contour>
    <contour>
      <point x="494" y="18" type="line"/>
      <point x="537" y="26"/>
      <point x="563" y="47"/>
      <point x="563" y="76" type="curve"/>
      <point x="563" y="0" type="line"/>
      <point x="494" y="0" type="line"/>
    </contour>
    <contour>
      <point x="720" y="18" type="line"/>
      <point x="677" y="26"/>
      <point x="651" y="47"/>
      <point x="651" y="76" type="curve"/>
      <point x="651" y="0" type="line"/>
      <point x="720" y="0" type="line"/>
    </contour>
  </outline>
</glyph>
<glyph name="i" format="1">
  <advance width="800"/>
  <unicode hex="0069"/>
  <outline>
    <contour>
      <point x="460" y="688" type="curve" smooth="yes"/>
      <point x="460" y="655"/>
      <point x="433" y="628"/>
      <point x="400" y="628" type="curve" smooth="yes"/>
      <point x="367" y="628"/>
      <point x="340" y="655"/>
      <point x="340" y="688" type="curve" smooth="yes"/>
      <point x="340" y="721"/>
      <point x="367" y="748"/>
      <point x="400" y="748" type="curve" smooth="yes"/>
      <point x="433" y="748"/>
      <point x="460" y="721"/>
    </contour>
    <contour>
      <point x="336" y="476" type="curve" smooth="yes"/>
      <point x="350" y="476"/>
      <point x="359" y="472"/>
      <point x="359" y="456" type="curve" smooth="yes"/>
      <point x="359" y="99" type="line" smooth="yes"/>
      <point x="359" y="25"/>
      <point x="399" y="-12"/>
      <point x="476" y="-12" type="curve" smooth="yes"/>
      <point x="584" y="-12"/>
      <point x="654" y="51"/>
      <point x="687" y="85" type="curve"/>
      <point x="672" y="115" type="line"/>
      <point x="642" y="85"/>
      <point x="563" y="37"/>
      <point x="524" y="36" type="curve" smooth="yes"/>
      <point x="485" y="35"/>
      <point x="447" y="58"/>
      <point x="447" y="99" type="curve" smooth="yes"/>
      <point x="447" y="472" type="line" smooth="yes"/>
      <point x="447" y="493"/>
      <point x="428" y="512"/>
      <point x="407" y="512" type="curve" smooth="yes"/>
      <point x="378" y="512" type="line" smooth="yes"/>
      <point x="287" y="512"/>
      <point x="117" y="434"/>
      <point x="117" y="377" type="curve" smooth="yes"/>
      <point x="117" y="353"/>
      <point x="132" y="330"/>
      <point x="163" y="330" type="curve" smooth="yes"/>
      <point x="197" y="330"/>
      <point x="246" y="350"/>
      <point x="246" y="371" type="curve" smooth="yes"/>
      <point x="246" y="404"/>
      <point x="211" y="409"/>
      <point x="236" y="434" type="curve" smooth="yes"/>
      <point x="261" y="459"/>
      <point x="309" y="476"/>
    </contour>
  </outline>
</glyph>
<glyph name="j" format="1">
  <advance width="800"/>
  <unicode hex="006A"/>
  <outline>
    <contour>
      <point x="474" y="688" type="curve" smooth="yes"/>
      <point x="474" y="655"/>
      <point x="447" y="628"/>
      <point x="414" y="628" type="curve" smooth="yes"/>
      <point x="381" y="628"/>
      <point x="354" y="655"/>
      <point x="354" y="688" type="curve" smooth="yes"/>
      <point x="354" y="721"/>
      <point x="381" y="748"/>
      <point x="414" y="748" type="curve" smooth="yes"/>
      <point x="447" y="748"/>
      <point x="474" y="721"/>
    </contour>
    <contour>
      <point x="373" y="457" type="curve" smooth="yes"/>
      <point x="362" y="0" type="line" smooth="yes"/>
      <point x="359" y="-118"/>
      <point x="282" y="-182"/>
      <point x="245" y="-182" type="curve" smooth="yes"/>
      <point x="189" y="-182"/>
      <point x="142" y="-151"/>
      <point x="119" y="-125" type="curve" smooth="yes"/>
      <point x="113" y="-119"/>
      <point x="104" y="-116"/>
      <point x="93" y="-116" type="curve" smooth="yes"/>
      <point x="59" y="-116"/>
      <point x="1" y="-142"/>
      <point x="17" y="-160" type="curve" smooth="yes"/>
      <point x="52" y="-199"/>
      <point x="131" y="-220"/>
      <point x="192" y="-220" type="curve" smooth="yes"/>
      <point x="291" y="-220"/>
      <point x="447" y="-127"/>
      <point x="450" y="0" type="curve" smooth="yes"/>
      <point x="461" y="473" type="line" smooth="yes"/>
      <point x="461" y="494"/>
      <point x="442" y="513"/>
      <point x="421" y="513" type="curve" smooth="yes"/>
      <point x="392" y="513" type="line" smooth="yes"/>
      <point x="301" y="513"/>
      <point x="131" y="435"/>
      <point x="131" y="378" type="curve" smooth="yes"/>
      <point x="131" y="354"/>
      <point x="146" y="331"/>
      <point x="177" y="331" type="curve" smooth="yes"/>
      <point x="211" y="331"/>
      <point x="260" y="351"/>
      <point x="260" y="372" type="curve" smooth="yes"/>
      <point x="260" y="405"/>
      <point x="225" y="410"/>
      <point x="250" y="435" type="curve" smooth="yes"/>
      <point x="275" y="460"/>
      <point x="323" y="477"/>
      <point x="350" y="477" type="curve" smooth="yes"/>
      <point x="364" y="477"/>
      <point x="373" y="473"/>
    </contour>
  </outline>
</glyph>
<glyph name="l" format="1">
  <advance width="800"/>
  <unicode hex="006C"/>
  <outline>
    <contour>
      <point x="337" y="744" type="curve" smooth="yes"/>
      <point x="351" y="744"/>
      <point x="361" y="740"/>
      <point x="360" y="724" type="curve" smooth="yes"/>
      <point x="338" y="99" type="line" smooth="yes"/>
      <point x="335" y="25"/>
      <point x="378" y="-12"/>
      <point x="455" y="-12" type="curve" smooth="yes"/>
      <point x="563" y="-12"/>
      <point x="633" y="51"/>
      <point x="666" y="85" type="curve"/>
      <point x="651" y="115" type="line"/>
      <point x="621" y="85"/>
      <point x="542" y="37"/>
      <point x="503" y="36" type="curve" smooth="yes"/>
      <point x="464" y="35"/>
      <point x="425" y="58"/>
      <point x="426" y="99" type="curve" smooth="yes"/>
      <point x="448" y="740" type="line" smooth="yes"/>
      <point x="449" y="761"/>
      <point x="429" y="780"/>
      <point x="408" y="780" type="curve" smooth="yes"/>
      <point x="379" y="780" type="line" smooth="yes"/>
      <point x="288" y="780"/>
      <point x="118" y="702"/>
      <point x="118" y="645" type="curve" smooth="yes"/>
      <point x="118" y="621"/>
      <point x="133" y="598"/>
      <point x="164" y="598" type="curve" smooth="yes"/>
      <point x="198" y="598"/>
      <point x="247" y="618"/>
      <point x="247" y="639" type="curve" smooth="yes"/>
      <point x="247" y="672"/>
      <point x="212" y="677"/>
      <point x="237" y="702" type="curve" smooth="yes"/>
      <point x="262" y="727"/>
      <point x="310" y="744"/>
    </contour>
  </outline>
</glyph>
<glyph name="m" format="1">
  <advance width="800"/>
  <unicode hex="006D"/>
  <outline>
    <contour>
      <point x="356" y="393" type="line" smooth="yes"/>
      <point x="356" y="426"/>
      <point x="341" y="463"/>
      <point x="291" y="463" type="curve" smooth="yes"/>
      <point x="241" y="463"/>
      <point x="174" y="405"/>
      <point x="145" y="350" type="curve"/>
      <point x="107" y="350" type="line"/>
      <point x="154" y="422"/>
      <point x="262" y="512"/>
      <point x="341" y="512" type="curve" smooth="yes"/>
      <point x="406" y="512"/>
      <point x="444" y="457"/>
      <point x="444" y="415" type="curve" smooth="yes"/>
      <point x="444" y="0" type="line"/>
      <point x="356" y="0" type="line"/>
    </contour>
    <contour>
      <point x="167" y="0" type="line"/>
      <point x="79" y="0" type="line"/>
      <point x="79" y="500" type="line"/>
      <point x="147" y="500" type="line" smooth="yes"/>
      <point x="158" y="500"/>
      <point x="167" y="491"/>
      <point x="167" y="480" type="curve" smooth="yes"/>
    </contour>
    <contour>
      <point x="10" y="18" type="line"/>
      <point x="53" y="26"/>
      <point x="79" y="47"/>
      <point x="79" y="76" type="curve"/>
      <point x="79" y="0" type="line"/>
      <point x="10" y="0" type="line"/>
    </contour>
    <contour>
      <point x="10" y="482" type="line"/>
      <point x="53" y="474"/>
      <point x="79" y="453"/>
      <point x="79" y="424" type="curve"/>
      <point x="79" y="500" type="line"/>
      <point x="10" y="500" type="line"/>
    </contour>
    <contour>
      <point x="236" y="18" type="line"/>
      <point x="193" y="26"/>
      <point x="167" y="47"/>
      <point x="167" y="76" type="curve"/>
      <point x="167" y="0" type="line"/>
      <point x="236" y="0" type="line"/>
    </contour>
    <contour>
      <point x="287" y="18" type="line"/>
      <point x="330" y="26"/>
      <point x="356" y="47"/>
      <point x="356" y="76" type="curve"/>
      <point x="356" y="0" type="line"/>
      <point x="287" y="0" type="line"/>
    </contour>
    <contour>
      <point x="513" y="18" type="line"/>
      <point x="470" y="26"/>
      <point x="444" y="47"/>
      <point x="444" y="76" type="curve"/>
      <point x="444" y="0" type="line"/>
      <point x="513" y="0" type="line"/>
    </contour>
    <contour>
      <point x="564" y="18" type="line"/>
      <point x="607" y="26"/>
      <point x="633" y="47"/>
      <point x="633" y="76" type="curve"/>
      <point x="633" y="0" type="line"/>
      <point x="564" y="0" type="line"/>
    </contour>
    <contour>
      <point x="790" y="18" type="line"/>
      <point x="747" y="26"/>
      <point x="721" y="47"/>
      <point x="721" y="76" type="curve"/>
      <point x="721" y="0" type="line"/>
      <point x="790" y="0" type="line"/>
    </contour>
    <contour>
      <point x="633" y="393" type="line" smooth="yes"/>
      <point x="633" y="426"/>
      <point x="618" y="463"/>
      <point x="568" y="463" type="curve" smooth="yes"/>
      <point x="518" y="463"/>
      <point x="451" y="405"/>
      <point x="422" y="350" type="curve"/>
      <point x="384" y="350" type="line"/>
      <point x="431" y="422"/>
      <point x="539" y="512"/>
      <point x="618" y="512" type="curve" smooth="yes"/>
      <point x="683" y="512"/>
      <point x="721" y="457"/>
      <point x="721" y="415" type="curve" smooth="yes"/>
      <point x="721" y="0" type="line"/>
      <point x="633" y="0" type="line"/>
    </contour>
  </outline>
</glyph>
<glyph name="n" format="1">
  <advance width="800"/>
  <unicode hex="006E"/>
  <outline>
    <contour>
      <point x="523" y="513" type="curve" smooth="yes"/>
      <point x="427" y="513"/>
      <point x="330" y="474"/>
      <point x="237" y="421" type="curve"/>
      <point x="237" y="384" type="line"/>
      <point x="339" y="453"/>
      <point x="393" y="464"/>
      <point x="469" y="464" type="curve" smooth="yes"/>
      <point x="519" y="464"/>
      <point x="563" y="449"/>
      <point x="563" y="394" type="curve" smooth="yes"/>
      <point x="563" y="1" type="line"/>
      <point x="651" y="1" type="line"/>
      <point x="651" y="416" type="line" smooth="yes"/>
      <point x="651" y="485"/>
      <point x="588" y="513"/>
    </contour>
    <contour>
      <point x="237" y="1" type="line"/>
      <point x="149" y="1" type="line"/>
      <point x="149" y="501" type="line"/>
      <point x="217" y="501" type="line" smooth="yes"/>
      <point x="228" y="501"/>
      <point x="237" y="492"/>
      <point x="237" y="481" type="curve" smooth="yes"/>
    </contour>
    <contour>
      <point x="80" y="19" type="line"/>
      <point x="123" y="27"/>
      <point x="149" y="48"/>
      <point x="149" y="77" type="curve"/>
      <point x="149" y="1" type="line"/>
      <point x="80" y="1" type="line"/>
    </contour>
    <contour>
      <point x="80" y="483" type="line"/>
      <point x="123" y="475"/>
      <point x="149" y="454"/>
      <point x="149" y="425" type="curve"/>
      <point x="149" y="501" type="line"/>
      <point x="80" y="501" type="line"/>
    </contour>
    <contour>
      <point x="306" y="19" type="line"/>
      <point x="263" y="27"/>
      <point x="237" y="48"/>
      <point x="237" y="77" type="curve"/>
      <point x="237" y="1" type="line"/>
      <point x="306" y="1" type="line"/>
    </contour>
    <contour>
      <point x="494" y="19" type="line"/>
      <point x="537" y="27"/>
      <point x="563" y="48"/>
      <point x="563" y="77" type="curve"/>
      <point x="563" y="1" type="line"/>
      <point x="494" y="1" type="line"/>
    </contour>
    <contour>
      <point x="720" y="19" type="line"/>
      <point x="677" y="27"/>
      <point x="651" y="48"/>
      <point x="651" y="77" type="curve"/>
      <point x="651" y="1" type="line"/>
      <point x="720" y="1" type="line"/>
    </contour>
  </outline>
</glyph>
<glyph name="o" format="1">
  <advance width="780"/>
  <unicode hex="006F"/>
  <outline>
    <contour>
      <point x="431" y="512" type="curve" smooth="yes"/>
      <point x="288" y="512"/>
      <point x="83" y="418"/>
      <point x="83" y="233" type="curve" smooth="yes"/>
      <point x="83" y="122"/>
      <point x="194" y="-12"/>
      <point x="350" y="-12" type="curve" smooth="yes"/>
      <point x="515" y="-12"/>
      <point x="697" y="91"/>
      <point x="697" y="266" type="curve" smooth="yes"/>
      <point x="697" y="390"/>
      <point x="564" y="512"/>
    </contour>
    <contour>
      <point x="415" y="26" type="curve" smooth="yes"/>
      <point x="279" y="26"/>
      <point x="184" y="130"/>
      <point x="184" y="268" type="curve" smooth="yes"/>
      <point x="184" y="376"/>
      <point x="262" y="476"/>
      <point x="371" y="476" type="curve" smooth="yes"/>
      <point x="482" y="476"/>
      <point x="597" y="379"/>
      <point x="597" y="233" type="curve" smooth="yes"/>
      <point x="597" y="135"/>
      <point x="521" y="26"/>
    </contour>
  </outline>
</glyph>
<glyph name="p" format="1">
  <advance width="800"/>
  <unicode hex="0070"/>
  <outline>
    <contour>
      <point x="243" y="-220" type="line"/>
      <point x="155" y="-220" type="line"/>
      <point x="155" y="512" type="line"/>
      <point x="223" y="512" type="line" smooth="yes"/>
      <point x="234" y="512"/>
      <point x="243" y="503"/>
      <point x="243" y="492" type="curve" smooth="yes"/>
    </contour>
    <contour>
      <point x="86" y="-202" type="line"/>
      <point x="129" y="-194"/>
      <point x="155" y="-173"/>
      <point x="155" y="-144" type="curve"/>
      <point x="155" y="-220" type="line"/>
      <point x="86" y="-220" type="line"/>
    </contour>
    <contour>
      <point x="86" y="494" type="line"/>
      <point x="129" y="486"/>
      <point x="155" y="465"/>
      <point x="155" y="436" type="curve"/>
      <point x="155" y="512" type="line"/>
      <point x="86" y="512" type="line"/>
    </contour>
    <contour>
      <point x="454" y="512" type="curve" smooth="yes"/>
      <point x="588" y="512"/>
      <point x="714" y="420"/>
      <point x="714" y="277" type="curve" smooth="yes"/>
      <point x="714" y="61"/>
      <point x="544" y="-12"/>
      <point x="415" y="-12" type="curve" smooth="yes"/>
      <point x="267" y="-12"/>
      <point x="157" y="71"/>
      <point x="157" y="241" type="curve" smooth="yes"/>
      <point x="157" y="447"/>
      <point x="371" y="512"/>
    </contour>
    <contour>
      <point x="230" y="278" type="curve" smooth="yes"/>
      <point x="230" y="87"/>
      <point x="301" y="26"/>
      <point x="445" y="26" type="curve" smooth="yes"/>
      <point x="560" y="26"/>
      <point x="626" y="131"/>
      <point x="626" y="239" type="curve" smooth="yes"/>
      <point x="626" y="384"/>
      <point x="514" y="464"/>
      <point x="409" y="464" type="curve" smooth="yes"/>
      <point x="334" y="464"/>
      <point x="230" y="429"/>
    </contour>
    <contour>
      <point x="312" y="-202" type="line"/>
      <point x="269" y="-194"/>
      <point x="243" y="-173"/>
      <point x="243" y="-144" type="curve"/>
      <point x="243" y="-220" type="line"/>
      <point x="312" y="-220" type="line"/>
    </contour>
  </outline>
</glyph>
<glyph name="q" format="1">
  <advance width="800"/>
  <unicode hex="0071"/>
  <outline>
    <contour>
      <point x="577" y="512" type="curve" smooth="yes"/>
      <point x="645" y="512" type="line" smooth="yes"/>
      <point x="645" y="-220" type="line" smooth="yes"/>
      <point x="557" y="-220" type="line" smooth="yes"/>
      <point x="557" y="492" type="line" smooth="yes"/>
      <point x="557" y="503"/>
      <point x="566" y="512"/>
    </contour>
    <contour>
      <point x="714" y="494" type="line"/>
      <point x="671" y="486"/>
      <point x="645" y="465"/>
      <point x="645" y="436" type="curve"/>
      <point x="645" y="512" type="line" smooth="yes"/>
      <point x="714" y="512" type="line" smooth="yes"/>
    </contour>
    <contour>
      <point x="488" y="-202" type="line"/>
      <point x="531" y="-194"/>
      <point x="557" y="-173"/>
      <point x="557" y="-144" type="curve"/>
      <point x="557" y="-220" type="line" smooth="yes"/>
      <point x="488" y="-220" type="line" smooth="yes"/>
    </contour>
    <contour>
      <point x="714" y="-202" type="line"/>
      <point x="671" y="-194"/>
      <point x="645" y="-173"/>
      <point x="645" y="-144" type="curve"/>
      <point x="645" y="-220" type="line" smooth="yes"/>
      <point x="714" y="-220" type="line" smooth="yes"/>
    </contour>
    <contour>
      <point x="86" y="258" type="curve" smooth="yes"/>
      <point x="86" y="402"/>
      <point x="221" y="512"/>
      <point x="372" y="512" type="curve" smooth="yes"/>
      <point x="495" y="512"/>
      <point x="643" y="434"/>
      <point x="643" y="270" type="curve" smooth="yes"/>
      <point x="643" y="101"/>
      <point x="526" y="-12"/>
      <point x="378" y="-12" type="curve" smooth="yes"/>
      <point x="224" y="-12"/>
      <point x="86" y="85"/>
    </contour>
    <contour>
      <point x="570" y="345" type="line"/>
      <point x="545" y="406"/>
      <point x="465" y="469"/>
      <point x="385" y="469" type="curve" smooth="yes"/>
      <point x="274" y="469"/>
      <point x="174" y="377"/>
      <point x="174" y="266" type="curve" smooth="yes"/>
      <point x="174" y="91"/>
      <point x="281" y="20"/>
      <point x="379" y="20" type="curve" smooth="yes"/>
      <point x="487" y="20"/>
      <point x="570" y="110"/>
      <point x="570" y="160" type="curve"/>
    </contour>
  </outline>
</glyph>
<glyph name="r" format="1">
  <advance width="800"/>
  <unicode hex="0072"/>
  <outline>
    <contour>
      <point x="257" y="0" type="line" smooth="yes"/>
      <point x="169" y="0" type="line" smooth="yes"/>
      <point x="169" y="500" type="line" smooth="yes"/>
      <point x="237" y="500" type="line" smooth="yes"/>
      <point x="248" y="500"/>
      <point x="257" y="491"/>
      <point x="257" y="480" type="curve" smooth="yes"/>
    </contour>
    <contour>
      <point x="100" y="18" type="line"/>
      <point x="143" y="26"/>
      <point x="169" y="47"/>
      <point x="169" y="76" type="curve"/>
      <point x="169" y="0" type="line" smooth="yes"/>
      <point x="100" y="0" type="line" smooth="yes"/>
    </contour>
    <contour>
      <point x="100" y="482" type="line"/>
      <point x="143" y="474"/>
      <point x="169" y="453"/>
      <point x="169" y="424" type="curve"/>
      <point x="169" y="500" type="line" smooth="yes"/>
      <point x="100" y="500" type="line" smooth="yes"/>
    </contour>
    <contour>
      <point x="326" y="18" type="line"/>
      <point x="283" y="26"/>
      <point x="257" y="47"/>
      <point x="257" y="76" type="curve"/>
      <point x="257" y="0" type="line" smooth="yes"/>
      <point x="326" y="0" type="line" smooth="yes"/>
    </contour>
    <contour>
      <point x="525" y="467" type="curve" smooth="yes"/>
      <point x="543" y="467"/>
      <point x="563" y="456"/>
      <point x="567" y="452" type="curve" smooth="yes"/>
      <point x="586" y="433"/>
      <point x="559" y="435"/>
      <point x="559" y="405" type="curve" smooth="yes"/>
      <point x="559" y="382"/>
      <point x="612" y="360"/>
      <point x="650" y="360" type="curve" smooth="yes"/>
      <point x="683" y="360"/>
      <point x="700" y="386"/>
      <point x="700" y="411" type="curve" smooth="yes"/>
      <point x="700" y="472"/>
      <point x="644" y="512"/>
      <point x="574" y="512" type="curve" smooth="yes"/>
      <point x="481" y="512"/>
      <point x="347" y="463"/>
      <point x="257" y="370" type="curve"/>
      <point x="257" y="323" type="line"/>
      <point x="347" y="414"/>
      <point x="441" y="467"/>
    </contour>
  </outline>
</glyph>
<glyph name="s" format="1">
  <advance width="800"/>
  <unicode hex="0073"/>
  <outline>
    <contour>
      <point x="376" y="478" type="curve" smooth="yes"/>
      <point x="481" y="478"/>
      <point x="566" y="441"/>
      <point x="601" y="360" type="curve"/>
      <point x="630" y="360" type="line" smooth="yes"/>
      <point x="630" y="500" type="line" smooth="yes"/>
      <point x="604" y="500" type="line" smooth="yes"/>
      <point x="578" y="470" type="line"/>
      <point x="550" y="490"/>
      <point x="489" y="512"/>
      <point x="426" y="512" type="curve" smooth="yes"/>
      <point x="242" y="512"/>
      <point x="136" y="437"/>
      <point x="136" y="362" type="curve" smooth="yes"/>
      <point x="136" y="287"/>
      <point x="258" y="255"/>
      <point x="329" y="241" type="curve" smooth="yes"/>
      <point x="429" y="222"/>
      <point x="583" y="211"/>
      <point x="583" y="127" type="curve" smooth="yes"/>
      <point x="583" y="59"/>
      <point x="484" y="22"/>
      <point x="398" y="22" type="curve" smooth="yes"/>
      <point x="300" y="22"/>
      <point x="208" y="60"/>
      <point x="161" y="158" type="curve"/>
      <point x="132" y="158" type="line" smooth="yes"/>
      <point x="132" y="-12" type="line" smooth="yes"/>
      <point x="158" y="-12" type="line" smooth="yes"/>
      <point x="184" y="43" type="line"/>
      <point x="225" y="18"/>
      <point x="297" y="-12"/>
      <point x="380" y="-12" type="curve" smooth="yes"/>
      <point x="522" y="-12"/>
      <point x="668" y="41"/>
      <point x="668" y="143" type="curve" smooth="yes"/>
      <point x="668" y="256"/>
      <point x="465" y="277"/>
      <point x="369" y="296" type="curve" smooth="yes"/>
      <point x="310" y="308"/>
      <point x="222" y="324"/>
      <point x="222" y="386" type="curve" smooth="yes"/>
      <point x="222" y="437"/>
      <point x="304" y="478"/>
    </contour>
  </outline>
</glyph>
<glyph name="t" format="1">
  <advance width="800"/>
  <unicode hex="0074"/>
  <outline>
    <contour>
      <point x="623" y="437" type="line" smooth="yes"/>
      <point x="623" y="485" type="line" smooth="yes"/>
      <point x="97" y="485" type="line" smooth="yes"/>
      <point x="97" y="437" type="line" smooth="yes"/>
    </contour>
    <contour>
      <point x="421" y="-12" type="curve" smooth="yes"/>
      <point x="517" y="-13"/>
      <point x="602" y="23"/>
      <point x="678" y="112" type="curve" smooth="yes"/>
      <point x="695" y="132"/>
      <point x="616" y="146"/>
      <point x="591" y="115" type="curve" smooth="yes"/>
      <point x="553" y="68"/>
      <point x="507" y="21"/>
      <point x="449" y="21" type="curve" smooth="yes"/>
      <point x="368" y="21"/>
      <point x="323" y="65"/>
      <point x="323" y="142" type="curve" smooth="yes"/>
      <point x="323" y="675" type="line" smooth="yes"/>
      <point x="235" y="675" type="line" smooth="yes"/>
      <point x="235" y="142" type="line" smooth="yes"/>
      <point x="235" y="21"/>
      <point x="320" y="-11"/>
    </contour>
  </outline>
</glyph>
<glyph name="u" format="1">
  <advance width="800"/>
  <unicode hex="0075"/>
  <outline>
    <contour>
      <point x="277" y="-12" type="curve" smooth="yes"/>
      <point x="373" y="-12"/>
      <point x="470" y="27"/>
      <point x="563" y="80" type="curve"/>
      <point x="563" y="117" type="line"/>
      <point x="461" y="48"/>
      <point x="407" y="37"/>
      <point x="331" y="37" type="curve" smooth="yes"/>
      <point x="281" y="37"/>
      <point x="237" y="52"/>
      <point x="237" y="107" type="curve" smooth="yes"/>
      <point x="237" y="480" type="line" smooth="yes"/>
      <point x="237" y="491"/>
      <point x="228" y="500"/>
      <point x="217" y="500" type="curve" smooth="yes"/>
      <point x="149" y="500" type="line"/>
      <point x="149" y="85" type="line" smooth="yes"/>
      <point x="149" y="16"/>
      <point x="212" y="-12"/>
    </contour>
    <contour>
      <point x="563" y="500" type="line"/>
      <point x="631" y="500" type="line" smooth="yes"/>
      <point x="642" y="500"/>
      <point x="651" y="491"/>
      <point x="651" y="480" type="curve" smooth="yes"/>
      <point x="651" y="0" type="line"/>
      <point x="593" y="0" type="line" smooth="yes"/>
      <point x="576" y="0"/>
      <point x="563" y="13"/>
      <point x="563" y="30" type="curve" smooth="yes"/>
    </contour>
    <contour>
      <point x="720" y="18" type="line"/>
      <point x="677" y="26"/>
      <point x="651" y="47"/>
      <point x="651" y="76" type="curve"/>
      <point x="651" y="0" type="line"/>
      <point x="720" y="0" type="line"/>
    </contour>
    <contour>
      <point x="494" y="482" type="line"/>
      <point x="537" y="474"/>
      <point x="563" y="453"/>
      <point x="563" y="424" type="curve"/>
      <point x="563" y="500" type="line"/>
      <point x="494" y="500" type="line"/>
    </contour>
    <contour>
      <point x="80" y="482" type="line"/>
      <point x="123" y="474"/>
      <point x="149" y="453"/>
      <point x="149" y="424" type="curve"/>
      <point x="149" y="500" type="line"/>
      <point x="80" y="500" type="line"/>
    </contour>
  </outline>
</glyph>
<glyph name="v" format="1">
  <advance width="800"/>
  <unicode hex="0076"/>
  <outline>
    <contour>
      <point x="393" y="-12" type="line" smooth="yes"/>
      <point x="436" y="-12" type="line" smooth="yes"/>
      <point x="606" y="425" type="line" smooth="yes"/>
      <point x="622" y="465"/>
      <point x="681" y="476"/>
      <point x="720" y="482" type="curve"/>
      <point x="720" y="500" type="line" smooth="yes"/>
      <point x="526" y="500" type="line" smooth="yes"/>
      <point x="526" y="482" type="line"/>
      <point x="571" y="476"/>
      <point x="578" y="467"/>
      <point x="562" y="425" type="curve" smooth="yes"/>
    </contour>
    <contour>
      <point x="433" y="45" type="line" smooth="yes"/>
      <point x="279" y="425" type="line" smooth="yes"/>
      <point x="260" y="471"/>
      <point x="263.0" y="483.0"/>
      <point x="312.0" y="483.0" type="curve"/>
      <point x="312.0" y="500.0" type="line" smooth="yes"/>
      <point x="80.0" y="500.0" type="line" smooth="yes"/>
      <point x="80.0" y="482.0" type="line"/>
      <point x="127.0" y="480.0"/>
      <point x="169.0" y="471.0"/>
      <point x="188.0" y="425.0" type="curve" smooth="yes"/>
      <point x="365.0" y="-12.0" type="line" smooth="yes"/>
      <point x="433" y="-12" type="line" smooth="yes"/>
    </contour>
  </outline>
</glyph>
<glyph name="w" format="1">
  <advance width="800"/>
  <unicode hex="0077"/>
  <outline>
    <contour>
      <point x="285" y="-12" type="line" smooth="yes"/>
      <point x="433" y="500" type="line" smooth="yes"/>
      <point x="390" y="500" type="line" smooth="yes"/>
      <point x="242" y="-12" type="line" smooth="yes"/>
    </contour>
    <contour>
      <point x="397" y="500" type="line" smooth="yes"/>
      <point x="397" y="400" type="line" smooth="yes"/>
      <point x="517" y="-12" type="line" smooth="yes"/>
      <point x="585" y="-12" type="line" smooth="yes"/>
      <point x="585" y="35" type="line" smooth="yes"/>
      <point x="449" y="500" type="line" smooth="yes"/>
    </contour>
    <contour>
      <point x="280" y="-12" type="line" smooth="yes"/>
      <point x="280" y="35" type="line" smooth="yes"/>
      <point x="167.0" y="426.0" type="line" smooth="yes"/>
      <point x="155" y="467"/>
      <point x="169.0" y="483.0"/>
      <point x="209.0" y="483.0" type="curve"/>
      <point x="209.0" y="500.0" type="line" smooth="yes"/>
      <point x="0.0" y="500.0" type="line" smooth="yes"/>
      <point x="0.0" y="482.0" type="line"/>
      <point x="47.0" y="480.0"/>
      <point x="71" y="473"/>
      <point x="85.0" y="426.0" type="curve" smooth="yes"/>
      <point x="212" y="-12" type="line" smooth="yes"/>
    </contour>
    <contour>
      <point x="590" y="-12" type="line" smooth="yes"/>
      <point x="716" y="425" type="line" smooth="yes"/>
      <point x="728" y="466"/>
      <point x="761" y="476"/>
      <point x="800" y="482" type="curve"/>
      <point x="800" y="500" type="line" smooth="yes"/>
      <point x="636" y="500" type="line" smooth="yes"/>
      <point x="636" y="482" type="line"/>
      <point x="681" y="476"/>
      <point x="685" y="468"/>
      <point x="673" y="425" type="curve" smooth="yes"/>
      <point x="547" y="-12" type="line" smooth="yes"/>
    </contour>
  </outline>
</glyph>
<glyph name="x" format="1">
  <advance width="800"/>
  <unicode hex="0078"/>
  <outline>
    <contour>
      <point x="510" y="75" type="line" smooth="yes"/>
      <point x="550" y="32"/>
      <point x="527" y="17"/>
      <point x="478" y="17" type="curve"/>
      <point x="478" y="0" type="line" smooth="yes"/>
      <point x="724" y="0" type="line" smooth="yes"/>
      <point x="724" y="18" type="line"/>
      <point x="677" y="20"/>
      <point x="646" y="42"/>
      <point x="616" y="75" type="curve" smooth="yes"/>
      <point x="290" y="425" type="line" smooth="yes"/>
      <point x="250" y="468"/>
      <point x="273" y="483"/>
      <point x="322" y="483" type="curve"/>
      <point x="322" y="500" type="line" smooth="yes"/>
      <point x="76" y="500" type="line" smooth="yes"/>
      <point x="76" y="482" type="line"/>
      <point x="123" y="480"/>
      <point x="154" y="458"/>
      <point x="184" y="425" type="curve" smooth="yes"/>
    </contour>
    <contour>
      <point x="190" y="75" type="line" smooth="yes"/>
      <point x="158" y="43"/>
      <point x="115" y="24"/>
      <point x="76" y="18" type="curve"/>
      <point x="76" y="0" type="line" smooth="yes"/>
      <point x="270" y="0" type="line" smooth="yes"/>
      <point x="270" y="18" type="line"/>
      <point x="225" y="24"/>
      <point x="202" y="42"/>
      <point x="234" y="75" type="curve" smooth="yes"/>
      <point x="390" y="236" type="line" smooth="yes"/>
      <point x="369" y="257" type="line" smooth="yes"/>
    </contour>
    <contour>
      <point x="610" y="425" type="line" smooth="yes"/>
      <point x="642" y="457"/>
      <point x="685" y="476"/>
      <point x="724" y="482" type="curve"/>
      <point x="724" y="500" type="line" smooth="yes"/>
      <point x="530" y="500" type="line" smooth="yes"/>
      <point x="530" y="482" type="line"/>
      <point x="575" y="476"/>
      <point x="598" y="458"/>
      <point x="566" y="425" type="curve" smooth="yes"/>
      <point x="410" y="264" type="line" smooth="yes"/>
      <point x="431" y="243" type="line" smooth="yes"/>
    </contour>
  </outline>
</glyph>
<glyph name="y" format="1">
  <advance width="800"/>
  <unicode hex="0079"/>
  <outline>
    <contour>
      <point x="430" y="100" type="line" smooth="yes"/>
      <point x="276" y="425" type="line" smooth="yes"/>
      <point x="250" y="480"/>
      <point x="259" y="483"/>
      <point x="308" y="483" type="curve"/>
      <point x="308" y="500" type="line" smooth="yes"/>
      <point x="76.0" y="500.0" type="line" smooth="yes"/>
      <point x="76.0" y="482.0" type="line"/>
      <point x="123.0" y="480.0"/>
      <point x="166" y="463"/>
      <point x="184.0" y="425.0" type="curve" smooth="yes"/>
      <point x="378" y="7" type="line" smooth="yes"/>
    </contour>
    <contour>
      <point x="121" y="-155" type="curve" smooth="yes"/>
      <point x="121" y="-193"/>
      <point x="157" y="-220"/>
      <point x="192" y="-220" type="curve" smooth="yes"/>
      <point x="260" y="-220"/>
      <point x="327" y="-172"/>
      <point x="363" y="-95" type="curve" smooth="yes"/>
      <point x="610" y="425" type="line" smooth="yes"/>
      <point x="628" y="464"/>
      <point x="685" y="476"/>
      <point x="724" y="482" type="curve"/>
      <point x="724" y="500" type="line" smooth="yes"/>
      <point x="530" y="500" type="line" smooth="yes"/>
      <point x="530" y="482" type="line"/>
      <point x="575" y="476"/>
      <point x="585" y="466"/>
      <point x="566" y="425" type="curve" smooth="yes"/>
      <point x="319" y="-95" type="line" smooth="yes"/>
      <point x="301" y="-133"/>
      <point x="280" y="-154"/>
      <point x="254" y="-154" type="curve" smooth="yes"/>
      <point x="233" y="-154"/>
      <point x="225" y="-108"/>
      <point x="167" y="-108" type="curve" smooth="yes"/>
      <point x="136" y="-108"/>
      <point x="121" y="-131"/>
    </contour>
  </outline>
</glyph>
<glyph name="z" format="1">
  <advance width="800"/>
  <unicode hex="007A"/>
  <outline>
    <contour>
      <point x="102" y="0" type="line" smooth="yes"/>
      <point x="217" y="0" type="line" smooth="yes"/>
      <point x="216" y="33" type="line" smooth="yes"/>
      <point x="633" y="467" type="line" smooth="yes"/>
      <point x="633" y="500" type="line" smooth="yes"/>
      <point x="519" y="500" type="line" smooth="yes"/>
      <point x="519" y="467" type="line" smooth="yes"/>
      <point x="102" y="33" type="line" smooth="yes"/>
    </contour>
    <contour>
      <point x="114" y="360" type="line" smooth="yes"/>
      <point x="150" y="360" type="line"/>
      <point x="180" y="455"/>
      <point x="248" y="467"/>
      <point x="341" y="467" type="curve"/>
      <point x="620" y="467" type="line" smooth="yes"/>
      <point x="620" y="500" type="line" smooth="yes"/>
      <point x="152" y="500" type="line" smooth="yes"/>
    </contour>
    <contour>
      <point x="698" y="180" type="line" smooth="yes"/>
      <point x="662" y="180" type="line"/>
      <point x="633" y="69"/>
      <point x="550" y="33"/>
      <point x="457" y="33" type="curve"/>
      <point x="138" y="33" type="line" smooth="yes"/>
      <point x="138" y="0" type="line" smooth="yes"/>
      <point x="646" y="0" type="line" smooth="yes"/>
    </contour>
  </outline>
</glyph>
<glyph name="braceleft" format="1">
  <advance width="800"/>
  <unicode hex="007B"/>
  <outline>
    <contour>
      <point x="166" y="250" type="line"/>
      <point x="308" y="250"/>
      <point x="489" y="279"/>
      <point x="489" y="392" type="curve" smooth="yes"/>
      <point x="489" y="442"/>
      <point x="451" y="499"/>
      <point x="451" y="550" type="curve" smooth="yes"/>
      <point x="451" y="630"/>
      <point x="544" y="655"/>
      <point x="634" y="655" type="curve"/>
      <point x="634" y="692" type="line"/>
      <point x="513" y="692"/>
      <point x="361" y="648"/>
      <point x="361" y="546" type="curve" smooth="yes"/>
      <point x="361" y="489"/>
      <point x="398" y="447"/>
      <point x="398" y="389" type="curve" smooth="yes"/>
      <point x="398" y="304"/>
      <point x="305" y="294"/>
      <point x="166" y="273" type="curve"/>
    </contour>
    <contour>
      <point x="166" y="227" type="line"/>
      <point x="290" y="227" type="line"/>
      <point x="290" y="272" type="line"/>
      <point x="166" y="272" type="line"/>
    </contour>
    <contour>
      <point x="166" y="250" type="curve"/>
      <point x="166" y="227" type="line"/>
      <point x="305" y="206"/>
      <point x="398" y="196"/>
      <point x="398" y="111" type="curve" smooth="yes"/>
      <point x="398" y="53"/>
      <point x="361" y="11"/>
      <point x="361" y="-46" type="curve" smooth="yes"/>
      <point x="361" y="-148"/>
      <point x="513" y="-192"/>
      <point x="634" y="-192" type="curve"/>
      <point x="634" y="-155" type="line"/>
      <point x="544" y="-155"/>
      <point x="451" y="-130"/>
      <point x="451" y="-50" type="curve" smooth="yes"/>
      <point x="451" y="1"/>
      <point x="489" y="58"/>
      <point x="489" y="108" type="curve" smooth="yes"/>
      <point x="489" y="221"/>
      <point x="308" y="250"/>
    </contour>
  </outline>
</glyph>
<glyph name="braceright" format="1">
  <advance width="800"/>
  <unicode hex="007D"/>
  <outline>
    <contour>
      <point x="634" y="292" type="line"/>
      <point x="492" y="292"/>
      <point x="311" y="262"/>
      <point x="311" y="145" type="curve" smooth="yes"/>
      <point x="311" y="93"/>
      <point x="349" y="25"/>
      <point x="349" y="-28" type="curve" smooth="yes"/>
      <point x="349" y="-110"/>
      <point x="256" y="-131"/>
      <point x="166" y="-131" type="curve"/>
      <point x="166" y="-164" type="line"/>
      <point x="287" y="-164"/>
      <point x="439" y="-118"/>
      <point x="439" y="-13" type="curve" smooth="yes"/>
      <point x="439" y="46"/>
      <point x="402" y="89"/>
      <point x="402" y="149" type="curve" smooth="yes"/>
      <point x="402" y="237"/>
      <point x="495" y="248"/>
      <point x="634" y="269" type="curve"/>
    </contour>
    <contour>
      <point x="634" y="292" type="curve"/>
      <point x="634" y="316" type="line"/>
      <point x="495" y="337"/>
      <point x="402" y="348"/>
      <point x="402" y="437" type="curve" smooth="yes"/>
      <point x="402" y="497"/>
      <point x="439" y="539"/>
      <point x="439" y="599" type="curve" smooth="yes"/>
      <point x="439" y="704"/>
      <point x="287" y="750"/>
      <point x="166" y="750" type="curve"/>
      <point x="166" y="717" type="line"/>
      <point x="256" y="717"/>
      <point x="349" y="696"/>
      <point x="349" y="614" type="curve" smooth="yes"/>
      <point x="349" y="561"/>
      <point x="311" y="493"/>
      <point x="311" y="441" type="curve" smooth="yes"/>
      <point x="311" y="322"/>
      <point x="492" y="292"/>
    </contour>
    <contour>
      <point x="634" y="269" type="line"/>
      <point x="634" y="316" type="line"/>
      <point x="512" y="316" type="line"/>
      <point x="512" y="269" type="line"/>
    </contour>
  </outline>
</glyph>
<glyph name="Aring" format="1">
  <advance width="800"/>
  <unicode hex="00C5"/>
  <outline>
    <contour>
      <point x="534" y="240" type="line" smooth="yes"/>
      <point x="534" y="274" type="line" smooth="yes"/>
      <point x="215" y="274" type="line" smooth="yes"/>
      <point x="215" y="240" type="line" smooth="yes"/>
    </contour>
    <contour>
      <point x="239" y="18" type="line"/>
      <point x="194" y="24"/>
      <point x="142" y="34"/>
      <point x="159" y="75" type="curve" smooth="yes"/>
      <point x="424" y="700" type="line" smooth="yes"/>
      <point x="391" y="700" type="line" smooth="yes"/>
      <point x="125" y="75" type="line" smooth="yes"/>
      <point x="108" y="34"/>
      <point x="70" y="24"/>
      <point x="31" y="18" type="curve"/>
      <point x="31" y="0" type="line" smooth="yes"/>
      <point x="239" y="0" type="line" smooth="yes"/>
    </contour>
    <contour>
      <point x="371" y="608" type="line" smooth="yes"/>
      <point x="597" y="75" type="line" smooth="yes"/>
      <point x="611" y="42"/>
      <point x="579" y="26"/>
      <point x="537" y="18" type="curve"/>
      <point x="537" y="0" type="line" smooth="yes"/>
      <point x="769" y="0" type="line" smooth="yes"/>
      <point x="769" y="18" type="line"/>
      <point x="719" y="28"/>
      <point x="702" y="45"/>
      <point x="689" y="75" type="curve" smooth="yes"/>
      <point x="424" y="700" type="line" smooth="yes"/>
    </contour>
  </outline>
</glyph>
<glyph name="quoteleft" format="1">
  <advance width="800"/>
  <unicode hex="2018"/>
  <outline>
    <contour>
      <point x="394" y="452" type="curve" smooth="yes"/>
      <point x="430" y="452"/>
      <point x="460" y="480"/>
      <point x="460" y="513" type="curve" smooth="yes"/>
      <point x="460" y="547"/>
      <point x="433" y="573"/>
      <point x="399" y="573" type="curve" smooth="yes"/>
      <point x="389" y="573"/>
      <point x="385" y="572"/>
      <point x="378" y="568" type="curve"/>
      <point x="378" y="625"/>
      <point x="475" y="667"/>
      <point x="475" y="667" type="curve"/>
      <point x="460" y="692" type="line"/>
      <point x="379" y="657"/>
      <point x="325" y="616"/>
      <point x="325" y="520" type="curve" smooth="yes"/>
      <point x="325" y="484"/>
      <point x="356" y="452"/>
    </contour>
  </outline>
</glyph>
<glyph name="numero" format="1">
  <advance width="800"/>
  <unicode hex="2116"/>
  <outline>
    <contour>
      <point x="169" y="0" type="line" smooth="yes"/>
      <point x="121" y="0" type="line" smooth="yes"/>
      <point x="121" y="660" type="line" smooth="yes"/>
      <point x="169" y="660" type="line" smooth="yes"/>
    </contour>
    <contour>
      <point x="52" y="18" type="line"/>
      <point x="95" y="26"/>
      <point x="121" y="47"/>
      <point x="121" y="76" type="curve"/>
      <point x="121" y="0" type="line" smooth="yes"/>
      <point x="52" y="0" type="line" smooth="yes"/>
    </contour>
    <contour>
      <point x="52" y="642" type="curve"/>
      <point x="52" y="660" type="line" smooth="yes"/>
      <point x="121" y="660" type="line" smooth="yes"/>
      <point x="121" y="584" type="line"/>
      <point x="121" y="613"/>
      <point x="95" y="634"/>
    </contour>
    <contour>
      <point x="238" y="18" type="line"/>
      <point x="195" y="26"/>
      <point x="169" y="47"/>
      <point x="169" y="76" type="curve"/>
      <point x="169" y="0" type="line" smooth="yes"/>
      <point x="238" y="0" type="line" smooth="yes"/>
    </contour>
    <contour>
      <point x="613" y="0" type="line" smooth="yes"/>
      <point x="565" y="0" type="line" smooth="yes"/>
      <point x="565" y="360" type="line" smooth="yes"/>
      <point x="613" y="360" type="line" smooth="yes"/>
    </contour>
    <contour>
      <point x="496" y="342" type="line"/>
      <point x="539" y="334"/>
      <point x="565" y="313"/>
      <point x="565" y="284" type="curve"/>
      <point x="565" y="360" type="line" smooth="yes"/>
      <point x="496" y="360" type="line" smooth="yes"/>
    </contour>
    <contour>
      <point x="682" y="342" type="line"/>
      <point x="639" y="334"/>
      <point x="613" y="313"/>
      <point x="613" y="284" type="curve"/>
      <point x="613" y="360" type="line" smooth="yes"/>
      <point x="682" y="360" type="line" smooth="yes"/>
    </contour>
    <contour>
      <point x="530" y="0" type="line"/>
      <point x="99" y="660" type="line"/>
      <point x="204" y="660" type="line"/>
      <point x="601" y="45" type="line" smooth="yes"/>
      <point x="601" y="0" type="line" smooth="yes"/>
    </contour>
    <contour>
      <point x="682" y="527" type="curve" smooth="yes"/>
      <point x="682" y="476"/>
      <point x="646" y="425"/>
      <point x="601" y="425" type="curve" smooth="yes"/>
      <point x="537" y="425"/>
      <point x="496" y="472"/>
      <point x="496" y="543" type="curve" smooth="yes"/>
      <point x="496" y="594"/>
      <point x="532" y="645"/>
      <point x="577" y="645" type="curve" smooth="yes"/>
      <point x="641" y="645"/>
      <point x="682" y="598"/>
    </contour>
    <contour>
      <point x="429" y="526" type="curve" smooth="yes"/>
      <point x="429" y="456"/>
      <point x="500" y="398"/>
      <point x="570" y="398" type="curve" smooth="yes"/>
      <point x="665" y="398"/>
      <point x="749" y="449"/>
      <point x="749" y="544" type="curve" smooth="yes"/>
      <point x="749" y="614"/>
      <point x="678" y="672"/>
      <point x="608" y="672" type="curve" smooth="yes"/>
      <point x="513" y="672"/>
      <point x="429" y="621"/>
    </contour>
  </outline>
</glyph>
<glyph name="A2" format="1">
  <advance width="800"/>
  <outline>
    <contour>
      <point x="417" y="700" type="line" smooth="yes"/>
      <point x="416" y="700" type="line" smooth="yes"/>
      <point x="416" y="698" type="line" smooth="yes"/>
    </contour>
    <contour>
      <point x="371" y="580" type="line" smooth="yes"/>
      <point x="416" y="698" type="line" smooth="yes"/>
      <point x="416" y="700" type="line" smooth="yes"/>
      <point x="384" y="700" type="line" smooth="yes"/>
      <point x="139" y="63" type="line" smooth="yes"/>
      <point x="130" y="39"/>
      <point x="87" y="25"/>
      <point x="50" y="18" type="curve"/>
      <point x="50" y="0" type="line" smooth="yes"/>
      <point x="258" y="0" type="line" smooth="yes"/>
      <point x="258" y="18" type="line"/>
      <point x="217" y="26"/>
      <point x="162" y="37"/>
      <point x="176" y="73" type="curve" smooth="yes"/>
    </contour>
    <contour>
      <point x="669" y="81" type="curve" smooth="yes"/>
      <point x="416" y="698" type="line" smooth="yes"/>
      <point x="371" y="580" type="line" smooth="yes"/>
      <point x="577" y="76" type="line" smooth="yes"/>
      <point x="590" y="43"/>
      <point x="561" y="26"/>
      <point x="518" y="18" type="curve"/>
      <point x="518" y="0" type="line" smooth="yes"/>
      <point x="750" y="0" type="line" smooth="yes"/>
      <point x="750" y="18" type="line"/>
      <point x="697" y="28"/>
      <point x="683" y="47"/>
    </contour>
    <contour>
      <point x="546" y="241" type="line" smooth="yes"/>
      <point x="546" y="275" type="line" smooth="yes"/>
      <point x="227" y="275" type="line" smooth="yes"/>
      <point x="227" y="241" type="line" smooth="yes"/>
    </contour>
  </outline>
</glyph>
<glyph name="D2" format="1">
  <advance width="800"/>
  <outline>
    <contour>
      <point x="213" y="0" type="line" smooth="yes"/>
      <point x="125" y="0" type="line" smooth="yes"/>
      <point x="125" y="700" type="line" smooth="yes"/>
      <point x="213" y="700" type="line" smooth="yes"/>
    </contour>
    <contour>
      <point x="56" y="18" type="line"/>
      <point x="99" y="26"/>
      <point x="125" y="47"/>
      <point x="125" y="76" type="curve"/>
      <point x="125" y="0" type="line" smooth="yes"/>
      <point x="56" y="0" type="line" smooth="yes"/>
    </contour>
    <contour>
      <point x="56" y="682" type="line"/>
      <point x="99" y="674"/>
      <point x="125" y="653"/>
      <point x="125" y="624" type="curve"/>
      <point x="125" y="700" type="line" smooth="yes"/>
      <point x="56" y="700" type="line" smooth="yes"/>
    </contour>
    <contour>
      <point x="430" y="700" type="curve" smooth="yes"/>
      <point x="213" y="700" type="line" smooth="yes"/>
      <point x="213" y="663" type="line" smooth="yes"/>
      <point x="354" y="663" type="line" smooth="yes"/>
      <point x="517" y="663"/>
      <point x="645" y="515"/>
      <point x="645" y="334" type="curve" smooth="yes"/>
      <point x="645" y="218"/>
      <point x="562" y="33"/>
      <point x="406" y="33" type="curve"/>
      <point x="213" y="33" type="line" smooth="yes"/>
      <point x="213" y="0" type="line"/>
      <point x="368" y="0" type="line" smooth="yes"/>
      <point x="560" y="0"/>
      <point x="745" y="140"/>
      <point x="745" y="366" type="curve" smooth="yes"/>
      <point x="745" y="544"/>
      <point x="604" y="700"/>
    </contour>
  </outline>
</glyph>
<glyph name="E2" format="1">
  <advance width="800"/>
  <outline>
    <contour>
      <point x="217" y="0" type="line" smooth="yes"/>
      <point x="129" y="0" type="line" smooth="yes"/>
      <point x="129" y="660" type="line" smooth="yes"/>
      <point x="217" y="660" type="line" smooth="yes"/>
    </contour>
    <contour>
      <point x="60" y="18" type="line"/>
      <point x="103" y="26"/>
      <point x="129" y="47"/>
      <point x="129" y="76" type="curve"/>
      <point x="129" y="0" type="line" smooth="yes"/>
      <point x="60" y="0" type="line" smooth="yes"/>
    </contour>
    <contour>
      <point x="60" y="642" type="line"/>
      <point x="103" y="634"/>
      <point x="129" y="613"/>
      <point x="129" y="584" type="curve"/>
      <point x="129" y="660" type="line" smooth="yes"/>
      <point x="60" y="660" type="line" smooth="yes"/>
    </contour>
    <contour>
      <point x="552" y="354" type="line" smooth="yes"/>
      <point x="217" y="354" type="line" smooth="yes"/>
      <point x="217" y="317" type="line" smooth="yes"/>
      <point x="552" y="317" type="line" smooth="yes"/>
    </contour>
    <contour>
      <point x="528" y="423" type="line"/>
      <point x="520" y="380"/>
      <point x="499" y="354"/>
      <point x="470" y="354" type="curve"/>
      <point x="552" y="354" type="line" smooth="yes"/>
      <point x="552" y="423" type="line" smooth="yes"/>
    </contour>
    <contour>
      <point x="528" y="248" type="line"/>
      <point x="520" y="291"/>
      <point x="499" y="317"/>
      <point x="470" y="317" type="curve"/>
      <point x="552" y="317" type="line" smooth="yes"/>
      <point x="552" y="248" type="line" smooth="yes"/>
    </contour>
    <contour>
      <point x="499" y="37" type="curve" smooth="yes"/>
      <point x="217" y="37" type="line" smooth="yes"/>
      <point x="217" y="0" type="line" smooth="yes"/>
      <point x="688" y="0" type="line"/>
      <point x="740" y="184" type="line" smooth="yes"/>
      <point x="704" y="184" type="line"/>
      <point x="675" y="73"/>
      <point x="592" y="37"/>
    </contour>
    <contour>
      <point x="451" y="623" type="line" smooth="yes"/>
      <point x="544" y="623"/>
      <point x="612" y="611"/>
      <point x="642" y="516" type="curve"/>
      <point x="678" y="516" type="line" smooth="yes"/>
      <point x="640" y="660" type="line" smooth="yes"/>
      <point x="217" y="660" type="line" smooth="yes"/>
      <point x="217" y="623" type="line" smooth="yes"/>
    </contour>
  </outline>
</glyph>
<glyph name="F1" format="1">
  <advance width="800"/>
  <outline>
    <contour>
      <point x="242" y="0" type="line" smooth="yes"/>
      <point x="154" y="0" type="line" smooth="yes"/>
      <point x="154" y="660" type="line" smooth="yes"/>
      <point x="242" y="660" type="line" smooth="yes"/>
    </contour>
    <contour>
      <point x="85" y="18" type="line"/>
      <point x="128" y="26"/>
      <point x="154" y="47"/>
      <point x="154" y="76" type="curve"/>
      <point x="154" y="0" type="line" smooth="yes"/>
      <point x="85" y="0" type="line" smooth="yes"/>
    </contour>
    <contour>
      <point x="85" y="642" type="line"/>
      <point x="128" y="634"/>
      <point x="154" y="613"/>
      <point x="154" y="584" type="curve"/>
      <point x="154" y="660" type="line" smooth="yes"/>
      <point x="85" y="660" type="line" smooth="yes"/>
    </contour>
    <contour>
      <point x="550" y="354" type="line" smooth="yes"/>
      <point x="242" y="354" type="line" smooth="yes"/>
      <point x="242" y="317" type="line" smooth="yes"/>
      <point x="550" y="317" type="line" smooth="yes"/>
    </contour>
    <contour>
      <point x="636" y="660" type="line" smooth="yes"/>
      <point x="242" y="660" type="line" smooth="yes"/>
      <point x="242" y="623" type="line" smooth="yes"/>
      <point x="402" y="623" type="line" smooth="yes"/>
      <point x="555" y="623"/>
      <point x="602" y="613"/>
      <point x="637" y="513" type="curve"/>
      <point x="655" y="513" type="line" smooth="yes"/>
    </contour>
    <contour>
      <point x="532" y="423" type="line"/>
      <point x="524" y="380"/>
      <point x="503" y="354"/>
      <point x="474" y="354" type="curve"/>
      <point x="550" y="354" type="line" smooth="yes"/>
      <point x="550" y="423" type="line" smooth="yes"/>
    </contour>
    <contour>
      <point x="532" y="248" type="line"/>
      <point x="524" y="291"/>
      <point x="503" y="317"/>
      <point x="474" y="317" type="curve"/>
      <point x="550" y="317" type="line" smooth="yes"/>
      <point x="550" y="248" type="line" smooth="yes"/>
    </contour>
    <contour>
      <point x="311" y="18" type="line"/>
      <point x="268" y="26"/>
      <point x="242" y="47"/>
      <point x="242" y="76" type="curve"/>
      <point x="242" y="0" type="line" smooth="yes"/>
      <point x="311" y="0" type="line" smooth="yes"/>
    </contour>
  </outline>
</glyph>
<glyph name="G1" format="1">
  <advance width="800"/>
  <outline>
    <contour>
      <point x="550" y="265" type="line"/>
      <point x="593" y="257"/>
      <point x="619" y="236"/>
      <point x="619" y="207" type="curve"/>
      <point x="619" y="283" type="line" smooth="yes"/>
      <point x="550" y="283" type="line" smooth="yes"/>
    </contour>
    <contour>
      <point x="776" y="265" type="line"/>
      <point x="733" y="257"/>
      <point x="707" y="236"/>
      <point x="707" y="207" type="curve"/>
      <point x="707" y="283" type="line" smooth="yes"/>
      <point x="776" y="283" type="line" smooth="yes"/>
    </contour>
    <contour>
      <point x="708" y="114" type="curve"/>
      <point x="707" y="283" type="line" smooth="yes"/>
      <point x="619" y="283" type="line" smooth="yes"/>
      <point x="619" y="97" type="line"/>
      <point x="568" y="45"/>
      <point x="505" y="22"/>
      <point x="442" y="22" type="curve" smooth="yes"/>
      <point x="298" y="22"/>
      <point x="156" y="149"/>
      <point x="156" y="353" type="curve" smooth="yes"/>
      <point x="156" y="547"/>
      <point x="282" y="633"/>
      <point x="410" y="633" type="curve" smooth="yes"/>
      <point x="532" y="633"/>
      <point x="656" y="556"/>
      <point x="679" y="420" type="curve"/>
      <point x="708" y="420" type="line" smooth="yes"/>
      <point x="708" y="650" type="line"/>
      <point x="682" y="650" type="line"/>
      <point x="655" y="617" type="line"/>
      <point x="620" y="652"/>
      <point x="547" y="672"/>
      <point x="463" y="672" type="curve" smooth="yes"/>
      <point x="284" y="672"/>
      <point x="57" y="577"/>
      <point x="57" y="318" type="curve" smooth="yes"/>
      <point x="57" y="90"/>
      <point x="236" y="-12"/>
      <point x="413" y="-12" type="curve" smooth="yes"/>
      <point x="529" y="-12"/>
      <point x="643" y="31"/>
    </contour>
  </outline>
</glyph>
<glyph name="H1" format="1">
  <advance width="800"/>
  <outline>
    <contour>
      <point x="194" y="0" type="line" smooth="yes"/>
      <point x="106" y="0" type="line" smooth="yes"/>
      <point x="106" y="660" type="line" smooth="yes"/>
      <point x="194" y="660" type="line" smooth="yes"/>
    </contour>
    <contour>
      <point x="37" y="18" type="line"/>
      <point x="80" y="26"/>
      <point x="106" y="47"/>
      <point x="106" y="76" type="curve"/>
      <point x="106" y="0" type="line" smooth="yes"/>
      <point x="37" y="0" type="line" smooth="yes"/>
    </contour>
    <contour>
      <point x="37" y="642" type="line"/>
      <point x="80" y="634"/>
      <point x="106" y="613"/>
      <point x="106" y="584" type="curve"/>
      <point x="106" y="660" type="line" smooth="yes"/>
      <point x="37" y="660" type="line" smooth="yes"/>
    </contour>
    <contour>
      <point x="263" y="18" type="line"/>
      <point x="220" y="26"/>
      <point x="194" y="47"/>
      <point x="194" y="76" type="curve"/>
      <point x="194" y="0" type="line" smooth="yes"/>
      <point x="263" y="0" type="line" smooth="yes"/>
    </contour>
    <contour>
      <point x="263" y="642" type="line"/>
      <point x="220" y="634"/>
      <point x="194" y="613"/>
      <point x="194" y="584" type="curve"/>
      <point x="194" y="660" type="line" smooth="yes"/>
      <point x="263" y="660" type="line" smooth="yes"/>
    </contour>
    <contour>
      <point x="694" y="0" type="line" smooth="yes"/>
      <point x="606" y="0" type="line" smooth="yes"/>
      <point x="606" y="660" type="line" smooth="yes"/>
      <point x="694" y="660" type="line" smooth="yes"/>
    </contour>
    <contour>
      <point x="537" y="18" type="line"/>
      <point x="580" y="26"/>
      <point x="606" y="47"/>
      <point x="606" y="76" type="curve"/>
      <point x="606" y="0" type="line" smooth="yes"/>
      <point x="537" y="0" type="line" smooth="yes"/>
    </contour>
    <contour>
      <point x="537" y="642" type="line"/>
      <point x="580" y="634"/>
      <point x="606" y="613"/>
      <point x="606" y="584" type="curve"/>
      <point x="606" y="660" type="line" smooth="yes"/>
      <point x="537" y="660" type="line" smooth="yes"/>
    </contour>
    <contour>
      <point x="763" y="18" type="line"/>
      <point x="720" y="26"/>
      <point x="694" y="47"/>
      <point x="694" y="76" type="curve"/>
      <point x="694" y="0" type="line" smooth="yes"/>
      <point x="763" y="0" type="line" smooth="yes"/>
    </contour>
    <contour>
      <point x="763" y="642" type="line"/>
      <point x="720" y="634"/>
      <point x="694" y="613"/>
      <point x="694" y="584" type="curve"/>
      <point x="694" y="660" type="line" smooth="yes"/>
      <point x="763" y="660" type="line" smooth="yes"/>
    </contour>
    <contour>
      <point x="619" y="331" type="line" smooth="yes"/>
      <point x="164" y="331" type="line" smooth="yes"/>
      <point x="164" y="368" type="line" smooth="yes"/>
      <point x="619" y="368" type="line" smooth="yes"/>
    </contour>
  </outline>
</glyph>
<glyph name="H2" format="1">
  <advance width="800"/>
  <outline>
    <contour>
      <point x="194" y="0" type="line" smooth="yes"/>
      <point x="106" y="0" type="line" smooth="yes"/>
      <point x="106" y="700" type="line" smooth="yes"/>
      <point x="194" y="700" type="line" smooth="yes"/>
    </contour>
    <contour>
      <point x="37" y="18" type="line"/>
      <point x="80" y="26"/>
      <point x="106" y="47"/>
      <point x="106" y="76" type="curve"/>
      <point x="106" y="0" type="line" smooth="yes"/>
      <point x="37" y="0" type="line" smooth="yes"/>
    </contour>
    <contour>
      <point x="37" y="682" type="line"/>
      <point x="80" y="674"/>
      <point x="106" y="653"/>
      <point x="106" y="624" type="curve"/>
      <point x="106" y="700" type="line" smooth="yes"/>
      <point x="37" y="700" type="line" smooth="yes"/>
    </contour>
    <contour>
      <point x="263" y="18" type="line"/>
      <point x="220" y="26"/>
      <point x="194" y="47"/>
      <point x="194" y="76" type="curve"/>
      <point x="194" y="0" type="line" smooth="yes"/>
      <point x="263" y="0" type="line" smooth="yes"/>
    </contour>
    <contour>
      <point x="263" y="682" type="line"/>
      <point x="220" y="674"/>
      <point x="194" y="653"/>
      <point x="194" y="624" type="curve"/>
      <point x="194" y="700" type="line" smooth="yes"/>
      <point x="263" y="700" type="line" smooth="yes"/>
    </contour>
    <contour>
      <point x="695" y="0" type="line" smooth="yes"/>
      <point x="607" y="0" type="line" smooth="yes"/>
      <point x="607" y="700" type="line" smooth="yes"/>
      <point x="695" y="700" type="line" smooth="yes"/>
    </contour>
    <contour>
      <point x="538" y="18" type="line"/>
      <point x="581" y="26"/>
      <point x="607" y="47"/>
      <point x="607" y="76" type="curve"/>
      <point x="607" y="0" type="line" smooth="yes"/>
      <point x="538" y="0" type="line" smooth="yes"/>
    </contour>
    <contour>
      <point x="538" y="682" type="line"/>
      <point x="581" y="674"/>
      <point x="607" y="653"/>
      <point x="607" y="624" type="curve"/>
      <point x="607" y="700" type="line" smooth="yes"/>
      <point x="538" y="700" type="line" smooth="yes"/>
    </contour>
    <contour>
      <point x="764" y="18" type="line"/>
      <point x="721" y="26"/>
      <point x="695" y="47"/>
      <point x="695" y="76" type="curve"/>
      <point x="695" y="0" type="line" smooth="yes"/>
      <point x="764" y="0" type="line" smooth="yes"/>
    </contour>
    <contour>
      <point x="764" y="682" type="line"/>
      <point x="721" y="674"/>
      <point x="695" y="653"/>
      <point x="695" y="624" type="curve"/>
      <point x="695" y="700" type="line" smooth="yes"/>
      <point x="764" y="700" type="line" smooth="yes"/>
    </contour>
    <contour>
      <point x="620" y="355" type="line" smooth="yes"/>
      <point x="164" y="355" type="line" smooth="yes"/>
      <point x="164" y="389" type="line" smooth="yes"/>
      <point x="620" y="389" type="line" smooth="yes"/>
    </contour>
  </outline>
</glyph>
<glyph name="I1" format="1">
  <advance width="800"/>
  <outline>
    <contour>
      <point x="356" y="660" type="line" smooth="yes"/>
      <point x="356" y="0" type="line" smooth="yes"/>
      <point x="444" y="0" type="line" smooth="yes"/>
      <point x="444" y="660" type="line" smooth="yes"/>
    </contour>
    <contour>
      <point x="444" y="48" type="curve" smooth="yes"/>
      <point x="356" y="48" type="line" smooth="yes"/>
      <point x="300" y="48"/>
      <point x="159" y="62"/>
      <point x="106" y="78" type="curve"/>
      <point x="106" y="0" type="line" smooth="yes"/>
      <point x="694" y="0" type="line" smooth="yes"/>
      <point x="694" y="78" type="line"/>
      <point x="642" y="62"/>
      <point x="500" y="48"/>
    </contour>
    <contour>
      <point x="444" y="612" type="line" smooth="yes"/>
      <point x="500" y="612"/>
      <point x="642" y="598"/>
      <point x="694" y="582" type="curve"/>
      <point x="694" y="660" type="line" smooth="yes"/>
      <point x="106" y="660" type="line" smooth="yes"/>
      <point x="106" y="582" type="line"/>
      <point x="159" y="598"/>
      <point x="300" y="612"/>
      <point x="356" y="612" type="curve" smooth="yes"/>
    </contour>
  </outline>
</glyph>
<glyph name="I2" format="1">
  <advance width="800"/>
  <outline>
    <contour>
      <point x="356" y="660" type="line" smooth="yes"/>
      <point x="356" y="0" type="line" smooth="yes"/>
      <point x="444" y="0" type="line" smooth="yes"/>
      <point x="444" y="660" type="line" smooth="yes"/>
    </contour>
    <contour>
      <point x="356" y="95" type="line"/>
      <point x="356" y="66"/>
      <point x="330" y="45"/>
      <point x="287" y="37" type="curve"/>
      <point x="155" y="37" type="line" smooth="yes"/>
      <point x="126" y="37"/>
      <point x="125" y="0"/>
      <point x="125" y="0" type="curve" smooth="yes"/>
      <point x="356" y="0" type="line" smooth="yes"/>
    </contour>
    <contour>
      <point x="675" y="0" type="line" smooth="yes"/>
      <point x="675" y="0"/>
      <point x="674" y="37"/>
      <point x="645" y="37" type="curve" smooth="yes"/>
      <point x="513" y="37" type="line"/>
      <point x="470" y="45"/>
      <point x="444" y="66"/>
      <point x="444" y="95" type="curve"/>
      <point x="444" y="0" type="line" smooth="yes"/>
    </contour>
    <contour>
      <point x="356" y="565" type="curve"/>
      <point x="356" y="660" type="line" smooth="yes"/>
      <point x="125" y="660" type="line" smooth="yes"/>
      <point x="125" y="660"/>
      <point x="126" y="623"/>
      <point x="155" y="623" type="curve" smooth="yes"/>
      <point x="287" y="623" type="line"/>
      <point x="330" y="615"/>
      <point x="356" y="594"/>
    </contour>
    <contour>
      <point x="675" y="660" type="curve" smooth="yes"/>
      <point x="444" y="660" type="line" smooth="yes"/>
      <point x="444" y="565" type="line"/>
      <point x="444" y="594"/>
      <point x="470" y="615"/>
      <point x="513" y="623" type="curve"/>
      <point x="645" y="623" type="line" smooth="yes"/>
      <point x="674" y="623"/>
      <point x="675" y="660"/>
    </contour>
  </outline>
</glyph>
<glyph name="I6" format="1">
  <advance width="800"/>
  <outline>
    <contour>
      <point x="356" y="660" type="line" smooth="yes"/>
      <point x="356" y="0" type="line" smooth="yes"/>
      <point x="444" y="0" type="line" smooth="yes"/>
      <point x="444" y="660" type="line" smooth="yes"/>
    </contour>
    <contour>
      <point x="149" y="0" type="line" smooth="yes"/>
      <point x="525" y="0" type="line" smooth="yes"/>
      <point x="600" y="0"/>
      <point x="688" y="33"/>
      <point x="688" y="90" type="curve" smooth="yes"/>
      <point x="688" y="111"/>
      <point x="674" y="132"/>
      <point x="646" y="132" type="curve" smooth="yes"/>
      <point x="617" y="132"/>
      <point x="574" y="114"/>
      <point x="574" y="96" type="curve" smooth="yes"/>
      <point x="574" y="66"/>
      <point x="621" y="73"/>
      <point x="597" y="51" type="curve" smooth="yes"/>
      <point x="579" y="36"/>
      <point x="509" y="37"/>
      <point x="485" y="37" type="curve" smooth="yes"/>
      <point x="149" y="37" type="line" smooth="yes"/>
    </contour>
    <contour>
      <point x="651" y="672" type="line" smooth="yes"/>
      <point x="275" y="672" type="line" smooth="yes"/>
      <point x="200" y="672"/>
      <point x="112" y="639"/>
      <point x="112" y="582" type="curve" smooth="yes"/>
      <point x="112" y="561"/>
      <point x="126" y="540"/>
      <point x="154" y="540" type="curve" smooth="yes"/>
      <point x="183" y="540"/>
      <point x="226" y="558"/>
      <point x="226" y="576" type="curve" smooth="yes"/>
      <point x="226" y="606"/>
      <point x="179" y="599"/>
      <point x="203" y="621" type="curve" smooth="yes"/>
      <point x="221" y="636"/>
      <point x="291" y="635"/>
      <point x="315" y="635" type="curve" smooth="yes"/>
      <point x="651" y="635" type="line" smooth="yes"/>
    </contour>
  </outline>
</glyph>
<glyph name="I7" format="1">
  <advance width="800"/>
  <outline>
    <contour>
      <point x="356" y="660" type="line" smooth="yes"/>
      <point x="356" y="0" type="line" smooth="yes"/>
      <point x="444" y="0" type="line" smooth="yes"/>
      <point x="444" y="660" type="line" smooth="yes"/>
    </contour>
    <contour>
      <point x="694" y="593" type="curve"/>
      <point x="694" y="660" type="line" smooth="yes"/>
      <point x="106" y="660" type="line" smooth="yes"/>
      <point x="106" y="593" type="line"/>
      <point x="184" y="623"/>
      <point x="276" y="623"/>
      <point x="356" y="623" type="curve" smooth="yes"/>
      <point x="444" y="623" type="line" smooth="yes"/>
      <point x="524" y="623"/>
      <point x="616" y="623"/>
    </contour>
    <contour>
      <point x="694" y="67" type="line"/>
      <point x="616" y="37"/>
      <point x="524" y="37"/>
      <point x="444" y="37" type="curve" smooth="yes"/>
      <point x="356" y="37" type="line" smooth="yes"/>
      <point x="276" y="37"/>
      <point x="184" y="37"/>
      <point x="106" y="67" type="curve"/>
      <point x="106" y="0" type="line" smooth="yes"/>
      <point x="694" y="0" type="line" smooth="yes"/>
    </contour>
  </outline>
</glyph>
<glyph name="J1" format="1">
  <advance width="800"/>
  <outline>
    <contour>
      <point x="513" y="660" type="line" smooth="yes"/>
      <point x="513" y="208" type="line" smooth="yes"/>
      <point x="513" y="90"/>
      <point x="433" y="26"/>
      <point x="396" y="26" type="curve" smooth="yes"/>
      <point x="340" y="26"/>
      <point x="293" y="57"/>
      <point x="270" y="83" type="curve" smooth="yes"/>
      <point x="264" y="89"/>
      <point x="255" y="92"/>
      <point x="244" y="92" type="curve" smooth="yes"/>
      <point x="210" y="92"/>
      <point x="152" y="66"/>
      <point x="168" y="48" type="curve" smooth="yes"/>
      <point x="203" y="9"/>
      <point x="282" y="-12"/>
      <point x="343" y="-12" type="curve" smooth="yes"/>
      <point x="442" y="-12"/>
      <point x="601" y="81"/>
      <point x="601" y="208" type="curve" smooth="yes"/>
      <point x="601" y="660" type="line" smooth="yes"/>
    </contour>
    <contour>
      <point x="445" y="642" type="line"/>
      <point x="488" y="634"/>
      <point x="514" y="613"/>
      <point x="514" y="584" type="curve"/>
      <point x="514" y="660" type="line" smooth="yes"/>
      <point x="445" y="660" type="line" smooth="yes"/>
    </contour>
    <contour>
      <point x="671" y="642" type="line"/>
      <point x="628" y="634"/>
      <point x="602" y="613"/>
      <point x="602" y="584" type="curve"/>
      <point x="602" y="660" type="line" smooth="yes"/>
      <point x="671" y="660" type="line" smooth="yes"/>
    </contour>
  </outline>
</glyph>
<glyph name="J3" format="1">
  <advance width="800"/>
  <outline>
    <contour>
      <point x="638" y="168" type="curve" smooth="yes"/>
      <point x="638" y="661" type="line"/>
      <point x="550" y="661" type="line"/>
      <point x="550" y="168" type="line" smooth="yes"/>
      <point x="550" y="-96"/>
      <point x="206" y="52"/>
      <point x="277" y="157" type="curve" smooth="yes"/>
      <point x="308" y="203"/>
      <point x="271" y="228"/>
      <point x="233" y="228" type="curve" smooth="yes"/>
      <point x="184" y="228"/>
      <point x="162" y="189"/>
      <point x="162" y="148" type="curve" smooth="yes"/>
      <point x="162" y="42"/>
      <point x="283" y="-12"/>
      <point x="386" y="-12" type="curve" smooth="yes"/>
      <point x="496" y="-12"/>
      <point x="638" y="48"/>
    </contour>
  </outline>
</glyph>
<glyph name="O2" format="1">
  <advance width="800"/>
  <outline>
    <contour>
      <point x="380" y="633" type="curve" smooth="yes"/>
      <point x="516" y="633"/>
      <point x="660" y="520"/>
      <point x="660" y="305" type="curve" smooth="yes"/>
      <point x="660" y="115"/>
      <point x="544" y="23"/>
      <point x="421" y="23" type="curve" smooth="yes"/>
      <point x="285" y="23"/>
      <point x="140" y="136"/>
      <point x="140" y="351" type="curve" smooth="yes"/>
      <point x="140" y="541"/>
      <point x="257" y="633"/>
    </contour>
    <contour>
      <point x="761" y="345" type="curve" smooth="yes"/>
      <point x="761" y="565"/>
      <point x="591" y="672"/>
      <point x="416" y="672" type="curve" smooth="yes"/>
      <point x="230" y="672"/>
      <point x="39" y="551"/>
      <point x="39" y="315" type="curve" smooth="yes"/>
      <point x="39" y="95"/>
      <point x="209" y="-12"/>
      <point x="384" y="-12" type="curve" smooth="yes"/>
      <point x="570" y="-12"/>
      <point x="761" y="109"/>
    </contour>
  </outline>
</glyph>
<glyph name="R1" format="1">
  <advance width="800"/>
  <outline>
    <contour>
      <point x="213" y="660" type="line" smooth="yes"/>
      <point x="213" y="623" type="line" smooth="yes"/>
      <point x="410" y="623" type="line" smooth="yes"/>
      <point x="496" y="623"/>
      <point x="570" y="564"/>
      <point x="570" y="482" type="curve" smooth="yes"/>
      <point x="570" y="395"/>
      <point x="494" y="346"/>
      <point x="388" y="346" type="curve" smooth="yes"/>
      <point x="213" y="346" type="line" smooth="yes"/>
      <point x="213" y="309" type="line" smooth="yes"/>
      <point x="388" y="309" type="line" smooth="yes"/>
      <point x="552" y="309"/>
      <point x="670" y="395"/>
      <point x="670" y="499" type="curve" smooth="yes"/>
      <point x="670" y="598"/>
      <point x="591" y="660"/>
      <point x="458" y="660" type="curve" smooth="yes"/>
    </contour>
    <contour>
      <point x="213" y="0" type="line" smooth="yes"/>
      <point x="125" y="0" type="line" smooth="yes"/>
      <point x="125" y="660" type="line" smooth="yes"/>
      <point x="213" y="660" type="line" smooth="yes"/>
    </contour>
    <contour>
      <point x="56" y="18" type="line"/>
      <point x="99" y="26"/>
      <point x="125" y="47"/>
      <point x="125" y="76" type="curve"/>
      <point x="125" y="0" type="line" smooth="yes"/>
      <point x="56" y="0" type="line" smooth="yes"/>
    </contour>
    <contour>
      <point x="56" y="642" type="line"/>
      <point x="99" y="634"/>
      <point x="125" y="613"/>
      <point x="125" y="584" type="curve"/>
      <point x="125" y="660" type="line" smooth="yes"/>
      <point x="56" y="660" type="line" smooth="yes"/>
    </contour>
    <contour>
      <point x="282" y="0" type="line" smooth="yes"/>
      <point x="213" y="0" type="line" smooth="yes"/>
      <point x="213" y="76" type="line"/>
      <point x="213" y="47"/>
      <point x="239" y="26"/>
      <point x="282" y="18" type="curve"/>
    </contour>
    <contour>
      <point x="384" y="313" type="line"/>
      <point x="486" y="235"/>
      <point x="547" y="142"/>
      <point x="619" y="0" type="curve"/>
      <point x="760" y="0" type="line"/>
      <point x="760" y="18" type="line"/>
      <point x="712" y="23"/>
      <point x="692" y="52"/>
      <point x="677" y="79" type="curve" smooth="yes"/>
      <point x="614" y="192"/>
      <point x="533" y="278"/>
      <point x="431" y="344" type="curve"/>
    </contour>
  </outline>
</glyph>
<glyph name="T1" format="1">
  <advance width="800"/>
  <outline>
    <contour>
      <point x="444" y="660" type="line" smooth="yes"/>
      <point x="356" y="660" type="line" smooth="yes"/>
      <point x="356" y="0" type="line" smooth="yes"/>
      <point x="444" y="0" type="line" smooth="yes"/>
    </contour>
    <contour>
      <point x="287" y="18" type="line"/>
      <point x="330" y="26"/>
      <point x="356" y="47"/>
      <point x="356" y="76" type="curve"/>
      <point x="356" y="0" type="line" smooth="yes"/>
      <point x="287" y="0" type="line" smooth="yes"/>
    </contour>
    <contour>
      <point x="513" y="18" type="line"/>
      <point x="471" y="26"/>
      <point x="444" y="47"/>
      <point x="444" y="76" type="curve"/>
      <point x="444" y="0" type="line" smooth="yes"/>
      <point x="513" y="0" type="line" smooth="yes"/>
    </contour>
    <contour>
      <point x="84" y="660" type="line" smooth="yes"/>
      <point x="44" y="490" type="line" smooth="yes"/>
      <point x="73" y="490" type="line"/>
      <point x="137" y="622"/>
      <point x="193" y="626"/>
      <point x="266" y="626" type="curve"/>
      <point x="266" y="660" type="line" smooth="yes"/>
    </contour>
    <contour>
      <point x="716" y="660" type="line" smooth="yes"/>
      <point x="534" y="660" type="line" smooth="yes"/>
      <point x="534" y="626" type="line"/>
      <point x="607" y="626"/>
      <point x="662" y="622"/>
      <point x="727" y="490" type="curve"/>
      <point x="756" y="490" type="line" smooth="yes"/>
    </contour>
    <contour>
      <point x="233" y="626" type="line" smooth="yes"/>
      <point x="565" y="626" type="line" smooth="yes"/>
      <point x="565" y="660" type="line" smooth="yes"/>
      <point x="233" y="660" type="line" smooth="yes"/>
    </contour>
  </outline>
</glyph>
<glyph name="V2" format="1">
  <advance width="800"/>
  <outline>
    <contour>
      <point x="561" y="682" type="line"/>
      <point x="606" y="676"/>
      <point x="658" y="666"/>
      <point x="641" y="625" type="curve" smooth="yes"/>
      <point x="376" y="0" type="line" smooth="yes"/>
      <point x="409" y="0" type="line" smooth="yes"/>
      <point x="675" y="625" type="line" smooth="yes"/>
      <point x="692" y="666"/>
      <point x="730" y="676"/>
      <point x="769" y="682" type="curve"/>
      <point x="769" y="700" type="line" smooth="yes"/>
      <point x="561" y="700" type="line" smooth="yes"/>
    </contour>
    <contour>
      <point x="429" y="92" type="line" smooth="yes"/>
      <point x="203" y="625" type="line" smooth="yes"/>
      <point x="189" y="658"/>
      <point x="221" y="674"/>
      <point x="263" y="682" type="curve"/>
      <point x="263" y="700" type="line" smooth="yes"/>
      <point x="31" y="700" type="line" smooth="yes"/>
      <point x="31" y="682" type="line"/>
      <point x="81" y="672"/>
      <point x="98" y="655"/>
      <point x="111" y="625" type="curve" smooth="yes"/>
      <point x="376" y="0" type="line" smooth="yes"/>
    </contour>
  </outline>
</glyph>
<glyph name="W1" format="1">
  <advance width="800"/>
  <outline>
    <contour>
      <point x="396" y="500" type="line" smooth="yes"/>
      <point x="396" y="411" type="line" smooth="yes"/>
      <point x="499" y="-12" type="line" smooth="yes"/>
      <point x="562" y="-12" type="line" smooth="yes"/>
      <point x="562" y="47" type="line" smooth="yes"/>
      <point x="452" y="500" type="line" smooth="yes"/>
    </contour>
    <contour>
      <point x="385" y="500" type="line" smooth="yes"/>
      <point x="260" y="-12" type="line" smooth="yes"/>
      <point x="303" y="-12" type="line" smooth="yes"/>
      <point x="428" y="500" type="line" smooth="yes"/>
    </contour>
    <contour>
      <point x="163" y="586" type="line" smooth="yes"/>
      <point x="153" y="626"/>
      <point x="169" y="643"/>
      <point x="209" y="643" type="curve"/>
      <point x="209" y="660" type="line" smooth="yes"/>
      <point x="0" y="660" type="line" smooth="yes"/>
      <point x="0" y="642" type="line"/>
      <point x="47" y="640"/>
      <point x="74" y="633"/>
      <point x="85" y="586" type="curve" smooth="yes"/>
      <point x="232" y="-12" type="line" smooth="yes"/>
      <point x="296" y="-12" type="line" smooth="yes"/>
      <point x="296" y="46" type="line" smooth="yes"/>
    </contour>
    <contour>
      <point x="570" y="-12" type="line"/>
      <point x="716" y="585" type="line" smooth="yes"/>
      <point x="726" y="626"/>
      <point x="761" y="636"/>
      <point x="800" y="642" type="curve"/>
      <point x="800" y="660" type="line" smooth="yes"/>
      <point x="636" y="660" type="line" smooth="yes"/>
      <point x="636" y="642" type="line"/>
      <point x="681" y="636"/>
      <point x="683" y="628"/>
      <point x="673" y="585" type="curve" smooth="yes"/>
      <point x="527" y="-12" type="line" smooth="yes"/>
    </contour>
  </outline>
</glyph>
<glyph name="W2" format="1">
  <advance width="800"/>
  <outline>
    <contour>
      <point x="167" y="586" type="line" smooth="yes"/>
      <point x="158" y="627"/>
      <point x="169" y="643"/>
      <point x="209" y="643" type="curve"/>
      <point x="209" y="660" type="line" smooth="yes"/>
      <point x="0" y="660" type="line" smooth="yes"/>
      <point x="0" y="642" type="line"/>
      <point x="47" y="640"/>
      <point x="74" y="633"/>
      <point x="85" y="586" type="curve" smooth="yes"/>
      <point x="222.0" y="-12.0" type="line" smooth="yes"/>
      <point x="292" y="-12" type="line" smooth="yes"/>
      <point x="292" y="42" type="line" smooth="yes"/>
    </contour>
    <contour>
      <point x="716" y="585" type="line" smooth="yes"/>
      <point x="725" y="626"/>
      <point x="761" y="636"/>
      <point x="800" y="642" type="curve"/>
      <point x="800" y="660" type="line" smooth="yes"/>
      <point x="636" y="660" type="line" smooth="yes"/>
      <point x="636" y="642" type="line"/>
      <point x="681" y="636"/>
      <point x="683" y="628"/>
      <point x="673" y="585" type="curve" smooth="yes"/>
      <point x="538" y="-12" type="line" smooth="yes"/>
      <point x="581" y="-12" type="line" smooth="yes"/>
    </contour>
    <contour>
      <point x="388" y="569" type="line" smooth="yes"/>
      <point x="388" y="514" type="line" smooth="yes"/>
      <point x="508.0" y="-12.0" type="line" smooth="yes"/>
      <point x="579.0" y="-12.0" type="line" smooth="yes"/>
      <point x="579.0" y="34.0" type="line" smooth="yes"/>
      <point x="458.0" y="569.0" type="line" smooth="yes"/>
    </contour>
    <contour>
      <point x="384" y="569" type="line" smooth="yes"/>
      <point x="252" y="-12" type="line" smooth="yes"/>
      <point x="295" y="-12" type="line" smooth="yes"/>
      <point x="427" y="569" type="line" smooth="yes"/>
    </contour>
  </outline>
</glyph>
<glyph name="ampersand3" format="1">
  <advance width="800"/>
  <outline>
    <contour>
      <point x="655" y="319" type="curve" smooth="yes"/>
      <point x="655" y="113"/>
      <point x="482" y="-12"/>
      <point x="325" y="-12" type="curve" smooth="yes"/>
      <point x="159" y="-12"/>
      <point x="71" y="87"/>
      <point x="71" y="189" type="curve" smooth="yes"/>
      <point x="71" y="273"/>
      <point x="132" y="360"/>
      <point x="257" y="392" type="curve"/>
      <point x="272" y="372" type="line"/>
      <point x="193" y="342"/>
      <point x="158" y="279"/>
      <point x="158" y="215" type="curve" smooth="yes"/>
      <point x="158" y="120"/>
      <point x="234" y="22"/>
      <point x="355" y="22" type="curve" smooth="yes"/>
      <point x="452" y="22"/>
      <point x="577" y="132"/>
      <point x="577" y="319" type="curve" smooth="yes"/>
      <point x="577" y="348"/>
      <point x="551" y="369"/>
      <point x="508" y="377" type="curve"/>
      <point x="508" y="395" type="line"/>
      <point x="730" y="395" type="line"/>
      <point x="730" y="377" type="line"/>
      <point x="687" y="369"/>
      <point x="655" y="348"/>
    </contour>
    <contour>
      <point x="331" y="-193" type="curve"/>
      <point x="331" y="-166" type="line"/>
      <point x="422" y="-156"/>
      <point x="562" y="-95"/>
      <point x="562" y="18" type="curve" smooth="yes"/>
      <point x="562" y="222"/>
      <point x="161" y="294"/>
      <point x="161" y="488" type="curve" smooth="yes"/>
      <point x="161" y="611"/>
      <point x="274" y="672"/>
      <point x="380" y="672" type="curve" smooth="yes"/>
      <point x="470" y="672"/>
      <point x="555" y="627"/>
      <point x="555" y="537" type="curve" smooth="yes"/>
      <point x="555" y="513"/>
      <point x="538" y="486"/>
      <point x="507" y="486" type="curve" smooth="yes"/>
      <point x="473" y="486"/>
      <point x="424" y="503"/>
      <point x="424" y="524" type="curve" smooth="yes"/>
      <point x="424" y="557"/>
      <point x="450" y="570"/>
      <point x="431" y="589" type="curve" smooth="yes"/>
      <point x="406" y="615"/>
      <point x="372" y="630"/>
      <point x="345" y="630" type="curve" smooth="yes"/>
      <point x="294" y="630"/>
      <point x="250" y="590"/>
      <point x="250" y="521" type="curve" smooth="yes"/>
      <point x="250" y="318"/>
      <point x="656" y="266"/>
      <point x="656" y="18" type="curve" smooth="yes"/>
      <point x="656" y="-127"/>
      <point x="430" y="-203"/>
    </contour>
  </outline>
</glyph>
<glyph name="ampersand5" format="1">
  <advance width="800"/>
  <outline>
    <contour>
      <point x="668" y="319" type="curve" smooth="yes"/>
      <point x="668" y="113"/>
      <point x="495" y="-12"/>
      <point x="338" y="-12" type="curve" smooth="yes"/>
      <point x="172" y="-12"/>
      <point x="84" y="87"/>
      <point x="84" y="189" type="curve" smooth="yes"/>
      <point x="84" y="273"/>
      <point x="145" y="360"/>
      <point x="270" y="392" type="curve"/>
      <point x="285" y="372" type="line"/>
      <point x="206" y="342"/>
      <point x="171" y="279"/>
      <point x="171" y="215" type="curve" smooth="yes"/>
      <point x="171" y="120"/>
      <point x="247" y="22"/>
      <point x="368" y="22" type="curve" smooth="yes"/>
      <point x="465" y="22"/>
      <point x="590" y="132"/>
      <point x="590" y="319" type="curve" smooth="yes"/>
      <point x="590" y="348"/>
      <point x="564" y="369"/>
      <point x="521" y="377" type="curve"/>
      <point x="521" y="395" type="line"/>
      <point x="743" y="395" type="line"/>
      <point x="743" y="377" type="line"/>
      <point x="700" y="369"/>
      <point x="668" y="348"/>
    </contour>
    <contour>
      <point x="261" y="521" type="curve" smooth="yes"/>
      <point x="261" y="317"/>
      <point x="694" y="164"/>
      <point x="694" y="-16" type="curve" smooth="yes"/>
      <point x="694" y="-182"/>
      <point x="437" y="-259"/>
      <point x="309" y="-248" type="curve"/>
      <point x="309" y="-222" type="line"/>
      <point x="397" y="-217"/>
      <point x="607" y="-187"/>
      <point x="607" y="-43" type="curve" smooth="yes"/>
      <point x="607" y="144"/>
      <point x="172" y="282"/>
      <point x="172" y="488" type="curve" smooth="yes"/>
      <point x="172" y="611"/>
      <point x="285" y="672"/>
      <point x="391" y="672" type="curve" smooth="yes"/>
      <point x="481" y="672"/>
      <point x="566" y="627"/>
      <point x="566" y="537" type="curve" smooth="yes"/>
      <point x="566" y="513"/>
      <point x="549" y="486"/>
      <point x="518" y="486" type="curve" smooth="yes"/>
      <point x="484" y="486"/>
      <point x="435" y="503"/>
      <point x="435" y="524" type="curve" smooth="yes"/>
      <point x="435" y="557"/>
      <point x="461" y="570"/>
      <point x="442" y="589" type="curve" smooth="yes"/>
      <point x="417" y="615"/>
      <point x="383" y="630"/>
      <point x="356" y="630" type="curve" smooth="yes"/>
      <point x="305" y="630"/>
      <point x="261" y="590"/>
    </contour>
  </outline>
</glyph>
<glyph name="c2" format="1">
  <advance width="800"/>
  <outline>
    <contour>
      <point x="360" y="-12" type="curve" smooth="yes"/>
      <point x="456" y="-12"/>
      <point x="571" y="27"/>
      <point x="646" y="114" type="curve" smooth="yes"/>
      <point x="660" y="130"/>
      <point x="588" y="133"/>
      <point x="569" y="110" type="curve" smooth="yes"/>
      <point x="529" y="65"/>
      <point x="482" y="26"/>
      <point x="425" y="26" type="curve" smooth="yes"/>
      <point x="289" y="26"/>
      <point x="194" y="130"/>
      <point x="194" y="268" type="curve" smooth="yes"/>
      <point x="194" y="376"/>
      <point x="272" y="476"/>
      <point x="381" y="476" type="curve" smooth="yes"/>
      <point x="411" y="476"/>
      <point x="479" y="462"/>
      <point x="508" y="425" type="curve" smooth="yes"/>
      <point x="522" y="407"/>
      <point x="505" y="402"/>
      <point x="499" y="369" type="curve" smooth="yes"/>
      <point x="497" y="357"/>
      <point x="548" y="334"/>
      <point x="582" y="328" type="curve" smooth="yes"/>
      <point x="608" y="323"/>
      <point x="621" y="350"/>
      <point x="626" y="375" type="curve" smooth="yes"/>
      <point x="639" y="445"/>
      <point x="560" y="512"/>
      <point x="441" y="512" type="curve" smooth="yes"/>
      <point x="298" y="512"/>
      <point x="93" y="418"/>
      <point x="93" y="233" type="curve" smooth="yes"/>
      <point x="93" y="122"/>
      <point x="204" y="-12"/>
    </contour>
  </outline>
</glyph>
<glyph name="five1" format="1">
  <advance width="800"/>
  <outline>
    <contour>
      <point x="190" y="327" type="line"/>
      <point x="254" y="327" type="line"/>
      <point x="311" y="672" type="line"/>
      <point x="247" y="672" type="line"/>
    </contour>
    <contour>
      <point x="340" y="393" type="curve" smooth="yes"/>
      <point x="294" y="384"/>
      <point x="224" y="353"/>
      <point x="190" y="327" type="curve"/>
      <point x="223" y="310" type="line"/>
      <point x="245" y="326"/>
      <point x="287" y="338"/>
      <point x="337" y="349" type="curve" smooth="yes"/>
      <point x="472" y="379"/>
      <point x="584" y="300"/>
      <point x="584" y="179" type="curve" smooth="yes"/>
      <point x="584" y="93"/>
      <point x="513" y="27"/>
      <point x="413" y="27" type="curve" smooth="yes"/>
      <point x="329" y="27"/>
      <point x="267" y="65"/>
      <point x="243" y="96" type="curve" smooth="yes"/>
      <point x="222" y="123"/>
      <point x="248" y="126"/>
      <point x="248" y="161" type="curve" smooth="yes"/>
      <point x="248" y="190"/>
      <point x="231" y="208"/>
      <point x="190" y="208" type="curve" smooth="yes"/>
      <point x="148" y="208"/>
      <point x="122" y="189"/>
      <point x="122" y="161" type="curve" smooth="yes"/>
      <point x="122" y="64"/>
      <point x="221" y="-12"/>
      <point x="370" y="-12" type="curve" smooth="yes"/>
      <point x="497" y="-12"/>
      <point x="678" y="59"/>
      <point x="678" y="213" type="curve" smooth="yes"/>
      <point x="678" y="385"/>
      <point x="472" y="419"/>
    </contour>
    <contour>
      <point x="435" y="675"/>
      <point x="498" y="563"/>
      <point x="599" y="563" type="curve" smooth="yes"/>
      <point x="638" y="563"/>
      <point x="668" y="593"/>
      <point x="668" y="630" type="curve" smooth="yes"/>
      <point x="668" y="656"/>
      <point x="650" y="670"/>
      <point x="628" y="670" type="curve" smooth="yes"/>
      <point x="585" y="670"/>
      <point x="578" y="626"/>
      <point x="553" y="626" type="curve" smooth="yes"/>
      <point x="489" y="626"/>
      <point x="423" y="696"/>
      <point x="298" y="637" type="curve"/>
      <point x="298" y="602" type="line"/>
    </contour>
  </outline>
</glyph>
<glyph name="four1" format="1">
  <advance width="800"/>
  <outline>
    <contour>
      <point x="194" y="222" type="curve"/>
      <point x="322" y="298"/>
      <point x="428" y="458"/>
      <point x="428" y="608" type="curve" smooth="yes"/>
      <point x="428" y="650"/>
      <point x="392" y="672"/>
      <point x="360" y="672" type="curve" smooth="yes"/>
      <point x="335" y="672"/>
      <point x="311" y="657"/>
      <point x="311" y="627" type="curve" smooth="yes"/>
      <point x="311" y="600"/>
      <point x="378" y="582"/>
      <point x="378" y="560" type="curve" smooth="yes"/>
      <point x="378" y="431"/>
      <point x="207" y="304"/>
      <point x="126" y="251" type="curve" smooth="yes"/>
      <point x="126" y="251"/>
      <point x="194" y="222"/>
    </contour>
    <contour>
      <point x="674" y="251" type="line"/>
      <point x="630" y="246"/>
      <point x="517" y="221"/>
      <point x="444" y="221" type="curve" smooth="yes"/>
      <point x="356" y="221" type="line" smooth="yes"/>
      <point x="283" y="221"/>
      <point x="170" y="246"/>
      <point x="126" y="251" type="curve"/>
      <point x="126" y="173" type="line"/>
      <point x="674" y="173" type="line"/>
    </contour>
    <contour>
      <point x="452" y="592" type="curve"/>
      <point x="453" y="0" type="line"/>
      <point x="541" y="0" type="line"/>
      <point x="541" y="672" type="line"/>
      <point x="499" y="672" type="line"/>
      <point x="491" y="649"/>
      <point x="471" y="615"/>
    </contour>
    <contour>
      <point x="384" y="18" type="line"/>
      <point x="427" y="26"/>
      <point x="453" y="47"/>
      <point x="453" y="76" type="curve"/>
      <point x="453" y="0" type="line" smooth="yes"/>
      <point x="384" y="0" type="line" smooth="yes"/>
    </contour>
    <contour>
      <point x="610" y="18" type="line"/>
      <point x="567" y="26"/>
      <point x="541" y="47"/>
      <point x="541" y="76" type="curve"/>
      <point x="541" y="0" type="line" smooth="yes"/>
      <point x="610" y="0" type="line" smooth="yes"/>
    </contour>
  </outline>
</glyph>
<glyph name="great3" format="1">
  <advance width="800"/>
  <outline>
    <contour>
      <point x="125" y="0" type="line" smooth="yes"/>
      <point x="662" y="259" type="line" smooth="yes"/>
      <point x="662" y="330" type="line" smooth="yes"/>
      <point x="125" y="606" type="line" smooth="yes"/>
      <point x="125" y="525" type="line" smooth="yes"/>
      <point x="582" y="281" type="line" smooth="yes"/>
      <point x="125" y="54" type="line" smooth="yes"/>
    </contour>
  </outline>
</glyph>
<glyph name="greater1" format="1">
  <advance width="800"/>
  <outline>
    <contour>
      <point x="634" y="269" type="line" smooth="yes"/>
      <point x="634" y="347" type="line" smooth="yes"/>
      <point x="108" y="49" type="line" smooth="yes"/>
      <point x="108" y="1" type="line" smooth="yes"/>
    </contour>
    <contour>
      <point x="634" y="347" type="line" smooth="yes"/>
      <point x="108" y="615" type="line" smooth="yes"/>
      <point x="108" y="567" type="line" smooth="yes"/>
      <point x="634" y="269" type="line" smooth="yes"/>
    </contour>
  </outline>
</glyph>
<glyph name="i1" format="1">
  <advance width="800"/>
  <outline>
    <contour>
      <point x="460" y="688" type="curve" smooth="yes"/>
      <point x="460" y="655"/>
      <point x="433" y="628"/>
      <point x="400" y="628" type="curve" smooth="yes"/>
      <point x="367" y="628"/>
      <point x="340" y="655"/>
      <point x="340" y="688" type="curve" smooth="yes"/>
      <point x="340" y="721"/>
      <point x="367" y="748"/>
      <point x="400" y="748" type="curve" smooth="yes"/>
      <point x="433" y="748"/>
      <point x="460" y="721"/>
    </contour>
    <contour>
      <point x="647" y="132" type="line"/>
      <point x="609" y="106"/>
      <point x="514" y="37"/>
      <point x="453" y="37" type="curve" smooth="yes"/>
      <point x="425" y="37"/>
      <point x="372" y="62"/>
      <point x="372" y="97" type="curve" smooth="yes"/>
      <point x="372" y="172"/>
      <point x="448" y="350"/>
      <point x="448" y="433" type="curve" smooth="yes"/>
      <point x="448" y="461"/>
      <point x="437" y="512"/>
      <point x="375" y="512" type="curve" smooth="yes"/>
      <point x="268" y="512"/>
      <point x="117" y="447"/>
      <point x="77" y="417" type="curve"/>
      <point x="85" y="396" type="line"/>
      <point x="128" y="421"/>
      <point x="259" y="466"/>
      <point x="301" y="466" type="curve" smooth="yes"/>
      <point x="337" y="466"/>
      <point x="354" y="447"/>
      <point x="354" y="382" type="curve" smooth="yes"/>
      <point x="354" y="312"/>
      <point x="282" y="118"/>
      <point x="282" y="79" type="curve" smooth="yes"/>
      <point x="282" y="20"/>
      <point x="328" y="-12"/>
      <point x="379" y="-12" type="curve" smooth="yes"/>
      <point x="496" y="-12"/>
      <point x="618" y="85"/>
      <point x="654" y="116" type="curve"/>
    </contour>
  </outline>
</glyph>
<glyph name="i10" format="1">
  <advance width="800"/>
  <outline>
    <contour>
      <point x="455" y="688" type="curve" smooth="yes"/>
      <point x="455" y="655"/>
      <point x="428" y="628"/>
      <point x="395" y="628" type="curve" smooth="yes"/>
      <point x="362" y="628"/>
      <point x="335" y="655"/>
      <point x="335" y="688" type="curve" smooth="yes"/>
      <point x="335" y="721"/>
      <point x="362" y="748"/>
      <point x="395" y="748" type="curve" smooth="yes"/>
      <point x="428" y="748"/>
      <point x="455" y="721"/>
    </contour>
    <contour>
      <point x="361" y="401" type="curve" smooth="yes"/>
      <point x="345" y="99" type="line" smooth="yes"/>
      <point x="341" y="25"/>
      <point x="385" y="-12"/>
      <point x="462" y="-12" type="curve" smooth="yes"/>
      <point x="570" y="-12"/>
      <point x="640" y="51"/>
      <point x="673" y="85" type="curve"/>
      <point x="658" y="115" type="line"/>
      <point x="628" y="85"/>
      <point x="549" y="37"/>
      <point x="510" y="36" type="curve" smooth="yes"/>
      <point x="471" y="35"/>
      <point x="431" y="58"/>
      <point x="433" y="99" type="curve" smooth="yes"/>
      <point x="449" y="401" type="line" smooth="yes"/>
      <point x="453" y="475"/>
      <point x="429" y="512"/>
      <point x="352" y="512" type="curve" smooth="yes"/>
      <point x="244" y="512"/>
      <point x="169" y="422"/>
      <point x="131" y="365" type="curve"/>
      <point x="146" y="335" type="line"/>
      <point x="183" y="385"/>
      <point x="265" y="463"/>
      <point x="304" y="464" type="curve" smooth="yes"/>
      <point x="343" y="465"/>
      <point x="363" y="442"/>
    </contour>
  </outline>
</glyph>
<glyph name="i12" format="1">
  <advance width="800"/>
  <outline>
    <contour>
      <point x="475" y="688" type="curve" smooth="yes"/>
      <point x="475" y="655"/>
      <point x="448" y="628"/>
      <point x="415" y="628" type="curve" smooth="yes"/>
      <point x="382" y="628"/>
      <point x="355" y="655"/>
      <point x="355" y="688" type="curve" smooth="yes"/>
      <point x="355" y="721"/>
      <point x="382" y="748"/>
      <point x="415" y="748" type="curve" smooth="yes"/>
      <point x="448" y="748"/>
      <point x="475" y="721"/>
    </contour>
    <contour>
      <point x="390" y="511" type="line"/>
      <point x="363" y="444"/>
      <point x="297" y="353"/>
      <point x="253" y="353" type="curve" smooth="yes"/>
      <point x="226" y="353"/>
      <point x="220" y="390"/>
      <point x="175" y="390" type="curve" smooth="yes"/>
      <point x="152" y="390"/>
      <point x="134" y="376"/>
      <point x="134" y="349" type="curve" smooth="yes"/>
      <point x="134" y="311"/>
      <point x="165" y="291"/>
      <point x="205" y="291" type="curve" smooth="yes"/>
      <point x="252" y="291"/>
      <point x="321" y="327"/>
      <point x="355" y="385" type="curve"/>
      <point x="355" y="99" type="line" smooth="yes"/>
      <point x="355" y="31"/>
      <point x="404" y="-12"/>
      <point x="473" y="-12" type="curve" smooth="yes"/>
      <point x="529" y="-12"/>
      <point x="600" y="17"/>
      <point x="668" y="85" type="curve"/>
      <point x="653" y="115" type="line"/>
      <point x="595" y="57"/>
      <point x="547" y="37"/>
      <point x="512" y="37" type="curve" smooth="yes"/>
      <point x="467" y="37"/>
      <point x="443" y="69"/>
      <point x="443" y="99" type="curve" smooth="yes"/>
      <point x="443" y="511" type="line"/>
    </contour>
  </outline>
</glyph>
<glyph name="i13" format="1">
  <advance width="800"/>
  <outline>
    <contour>
      <point x="443" y="99" type="curve" smooth="yes"/>
      <point x="443" y="511" type="line"/>
      <point x="390" y="511" type="line"/>
      <point x="363" y="444"/>
      <point x="296" y="358"/>
      <point x="252" y="358" type="curve" smooth="yes"/>
      <point x="227" y="358"/>
      <point x="216" y="396"/>
      <point x="174" y="396" type="curve" smooth="yes"/>
      <point x="150" y="396"/>
      <point x="131" y="379"/>
      <point x="131" y="355" type="curve" smooth="yes"/>
      <point x="131" y="328"/>
      <point x="157" y="297"/>
      <point x="214" y="297" type="curve" smooth="yes"/>
      <point x="263" y="297"/>
      <point x="322" y="323"/>
      <point x="355" y="385" type="curve"/>
      <point x="355" y="99" type="line" smooth="yes"/>
      <point x="355" y="31"/>
      <point x="404" y="-12"/>
      <point x="473" y="-12" type="curve" smooth="yes"/>
      <point x="529" y="-12"/>
      <point x="600" y="17"/>
      <point x="668" y="85" type="curve"/>
      <point x="653" y="115" type="line"/>
      <point x="595" y="57"/>
      <point x="547" y="37"/>
      <point x="512" y="37" type="curve" smooth="yes"/>
      <point x="467" y="37"/>
      <point x="443" y="69"/>
    </contour>
    <contour>
      <point x="475" y="688" type="curve" smooth="yes"/>
      <point x="475" y="655"/>
      <point x="448" y="628"/>
      <point x="415" y="628" type="curve" smooth="yes"/>
      <point x="382" y="628"/>
      <point x="355" y="655"/>
      <point x="355" y="688" type="curve" smooth="yes"/>
      <point x="355" y="721"/>
      <point x="382" y="748"/>
      <point x="415" y="748" type="curve" smooth="yes"/>
      <point x="448" y="748"/>
      <point x="475" y="721"/>
    </contour>
  </outline>
</glyph>
